<?xml version="1.0" encoding="utf-8"?>
<!-- Generator: Adobe Illustrator 18.0.0, SVG Export Plug-In . SVG Version: 6.00 Build 0)  -->
<!DOCTYPE svg PUBLIC "-//W3C//DTD SVG 1.1//EN" "http://www.w3.org/Graphics/SVG/1.1/DTD/svg11.dtd">
<svg version="1.1" id="Layer_1" xmlns="http://www.w3.org/2000/svg" xmlns:xlink="http://www.w3.org/1999/xlink" x="0px" y="0px"
	 viewBox="0 0 1639 383" enable-background="new 0 0 1639 383" xml:space="preserve">
<path fill="#FFE6C2" d="M495.742,81.5H487.8c0.1-1,0.169-1.434,0.169-2.18c0-8.745-7.089-15.82-15.833-15.82H444.62
	c0.449-2,0.752-4.743,0.752-6.805v0.291c0-14.667-12.059-25.486-26.725-25.486h-87.664c-11.045-30-39.263-50.419-72.348-50.419
	c-5.787,0-11.421,0.521-16.844,1.687c5.708,21.535,13.861,47.576,21.677,55.392c9.5,9.5,20.852,11.976,26.176,7.976
	s3.763-6.79,3.763-6.79s11.186,0.522,14.561,4.147s6.125,8.747,3.813,11.622s-6.5,4.998-11.813,3.498s-13.563-2.813-18.25-0.938
	s-20.5,8.506-25.5,25.631c-4.231,14.492-4.076,42.194-3.928,51.194h130.845c5.431,0,9.833-4.296,9.833-9.727
	c0-1.987-0.594-3.273-1.608-5.273h104.38c10.427,0,18.88-8.573,18.88-19S506.169,81.5,495.742,81.5z"/>
<g>
	<path fill="#FFE6C1" d="M721.872,244.5H690.53c-0.09,0-0.17-0.87-0.262-1.081c-7.632-17.512-27.042-35.049-47.429-39.545
		c4.098,14.016,3.829,20.09,1.13,27.286c-3,8-15.667,22.642-18.333,31.976c-2.667,9.333,15.333,20.321,14,32.321s0,20.661,0,20.661
		s-17-10.336-20.333-17.67c-3.333-7.333-9.667-18.668-20-26.335c-10.333-7.667-18.667-14.001-12-31.001
		c6.642-16.938,22.214-19.65,22.163-30.384c-4.485-11.945-27.341-38.943-61.502-50.632l-64.786,39.9
		c0,0-18.604,11.391-20.604,20.058s15.365,19.362,19.365,24.029c4,4.667,11.153,11.034,5.051,21.264
		c-8.5,14.25-103.616,65.431-103.616,65.431v13.718c120-0.314,300.659-2.356,300.798-2.353c7.781,0.146-19.09-29.098-13.038-33.142
		c17.666-11.807,26.033-30.5,23.368-50.5h27.372c3.974,0,7.196-3.026,7.196-7C729.068,247.526,725.847,244.5,721.872,244.5z"/>
	<path fill="#FFE6C1" d="M647.8,192.5h25.169c6.075,0,11-4.925,11-11s-4.925-11-11-11h-13.328c1.408,1,2.224,3.391,2.189,4.751
		C661.773,177.449,653.793,185.5,647.8,192.5z"/>
	<path fill="#AAB6C8" d="M486.989,265.347c6.102-10.23-0.95-16.598-4.95-21.264c-4-4.667-21.415-15.362-19.415-24.029
		s20.579-20.058,20.579-20.058l64.774-39.9c-11.617-3.975-24.546-6.183-38.501-5.422c-40.58,2.213-82.932,20.683-114.347,46.455
		c-0.677,0.555-1.356,1.371-2.032,2.371h-75.679c-1.638,0-2.966,0.862-2.966,2.5s1.328,2.5,2.966,2.5h69.357
		c-15.444,16-28.568,37.878-27.306,59.334c0,0-44.5,8.889-60.5,45.889c0,0-18.167,30.22-3.341,30.5
		c18.535,0.35,49.744,0.371,87.744,0.273v-13.718C383.373,330.778,478.489,279.597,486.989,265.347z"/>
	<path fill="#AAB6C8" d="M587.303,241.112c-6.667,17,1.667,23.333,12,31c10.333,7.667,16.667,19,20,26.333
		c3.333,7.333,20.333,17.667,20.333,17.667s-1.333-8.667,0-20.667s-16.667-23-14-32.333s15.333-24,18.333-32
		c2.699-7.196,2.967-13.319-1.13-27.335c-11.453-2.526-23.215-0.967-33.37,6.96c-0.001-0.003-0.002-0.006-0.004-0.009
		C609.517,221.462,593.945,224.174,587.303,241.112z"/>
	<path fill="#AAB6C8" d="M615.469,181.5c0,6.075,4.925,11,11,11H647.8c5.992-7,13.973-15.051,14.03-17.249
		c0.035-1.36-0.781-3.751-2.189-4.751h-33.172C620.394,170.5,615.469,175.425,615.469,181.5z"/>
</g>
<g>
	<path fill="#FFE6C1" d="M201.636,217.132c3.167-3.313,6-14.521,5.833-17.688c-0.167-3.167-3.333-7.167-9.5-7.333
		c-2.536-0.069-10.203,1.696-18.837,3.969c2.258,7.037,5.981,19.728,4.807,22.223c-1.127,2.394-9.88,10.197-18.646,16.197h12.294
		c10.663,0,15.836-4.653,15.836-4.653c3.454-0.167,7.546-2.535,9.546-6.035S201.636,217.132,201.636,217.132z"/>
	<path fill="#AAB6C8" d="M183.939,218.303c1.174-2.495-2.549-15.089-4.807-22.126c-12.362,3.254-26.708,7.502-30.829,8.961
		c-7,2.478-6.667,7.491-7.167,12.345c-4.914,0.132-6.641,7.017-7.234,10.017H89.613c-1.776,0-3.216,1.724-3.216,3.5
		s1.44,3.5,3.216,3.5h75.68C174.059,228.5,182.813,220.697,183.939,218.303z"/>
</g>
<g>
	<path fill="#FFE6C1" d="M855.317,257.5h-22.613c1.863,3,3.308,6.576,2.886,8.388c-0.722,3.096-20.678,21.612-36.31,35.612h56.037
		c12.104,0,21.917-9.896,21.917-22l0,0C877.234,267.396,867.422,257.5,855.317,257.5z"/>
	<path fill="#AAB6C8" d="M835.59,265.888c0.423-1.812-1.023-5.388-2.886-8.388h-44.626c-12.104,0-21.917,9.896-21.917,22l0,0
		c0,12.104,9.813,22,21.917,22h11.201C814.912,287.5,834.867,268.984,835.59,265.888z"/>
</g>
<g>
	<path fill="#FFE6C1" d="M1256.123,72.455c-0.413-0.127-0.819-0.23-1.222-0.322l-16.551,31.843
		c4.615,2.355,15.074,3.589,19.738-3.633c0,0,8.396-4.417,8.396-11.384S1266.543,75.671,1256.123,72.455z"/>
	<path fill="#AAB6C8" d="M1236.711,80.855c-0.81,1.588-3.713,4.645-4.268,9.645h-15.515c-1.726,0-3.125,1.274-3.125,3
		s1.399,3,3.125,3h15.79c0.596,4,2.013,5.522,5.005,7.334c0.19,0.115,0.41,0.129,0.627,0.24l16.551-31.794
		C1245.119,70.056,1238.141,78.053,1236.711,80.855z"/>
</g>
<g>
	<path fill="#FFE6C1" d="M1128.907,98.62c0-3.367-9.25-15.258-16.25-15.258c-4.008,0-13.49-0.409-24.178-0.509
		c-7.099,7.614-14.199,15.226-21.305,22.833c-6.676,7.148-13.347,14.3-20.028,21.444c-3.196,3.417-6.581,7.025-9.866,10.5
		c-2.921,3.091-5.755,6.737-10.009,7.99c-3.96,1.167-8.449,0.25-11.254-2.889c-1.017-1.138-1.753-2.505-2.218-3.954
		c-2.111-6.594-1.188-15.11-0.216-21.856c1.052-7.302,3.088-14.526,6.385-21.142v0c0-0.002,2.666-16-11-25.667
		c-13.667-9.667-33.132-4-33.132-4s-5.465,0.713-13.465,1.976v5.024c0,0,0.548,6.5,10.798,10s17.688,2.108,21.774,7
		c3.063,3.667,3.137,6.703,3.137,9.25c-3.533-4.138-9.961-12.418-31.181-6.75c-31.459,8.403-39.049,15.094-39.049,28
		c0,15.25-8.531,22-16.948,22c-2.837,0-19.531-3.5-19.531,29c0,9.133,0,16.888,0,23.888H996.84c4.715,0,8.824-2.721,11.044-6.518
		c1.326,0.437,2.739,0.518,4.211,0.518h94.082c5.67,0,10.511-3.745,12.494-8.708l2.924,0.062c5.75,0,14.125-5.684,19.625-13.059
		s10.25-27.529,10.25-46.279S1128.907,98.62,1128.907,98.62z"/>
	<path fill="#AAB6C8" d="M759.737,164.5h-26.121c-4.476,0-8.105,3.524-8.105,8c0,4.476,3.629,8,8.105,8h26.121
		c4.476,0,8.105-3.524,8.105-8C767.842,168.024,764.214,164.5,759.737,164.5z"/>
	<path fill="#AAB6C8" d="M910.898,142.612c8.417,0,17.042-6.75,17.042-22c0-12.906,7.527-19.597,38.986-28
		c21.22-5.668,27.598,2.612,31.131,6.75c0-2.547-0.138-5.583-3.2-9.25c-4.086-4.892-11.43-3.5-21.68-7s-10.805-10-10.805-10v-5.024
		c-23,3.427-68.417,11.102-92.535,19.385c-12.71,4.365-22.149,10.027-28.85,16.027h-37.185c-1.565,0-2.833,0.935-2.833,2.5
		s1.269,2.5,2.833,2.5h31.521c-5.76,7-8.729,14-10.154,22h-59.867c-4.418,0-8,3.582-8,8s3.582,8,8,8h27.542
		c-0.761,1-1.208,2.634-1.208,4.167c0,4.326,3.507,7.833,7.833,7.833h23.959c0.111,1,0.245,1.463,0.417,2.454
		c3.928,22.561,28.673,26.887,47.482,29.001c2.318,3.27,6.124,5.545,10.437,5.545h9.608c0-7,0-14.756,0-23.888
		C891.373,139.112,908.06,142.612,910.898,142.612z"/>
	<path fill="#AAB6C8" d="M845.461,71.5h12.35c1.929,0,3.492-1.572,3.492-3.5s-1.563-3.5-3.492-3.5h-12.35
		c-1.929,0-3.492,1.572-3.492,3.5S843.533,71.5,845.461,71.5z"/>
	<path fill="#AAB6C8" d="M1013.585,116.92c-0.972,6.746-1.896,15.262,0.216,21.856c0.464,1.45,1.201,2.816,2.218,3.954
		c2.805,3.139,7.294,4.055,11.254,2.889c4.254-1.253,7.088-4.899,10.009-7.99c3.284-3.475,6.67-7.083,9.866-10.5
		c6.681-7.144,13.352-14.296,20.028-21.444c7.106-7.607,14.207-15.219,21.305-22.833c-7.977-0.075-16.626,0.023-24.176,0.593
		c-17.667,1.333-44.333,12.333-44.333,12.333v0v0C1016.673,102.394,1014.637,109.618,1013.585,116.92z"/>
</g>
<path fill="#AAB6C8" d="M307.969,43.487c-3.375-3.625-14.561-4.153-14.561-4.153s1.561,2.778-3.763,6.778s-16.676,1.5-26.176-8
	c-7.816-7.816-15.969-33.711-21.677-55.246C220.094-12.47,201.831,0.5,191.224,20.5H74.167c-1.441,0-2.773,0.957-3.066,2.369
	c-0.396,1.907,1.058,3.631,2.905,3.631h114.207c-1.576,3-2.901,6.573-3.957,10.293c-6.307-1.408-13.075-1.904-20.129-1.904
	c-29.573,0-51.358,13.611-56.385,31.611H32.469c-13.531,0-24.097,10.775-24.097,24.306v0.097c0,13.531,10.566,24.597,24.097,24.597
	h182.575c-3.718,2-6.349,5.046-6.295,9.296c0.07,5.43,4.704,9.704,10.135,9.704h33.406c-0.148-8-0.303-36.702,3.928-51.194
	c5-17.125,20.813-23.66,25.5-25.535s12.938-0.611,18.25,0.889s9.5-0.649,11.813-3.524S311.344,47.112,307.969,43.487z"/>
<g>
	<path fill="#FFE6C1" d="M1601.6,290.365c-0.004-1.073-0.133-2.145-0.179-3.214c-0.189-4.415-0.714-8.898-1.837-13.183
		c-2.999-11.448-10.578-21.778-20.889-27.68c-11.568-6.622-14.297-22.185-17.09-30.588c-7.669-23.078-21.4-44.112-39.64-60.225
		c-7.264-6.417-14.961-11.734-22.992-16.105c-28.537-15.529-61.342-19.1-94.338-17.604c-1.221,1.28-3.403,2.533-6.818,3.694
		c-43.411,15.652,24.279,54.104,2.527,59.57c-64,16.082-66.056,47.903-69.083,61.179c-3.027,13.275-33.889,19.521-33.889,66.761
		c0,22.944,0,31.53,0,46.53h175.29h25.06h96.676c19.054,0,34.974-16.06,34.974-35.114v-0.113
		C1629.373,307.606,1617.315,293.586,1601.6,290.365z"/>
	<path fill="#AAB6C8" d="M1226.303,210.5h9.333c4.97,0,9-4.029,9-9s-4.03-9-9-9h-9.333c-4.97,0-9,4.029-9,9
		S1221.332,210.5,1226.303,210.5z"/>
	<path fill="#AAB6C8" d="M1331.261,246.209c3.027-13.275,5.184-45.097,69.184-61.179c21.753-5.466-45.988-43.918-2.577-59.57
		c3.415-1.161,5.571-2.414,6.792-3.694c-19.441,0.882-38.962,3.52-57.704,6.515c-13.295,2.125-25.446,5.078-34.979,9.164
		c-37.333,16-46.635,61.211-45.489,66.741c-2.163,0.431-15.599,10.314-28.214,20.314h-73.013c-5.299,0-9.595,4.201-9.595,9.5
		s4.296,9.5,9.595,9.5h53.859c-1.041,2-1.936,2.786-2.614,4.059c-1.711,3.209-5.74,10.048-9.997,18.64
		c-17.164,2.832-31.161,15.301-36.588,31.301h-93.099c-12.522,0-22.673,9.978-22.673,22.5c0,12.522,10.151,22.5,22.673,22.5h77.057
		c2.718,10,11.441,17,21.79,17h121.704c0-15,0-23.586,0-46.53C1297.373,265.73,1328.234,259.484,1331.261,246.209z"/>
</g>
<line fill="#AAB6C8" x1="40.373" y1="-1.5" x2="119.373" y2="-1.5"/>
</svg>
