<svg xmlns="http://www.w3.org/2000/svg" viewBox="0 0 1406 383"><path fill="#27564F" d="M255.458 283.302L242.43 325.5h26.055M169.446 273.7l-15.992 51.8h31.984M926.41 280.87l-13.776 44.63h27.555"/><path fill="#083700" d="M212.934 236.43l-27.496 89.07h54.993"/><path fill="#27564F" d="M1234.19 247.15l-24.187 78.35h48.376M1322.803 239.733l-26.477 85.767h52.955M1082.645 249.468l-23.472 76.032h46.944M1020.253 266.205l-18.305 59.295h36.61M1174.148 217.058L1140.67 325.5h66.955"/><path fill="#083700" d="M1136.994 196.59l-39.796 128.91h79.592"/><path fill="#27564F" d="M1259.848 217.058L1226.37 325.5h66.956"/><path fill="#083700" d="M1213.105 207.865L1176.79 325.5h72.63M35.622 191.865L-5.633 325.5h82.51"/><path fill="#27564F" d="M132.588 257.91l-20.865 67.59h41.73"/><path fill="#083700" d="M97.723 207.865L61.407 325.5h72.63M1289.348 224.076l-31.31 101.424h62.62M1376.07 184.746L1332.618 325.5h86.904"/></svg>