<svg xmlns="http://www.w3.org/2000/svg" xmlns:xlink="http://www.w3.org/1999/xlink" viewBox="0 0 1406 383"><defs><path id="a" d="M1066.036 128.42l-.03.006c-10.07 0-18.214 8.17-18.214 18.24 0 8.053 10.44 18.47 15.61 23.556v.028l1.336 3.456c-.302.003-.55.25-.55.552v3.277c0 .305.238.58.543.58h2.605c.305 0 .562-.274.562-.58v-3.277c0-.305-.252-.554-.556-.554l1.343-3.455v-.004h-.012c5.165-5.113 15.595-15.516 15.595-23.57 0-10.068-8.158-18.258-18.228-18.258zm1.58 45.838v.98c-.057-.045-.183-.046-.282-.046h-2.603c-.107 0-.204.006-.26.06v-.994c0-.15.087-.246.237-.246h2.628c.15 0 .28.096.28.246zm-.474-.82l-2.243.02-1.25-3.21h4.738l-1.248 3.19z"/></defs><use xlink:href="#a" overflow="visible" fill="#20699D"/><clipPath id="b"><use xlink:href="#a" overflow="visible"/></clipPath><path clip-path="url(#b)" fill="#083879" d="M1046.095 123.495h39.866v56.428h-39.864z"/><path clip-path="url(#b)" fill="#20699D" d="M1066.012 123.495h19.95v56.428h-19.95z"/><path clip-path="url(#b)" fill="#0A5F94" d="M1046.095 125.157h19.933v30.723h-19.933z"/><path clip-path="url(#b)" fill="#3F7A8F" d="M1046.095 137.288h19.933v9.717h-19.933z"/><path clip-path="url(#b)" fill="#28B3BF" d="M1066.028 125.157h19.933v30.723h-19.93z"/><path clip-path="url(#b)" fill="#FEE6B9" d="M1066.028 137.288h19.933v9.717h-19.93z"/><path clip-path="url(#b)" fill="#211800" d="M1062.935 170.257h4.65v8.48h-4.65z"/><path clip-path="url(#b)" fill="#792B00" d="M1065.572 170.257h4.337v8.48h-4.34z"/><defs><path id="c" d="M701.825 50.888l-.033.007c-10.53 0-19.043 8.543-19.043 19.07 0 8.42 10.914 19.314 16.32 24.63v.03l1.397 3.613c-.315.003-.575.262-.575.578v3.426c0 .32.25.605.568.605h2.723c.32 0 .587-.286.587-.605v-3.426c0-.318-.263-.578-.58-.578l1.402-3.613v-.002h-.013c5.397-5.346 16.303-16.224 16.303-24.644 0-10.53-8.53-19.093-19.06-19.093zm1.65 47.93v1.024c-.058-.048-.19-.048-.293-.048h-2.722c-.114 0-.216.006-.275.064v-1.04c0-.157.092-.257.25-.257h2.747c.157 0 .294.1.294.258zm-.494-.858l-2.344.02-1.303-3.356h4.953l-1.304 3.336z"/></defs><clipPath id="d"><use xlink:href="#c" overflow="visible"/></clipPath><path clip-path="url(#d)" fill="#3F7A8F" d="M680.974 49.272h41.684v52.2h-41.684z"/><path clip-path="url(#d)" fill="#FFE6B9" d="M701.8 49.272h20.858v52.2h-20.86z"/><path clip-path="url(#d)" fill="#36398C" d="M680.975 66.04h20.842v6.747h-20.842z"/><path clip-path="url(#d)" fill="#002876" d="M680.975 72.818h42.32V95.45h-42.32z"/><path clip-path="url(#d)" fill="#FE74BB" d="M701.816 66.04h20.842v6.815h-20.842z"/><path clip-path="url(#d)" fill="#004191" d="M701.816 72.818h20.842V95.45h-20.842z"/><path clip-path="url(#d)" fill="#211800" d="M698.583 94.634h4.86v8.867h-4.86z"/><path clip-path="url(#d)" fill="#792B00" d="M701.34 94.634h4.534v8.867h-4.535z"/><g><defs><path id="e" d="M120.513 173.04l-.03.008c-9.83 0-17.79 7.976-17.79 17.806 0 7.86 10.18 18.03 15.226 22.996v.027l1.303 3.374c-.294.005-.537.246-.537.54v3.2c0 .297.254.554.552.554h2.54c.298 0 .527-.257.527-.555v-3.2c0-.298-.246-.54-.542-.54l1.31-3.373v-.012h.01c5.04-4.99 15.222-15.142 15.222-23.004 0-9.83-7.964-17.82-17.794-17.82zm1.267 44.5c.146 0 .253.103.253.25v.956c-.055-.044-.157-.054-.253-.054h-2.54c-.108 0-.223.015-.278.07v-.972c0-.146.107-.25.253-.25h2.565zm-.188-.555l-2.19.016-1.217-3.133h4.624l-1.22 3.12z"/></defs><clipPath id="f"><use xlink:href="#e" overflow="visible"/></clipPath><path clip-path="url(#f)" fill="#1C37A1" d="M99.167 169.833H142.5v54.333H99.167z"/><path clip-path="url(#f)" fill="#7368D1" d="M120.5 169.833h22v54.333h-22z"/><path clip-path="url(#f)" fill="#3D393D" d="M100.975 196.597l3.097 3.71 16.418-13.7v-6.294"/><path clip-path="url(#f)" fill="#F26C4F" d="M131.273 171.314l-10.783 9v6.294l13.88-11.583"/><path clip-path="url(#f)" fill="#3D393D" d="M109.585 208.735l3.096 3.71 7.81-6.514v-6.294"/><path clip-path="url(#f)" fill="#F26C4F" d="M139.883 183.452l-19.393 16.183v6.296l19.75-16.48"/><path clip-path="url(#f)" fill="#211800" d="M115.995 213.89h9.573v8.838h-9.573z"/><path clip-path="url(#f)" fill="#792B00" d="M120.24 213.89h7.197v8.838h-7.198z"/></g></svg>