<svg xmlns="http://www.w3.org/2000/svg" viewBox="0 0 1406 383"><path fill="#FFE6C2" d="M455.772 83h-7.942c.1-1 .17-1.434.17-2.18 0-8.745-7.09-15.82-15.834-15.82H404.65c.45-2 .35-4.354.35-6.417v.29C405 44.21 393.345 33 378.678 33h-87.664C279.97 3 251.75-17.225 218.666-17.225c-5.787 0-11.42.618-16.844 1.784C207.532 6.093 215.684 32.182 223.5 40c9.5 9.5 20.852 12 26.176 8s3.763-6.778 3.763-6.778 11.184.528 14.56 4.153 6.124 8.75 3.812 11.625-6.5 5-11.813 3.5-13.564-2.813-18.25-.938-20.5 8.313-25.5 25.438c-4.23 14.492-4.077 42.676-3.93 51h130.846c5.43 0 9.833-4.296 9.833-9.727 0-1.987-.595-3.273-1.61-5.273h104.38c10.428 0 18.88-8.573 18.88-19s-8.452-19-18.88-19z"/><path fill="#AAB6C8" d="M216.25 85c5-17.125 20.813-23.563 25.5-25.438S254.688 59 260 60.5s9.5-.625 11.813-3.5-.438-8-3.813-11.625-14.56-4.153-14.56-4.153S255 44 249.675 48 233 49.5 223.5 40c-7.816-7.816-15.97-33.905-21.677-55.44-21.7 4.664-39.96 18.24-50.568 37.44H34.037c-1.64 0-2.97 1.36-2.97 3s1.33 3 2.97 3h114.207c-1.576 3-2.9 6.768-3.957 10.487-6.307-1.408-13.075-2-20.13-2C94.585 36.487 72.8 50 67.773 68H-39.295c-3.647 0-7.138 1.45-9.536 3.858l5.083 44.262c1.41.56 2.916.88 4.45.88h214.37c-3.68 2-6.295 4.985-6.295 9.167 0 5.43 4.402 9.833 9.832 9.833h33.71c-.148-8.324-.303-36.508 3.928-51z"/><path fill="#FFE6C1" d="M1464 131.333l-47.333-6c-22.34-.496-70.922-1.36-109.694 4.836-17.986 11.194-23.906 16.53-32.8 34.957-10.124 20.97 20.488 27.676 20.488 27.676s-32.04 18.018-35.07 31.293c-3.025 13.275-33.59 19.52-33.59 66.76v69.813c.127-.003.248 0 .373-.004 120.962-2 258.962 0 258.962 0L1464 131.333z"/><path fill="#AAB6C8" d="M1259.59 224.097c3.027-13.275 35.07-31.293 35.07-31.293s-30.612-6.707-20.49-27.676c8.897-18.427 14.816-23.763 32.802-34.96-13.295 2.126-25.44 5.08-34.973 9.165-37.335 16-46.67 28-50 40.667s-38.42 30.27-45.21 69.468c0 0-71.23 112.962 49.21 111.202v-69.812c0-47.24 30.562-53.485 33.59-66.76z"/><path fill="#FFE6C1" d="M681.903 246H650.56c-.09 0-.17-.675-.262-.887-7.632-17.512-27.042-34.95-47.43-39.448 4.1 14.016 3.83 20.14 1.13 27.335-3 8-15.666 22.667-18.332 32s15.333 20.333 14 32.333 0 20.667 0 20.667-17-10.333-20.333-17.667c-3.333-7.333-9.667-18.667-20-26.333-10.333-7.667-18.667-14-12-31 6.642-16.938 22.214-19.65 22.163-30.384-4.485-11.945-27.34-38.943-61.502-50.632l-64.786 39.9s-18.604 11.39-20.604 20.058 15.365 19.362 19.365 24.03c4 4.666 10.95 11.033 4.847 21.263-8.5 14.25-103.818 65.432-103.818 65.432v13.718c120.322-.314 300.86-2.356 301-2.353 7.78.146-18.99-29.292-12.94-33.337C648.73 298.887 657.197 280 654.533 260h27.37c3.975 0 7.197-3.026 7.197-7s-3.224-7-7.198-7zm-74.073-52H633c6.075 0 11-4.925 11-11s-4.925-11-11-11h-13.328c1.408 1.753 2.224 3.39 2.19 4.75-.058 2.2-8.04 10.968-14.03 17.25z"/><path fill="#AAB6C8" d="M446.818 267.236c6.102-10.23-.85-16.598-4.85-21.264-4-4.667-21.364-15.362-19.364-24.03s20.604-20.057 20.604-20.057l64.786-39.9c-11.617-3.975-24.54-6.183-38.495-5.422-40.58 2.213-82.93 20.49-114.346 46.26-.677.556-1.353 1.178-2.03 2.178h-75.678c-1.638 0-2.966.864-2.966 2.5s1.33 2.5 2.967 2.5h69.357c-15.444 16-28.568 38.074-27.306 59.53 0 0-44.5 8.986-60.5 45.986 0 0-18.368 30.27-3.542 30.55 18.535.35 50.13.42 87.542.32V332.67c.002 0 95.32-51.182 103.82-65.432zM547.333 243c-6.667 17 1.667 23.333 12 31 10.333 7.667 16.667 19 20 26.333 3.333 7.333 20.333 17.667 20.333 17.667s-1.333-8.667 0-20.667-16.667-23-14-32.333S601 241 604 233c2.7-7.196 2.967-13.32-1.13-27.335-11.453-2.526-23.215-.967-33.37 6.96 0-.003-.002-.006-.004-.01.05 10.736-15.52 13.447-22.163 30.385zm28.167-60c0 6.075 4.925 11 11 11h21.33c5.993-6.282 13.974-15.05 14.03-17.25.036-1.36-.78-2.997-2.188-4.75H586.5c-6.075 0-11 4.925-11 11z"/><path fill="#FFE6C1" d="M161.667 219.02c3.167-3.312 6-14.52 5.833-17.687-.167-3.167-3.333-7.167-9.5-7.333-2.536-.07-10.203 1.696-18.837 3.97 2.258 7.036 5.98 19.532 4.807 22.028-1.127 2.394-9.88 10.254-18.646 16.003h12.294c10.663 0 15.836-4.456 15.836-4.456 3.454-.167 7.546-2.438 9.546-5.938s-1.333-6.584-1.333-6.584z"/><path fill="#AAB6C8" d="M143.97 219.997c1.174-2.495-2.55-14.99-4.807-22.03-12.362 3.255-26.708 7.552-30.83 9.01-7 2.478-6.666 7.32-7.166 12.175-4.914.132-6.64 6.847-7.234 9.847h-44.29c-1.775 0-3.215 1.722-3.215 3.5s1.44 3.5 3.216 3.5h75.68c8.766-5.75 17.52-13.61 18.646-16.004z"/><path fill="#FFE6C1" d="M815.348 259h-22.613c1.863 3 3.308 6.576 2.886 8.388-.72 3.096-20.676 21.612-36.31 35.612h56.037c12.104 0 21.917-9.896 21.917-22s-9.812-22-21.916-22z"/><path fill="#AAB6C8" d="M795.62 267.388c.424-1.812-1.022-5.388-2.885-8.388H748.11c-12.105 0-21.918 9.896-21.918 22s9.813 22 21.917 22h11.2c15.632-14 35.587-32.516 36.31-35.612z"/><g><path fill="#FFE6C1" d="M1216.154 74.344c-.413-.127-.82-.23-1.222-.322l-16.55 31.843c4.614 2.355 15.073 3.59 19.737-3.633 0 0 8.394-4.417 8.394-11.384s.06-13.29-10.36-16.504z"/><path fill="#AAB6C8" d="M1196.74 82.55c-.81 1.587-3.712 4.45-4.267 9.45h-15.515c-1.726 0-3.125 1.274-3.125 3s1.4 3 3.125 3h15.79c.596 4 2.013 5.716 5.005 7.528.19.115.41.226.627.337l16.55-31.843c-9.78-2.223-16.76 5.725-18.19 8.527z"/></g><g><path fill="#FFE6C1" d="M1088.938 100.508c0-3.367-9.25-15.258-16.25-15.258-4.008 0-13.49-.41-24.178-.51-7.1 7.615-14.2 15.227-21.305 22.834-6.676 7.148-13.347 14.3-20.028 21.444-3.196 3.417-6.58 7.025-9.866 10.5-2.92 3.09-5.753 6.737-10.007 7.99-3.96 1.167-8.45.25-11.254-2.89-1.018-1.137-1.754-2.504-2.22-3.953-2.11-6.594-1.187-15.11-.215-21.856 1.052-7.304 3.088-14.528 6.385-21.144 0-.002 2.665-16-11-25.667-13.668-9.668-33.334-4-33.334-4s-5.294.712-13.667 1.975V75s.75 6.5 11 10 17.787 2.108 21.873 7c3.063 3.667 3.188 6.703 3.188 9.25-3.532-4.138-9.935-12.418-31.155-6.75-31.46 8.403-39.036 15.094-39.036 28 0 15.25-8.728 22-17.144 22-2.837 0-19.727-3.5-19.727 29V197h105.87c4.715 0 8.824-2.72 11.044-6.518 1.326.437 2.74.518 4.21.518h94.083c5.67 0 10.51-3.55 12.494-8.513l2.925.16c5.75 0 14.125-5.636 19.625-13.01s10.25-27.506 10.25-46.256-22.562-22.87-22.562-22.87z"/><path fill="#AAB6C8" d="M719.768 166h-26.12c-4.477 0-8.106 3.524-8.106 8s3.63 8 8.105 8h26.12c4.477 0 8.106-3.524 8.106-8s-3.63-8-8.105-8zm150.96-21.5c8.416 0 17.142-6.75 17.142-22 0-12.906 7.577-19.597 39.036-28 21.22-5.668 27.623 2.612 31.156 6.75 0-2.547-.125-5.583-3.188-9.25-4.086-4.892-11.625-3.5-21.875-7s-11-10-11-10v-5.024c-22.74 3.427-68.217 10.908-92.335 19.19C816.955 93.533 807.72 99 801.018 105h-37.185c-1.565 0-2.833.935-2.833 2.5s1.27 2.5 2.833 2.5h31.52c-5.76 7-8.728 14-10.153 22h-59.867c-4.418 0-8 3.582-8 8s3.582 8 8 8h27.542c-.76 1-1.208 2.634-1.208 4.167 0 4.326 3.507 7.833 7.833 7.833h23.96c.11 1 .244 1.657.416 2.648 3.928 22.56 28.673 26.79 47.482 28.904 2.318 3.27 6.124 5.448 10.437 5.448H851v-23.5c0-32.5 16.89-29 19.727-29zM805.49 73h12.35c1.93 0 3.492-1.572 3.492-3.5s-1.563-3.5-3.492-3.5h-12.35c-1.93 0-3.492 1.572-3.492 3.5s1.563 3.5 3.492 3.5zm168.123 45.81c-.972 6.745-1.896 15.26.216 21.855.466 1.45 1.203 2.816 2.22 3.954 2.805 3.137 7.294 4.053 11.254 2.887 4.254-1.253 7.088-4.9 10.01-7.99 3.283-3.475 6.67-7.083 9.865-10.5 6.68-7.144 13.35-14.296 20.027-21.444 7.106-7.607 14.207-15.22 21.305-22.833-7.976-.074-16.625.024-24.175.594C1006.667 86.667 980 97.667 980 97.667c-3.296 6.615-5.332 13.84-6.385 21.142z"/></g></svg>