<svg xmlns="http://www.w3.org/2000/svg" xmlns:xlink="http://www.w3.org/1999/xlink" viewBox="0 0 1406 383"><defs><path id="a" d="M541.67 46.59l-.15.032c-47.5 0-85.964 38.54-85.964 86.04 0 37.987 49.197 87.13 73.58 111.12v.133l6.307 16.302c-1.422.014-2.595 1.18-2.595 2.606v15.46c0 1.44 1.225 2.684 2.665 2.684h12.28c1.44 0 2.548-1.244 2.548-2.684V262.825c0-1.435-1.186-2.608-2.62-2.608l6.33-16.3v-.056h.044c24.358-24.118 73.56-73.17 73.56-111.158 0-47.502-38.485-86.113-85.985-86.113zm6.122 215.027c.707 0 1.223.498 1.223 1.205v4.623c-.265-.214-.757-.26-1.223-.26h-12.28c-.514 0-1.074.073-1.34.33v-4.692c0-.707.518-1.205 1.224-1.205h12.396zm-.908-2.684l-10.582.076-5.88-15.15h22.344l-5.882 15.073z"/></defs><clipPath id="b"><use xlink:href="#a" overflow="visible"/></clipPath><path clip-path="url(#b)" fill="#3F6435" d="M443.057 32.348H633.56V253.45H443.058z"/><path clip-path="url(#b)" fill="#FFBD44" d="M541.605 36.933h93.262v221.613h-93.262z"/><path clip-path="url(#b)" fill="#291117" d="M468.246 53.49h16.303v177.962h-16.304z"/><path clip-path="url(#b)" fill="#A5211E" d="M598.996 53.49H615.3v177.962h-16.304z"/><path clip-path="url(#b)" fill="#291117" d="M504.514 40.754h22.092v205.573h-22.092z"/><path clip-path="url(#b)" fill="#042E71" d="M461.653 199.45h22.925v22.924h-22.925zM602.262 199.45h22.925v22.924h-22.925z"/><path clip-path="url(#b)" fill="#211800" d="M506.357 246.386h67.248v46.42h-67.248z"/><path clip-path="url(#b)" fill="#792B00" d="M538.31 246.386h67.248v46.42H538.31z"/><path clip-path="url(#b)" fill="none" d="M547.795 267.788v2.672c-.507-.413-1.337-.822-2.226-.822h-7.928c-.89 0-1.497.41-2.51.822v-2.672c0-1.35 1.16-2.202 2.51-2.202h7.927c1.35 0 2.225.85 2.225 2.202zm-10.653-7.457l-5.34-13.993h19.823l-5.443 13.945-9.04.05z"/><path clip-path="url(#b)" fill="#A5211E" d="M556.605 40.754h22.092v205.573h-22.092z"/><path clip-path="url(#b)" fill="#083879" d="M442.673 217.058h197.863v30.704H442.673z"/><path clip-path="url(#b)" fill="#20699D" d="M541.692 217.058h98.844v30.704h-98.844z"/><path clip-path="url(#b)" fill="#3D393D" d="M442.673 73.333h197.863V106H442.673z"/><path clip-path="url(#b)" fill="#F26C4F" d="M541.692 73.333h98.844V106h-98.844z"/><path clip-path="url(#b)" fill="#083879" d="M442.673 26.622h197.863V76H442.673z"/><path clip-path="url(#b)" fill="#20699D" d="M541.692 26.622h98.844V76h-98.844z"/><g><defs><path id="c" d="M840.242 94.514l-.102.023c-32.48 0-58.817 26.354-58.817 58.835 0 25.976 33.607 59.58 50.282 75.985v.09l4.312 11.148c-.973.01-1.775.807-1.775 1.782v10.572c0 .984.906 1.862 1.89 1.862h8.398c.984 0 1.674-.877 1.674-1.862v-10.572c0-.98-.812-1.783-1.792-1.783l4.33-11.146v-.012h.097c16.655-16.493 50.3-50.048 50.3-76.024 0-32.482-26.317-58.898-58.798-58.898zm5.027 147.862v3.16c-.182-.146-.45-.15-.77-.15h-8.396c-.352 0-.803.024-.984.2v-3.21c0-.482.422-.796.905-.796h8.476c.484 0 .77.313.77.796zm-1.39-2.646l-7.237.058-4.02-10.353h15.28l-4.024 10.295z"/></defs><clipPath id="d"><use xlink:href="#c" overflow="visible"/></clipPath><path clip-path="url(#d)" fill="#004191" d="M778.83 88.543h125.953v142.052H778.83z"/><path clip-path="url(#d)" fill="#007ABC" d="M841.792 88.543h62.99v142.052h-62.99z"/><path clip-path="url(#d)" fill="#3C330C" d="M778.83 124.323h125.953v13.915H778.83z"/><path clip-path="url(#d)" fill="#3F6435" d="M778.83 89.333h125.953v13.915H778.83zM778.83 132.585h125.953v12.582H778.83zM778.83 166.333h125.953v21.082H778.83zM778.83 204.418h125.953v12.75H778.83z"/><path clip-path="url(#d)" fill="#3C330C" d="M778.83 157.71h125.953v13.25H778.83z"/><path clip-path="url(#d)" fill="#F1600F" d="M841.807 124.323h62.976v13.915h-62.976z"/><path clip-path="url(#d)" fill="#FFBD44" d="M841.807 89.333h62.976v13.915h-62.976zM841.807 132.585h62.976v12.582h-62.976zM841.807 166.333h62.976v21.082h-62.976zM841.807 204.418h62.976v12.75h-62.976z"/><path clip-path="url(#d)" fill="#F1600F" d="M841.807 157.71h62.976v13.25h-62.976z"/><path clip-path="url(#d)" fill="#211800" d="M829.082 229.418h22.01v29.413h-22.01z"/><path clip-path="url(#d)" fill="#792B00" d="M838.417 229.418h12.676v29.413h-12.676z"/></g><g><defs><path id="e" d="M1048.29-72.77l-.092.02c-29.49 0-53.34 23.928-53.34 53.418 0 23.585 30.576 54.095 45.715 68.99v.08l3.915 10.122c-.883.01-1.61.733-1.61 1.618V71.075c0 .895.697 1.695 1.59 1.695h7.625c.894 0 1.645-.8 1.645-1.694V61.478c0-.89-.737-1.617-1.627-1.617l3.932-10.12v-.005h-.036c15.123-14.974 45.67-45.443 45.67-69.027 0-29.493-23.895-53.48-53.386-53.48zm4.624 134.248v2.87c-.165-.133-.533-.134-.822-.134h-7.624c-.32 0-.605.018-.77.178v-2.914c0-.44.26-.72.698-.72h7.696c.44 0 .822.28.822.72zm-1.386-2.4l-6.57.054-3.65-9.4h13.872l-3.652 9.346z"/></defs><clipPath id="f"><use xlink:href="#e" overflow="visible"/></clipPath><path clip-path="url(#f)" fill="#3C330C" d="M989.888-77.297h116.756V68.918H989.888z"/><path clip-path="url(#f)" fill="#F1600F" d="M1048.22-77.297h58.424V68.918h-58.425z"/><path clip-path="url(#f)" fill="#3F7A8F" d="M989.888-30.335h58.378v18.9h-58.378z"/><path clip-path="url(#f)" fill="#3C330C" d="M989.89-11.347h118.534v63.395H989.89z"/><path clip-path="url(#f)" fill="#FFE6B9" d="M1048.266-30.335h58.378v19.09h-58.378z"/><path clip-path="url(#f)" fill="#3F6435" d="M989.888 6.518h58.378v18.9h-58.378z"/><path clip-path="url(#f)" fill="#F1600F" d="M1048.266-11.347h58.378v63.395h-58.378z"/><path clip-path="url(#f)" fill="#FFBD44" d="M1048.266 6.518h58.378v19.09h-58.378z"/><path clip-path="url(#f)" fill="#211800" d="M1039.208 49.76h13.616v24.836h-13.616z"/><path clip-path="url(#f)" fill="#792B00" d="M1046.93 49.76h12.702v24.836h-12.7z"/></g></svg>