<?xml version="1.0" encoding="utf-8"?>
<!-- Generator: Adobe Illustrator 18.0.0, SVG Export Plug-In . SVG Version: 6.00 Build 0)  -->
<!DOCTYPE svg PUBLIC "-//W3C//DTD SVG 1.1//EN" "http://www.w3.org/Graphics/SVG/1.1/DTD/svg11.dtd">
<svg version="1.1" id="Balloons_Front" xmlns="http://www.w3.org/2000/svg" xmlns:xlink="http://www.w3.org/1999/xlink" x="0px"
	 y="0px" viewBox="0 0 1406 383" enable-background="new 0 0 1406 383" xml:space="preserve">
<g>
	<defs>
		<path id="SVGID_1_" d="M541.669,46.589l-0.149,0.033c-47.5,0-85.964,38.54-85.964,86.04c0,37.987,49.197,87.13,73.581,111.12
			v0.133l6.306,16.302c-1.422,0.014-2.595,1.18-2.595,2.606v8.569c0,0.267,0,0.525,0,0.768v6.123c0,1.44,1.225,2.684,2.665,2.684
			h12.279c1.44,0,2.549-1.244,2.549-2.684v-6.891v-1.677v-6.891c0-1.434-1.187-2.607-2.621-2.607l6.331-16.3v-0.056h0.043
			c24.358-24.119,73.56-73.171,73.56-111.159C627.654,85.2,589.169,46.589,541.669,46.589z M547.792,261.617
			c0.707,0,1.223,0.498,1.223,1.205v4.623c-0.265-0.214-0.757-0.261-1.223-0.261h-12.279c-0.515,0-1.075,0.074-1.34,0.332v-4.693
			c0-0.707,0.517-1.205,1.223-1.205H547.792z M546.884,258.933l-10.582,0.076l-5.881-15.15h22.345L546.884,258.933z"/>
	</defs>
	<clipPath id="SVGID_2_">
		<use xlink:href="#SVGID_1_"  overflow="visible"/>
	</clipPath>
	<rect x="443.057" y="32.348" clip-path="url(#SVGID_2_)" fill="#3F6435" width="190.504" height="221.103"/>
	<rect x="541.605" y="36.933" clip-path="url(#SVGID_2_)" fill="#FFBD44" width="93.262" height="221.613"/>
	<rect x="468.246" y="53.49" clip-path="url(#SVGID_2_)" fill="#291117" width="16.303" height="177.962"/>
	<rect x="598.996" y="53.49" clip-path="url(#SVGID_2_)" fill="#A5211E" width="16.303" height="177.962"/>
	<rect x="504.514" y="40.754" clip-path="url(#SVGID_2_)" fill="#291117" width="22.092" height="205.573"/>
	<rect x="461.653" y="199.449" clip-path="url(#SVGID_2_)" fill="#042E71" width="22.925" height="22.925"/>
	<rect x="602.262" y="199.449" clip-path="url(#SVGID_2_)" fill="#042E71" width="22.925" height="22.925"/>
	<rect x="506.357" y="246.386" clip-path="url(#SVGID_2_)" fill="#211800" width="67.248" height="46.42"/>
	<rect x="538.31" y="246.386" clip-path="url(#SVGID_2_)" fill="#792B00" width="67.248" height="46.42"/>
	<path clip-path="url(#SVGID_2_)" fill="none" d="M547.795,267.788v2.672c-0.507-0.413-1.337-0.822-2.226-0.822h-7.927
		c-0.89,0-1.497,0.409-2.51,0.822v-2.672c0-1.351,1.159-2.202,2.51-2.202h7.927C546.919,265.585,547.795,266.437,547.795,267.788z
		 M537.142,260.331l-5.341-13.994h19.824l-5.443,13.945L537.142,260.331z"/>
	<rect x="556.605" y="40.754" clip-path="url(#SVGID_2_)" fill="#A5211E" width="22.092" height="205.573"/>
	<rect x="442.673" y="217.058" clip-path="url(#SVGID_2_)" fill="#083879" width="197.863" height="30.704"/>
	<rect x="541.692" y="217.058" clip-path="url(#SVGID_2_)" fill="#20699D" width="98.844" height="30.704"/>
	<rect x="442.673" y="73.333" clip-path="url(#SVGID_2_)" fill="#3D393D" width="197.863" height="32.667"/>
	<rect x="541.692" y="73.333" clip-path="url(#SVGID_2_)" fill="#F26C4F" width="98.844" height="32.667"/>
	<rect x="442.673" y="26.622" clip-path="url(#SVGID_2_)" fill="#083879" width="197.863" height="49.378"/>
	<rect x="541.692" y="26.622" clip-path="url(#SVGID_2_)" fill="#20699D" width="98.844" height="49.378"/>
</g>
<g>
	<defs>
		<path id="SVGID_3_" d="M840.242,94.514l-0.102,0.023c-32.481,0-58.817,26.354-58.817,58.835c0,25.976,33.607,59.58,50.282,75.985
			v0.091l4.312,11.147c-0.973,0.009-1.775,0.807-1.775,1.782v5.859c0,0.183,0,0.359,0,0.525v4.187c0,0.984,0.906,1.862,1.891,1.862
			h8.397c0.984,0,1.674-0.877,1.674-1.862v-4.712v-1.147v-4.712c0-0.98-0.812-1.783-1.792-1.783l4.329-11.146v-0.012h0.098
			c16.656-16.493,50.301-50.048,50.301-76.024C899.04,120.93,872.723,94.514,840.242,94.514z M845.269,242.376v3.161
			c-0.181-0.147-0.45-0.152-0.768-0.152h-8.397c-0.352,0-0.803,0.025-0.984,0.201v-3.209c0-0.483,0.422-0.797,0.905-0.797h8.476
			C844.984,241.579,845.269,241.893,845.269,242.376z M843.879,239.73l-7.236,0.058l-4.021-10.353h15.28L843.879,239.73z"/>
	</defs>
	<clipPath id="SVGID_4_">
		<use xlink:href="#SVGID_3_"  overflow="visible"/>
	</clipPath>
	<rect x="778.83" y="88.543" clip-path="url(#SVGID_4_)" fill="#004191" width="125.953" height="142.052"/>
	<rect x="841.792" y="88.543" clip-path="url(#SVGID_4_)" fill="#007ABC" width="62.991" height="142.052"/>
	<rect x="778.83" y="124.323" clip-path="url(#SVGID_4_)" fill="#3C330C" width="125.953" height="13.915"/>
	<rect x="778.83" y="89.333" clip-path="url(#SVGID_4_)" fill="#3F6435" width="125.953" height="13.915"/>
	<rect x="778.83" y="132.585" clip-path="url(#SVGID_4_)" fill="#3F6435" width="125.953" height="12.582"/>
	<rect x="778.83" y="166.333" clip-path="url(#SVGID_4_)" fill="#3F6435" width="125.953" height="21.082"/>
	<rect x="778.83" y="204.418" clip-path="url(#SVGID_4_)" fill="#3F6435" width="125.953" height="12.749"/>
	<rect x="778.83" y="157.71" clip-path="url(#SVGID_4_)" fill="#3C330C" width="125.953" height="13.249"/>
	<rect x="841.807" y="124.323" clip-path="url(#SVGID_4_)" fill="#F1600F" width="62.976" height="13.915"/>
	<rect x="841.807" y="89.333" clip-path="url(#SVGID_4_)" fill="#FFBD44" width="62.976" height="13.915"/>
	<rect x="841.807" y="132.585" clip-path="url(#SVGID_4_)" fill="#FFBD44" width="62.976" height="12.582"/>
	<rect x="841.807" y="166.333" clip-path="url(#SVGID_4_)" fill="#FFBD44" width="62.976" height="21.082"/>
	<rect x="841.807" y="204.418" clip-path="url(#SVGID_4_)" fill="#FFBD44" width="62.976" height="12.749"/>
	<rect x="841.807" y="157.71" clip-path="url(#SVGID_4_)" fill="#F1600F" width="62.976" height="13.249"/>
	<rect x="829.082" y="229.418" clip-path="url(#SVGID_4_)" fill="#211800" width="22.011" height="29.413"/>
	<rect x="838.417" y="229.418" clip-path="url(#SVGID_4_)" fill="#792B00" width="12.676" height="29.413"/>
</g>
<g>
	<defs>
		<path id="SVGID_5_" d="M1048.29-72.771l-0.092,0.021c-29.491,0-53.34,23.928-53.34,53.418c0,23.585,30.576,54.095,45.715,68.989
			v0.082l3.915,10.121c-0.883,0.009-1.611,0.733-1.611,1.618v5.32c0,0.166,0,0.326,0,0.477v3.801c0,0.894,0.698,1.694,1.592,1.694
			h7.624c0.894,0,1.645-0.801,1.645-1.694v-4.278v-1.041v-4.278c0-0.89-0.737-1.618-1.627-1.618l3.931-10.12v-0.006h-0.036
			c15.123-14.974,45.67-45.443,45.67-69.027C1101.675-48.785,1077.781-72.771,1048.29-72.771z M1052.914,61.478v2.87
			c-0.165-0.133-0.533-0.134-0.822-0.134h-7.624c-0.32,0-0.605,0.018-0.769,0.178v-2.914c0-0.439,0.258-0.72,0.697-0.72h7.696
			C1052.531,60.759,1052.914,61.039,1052.914,61.478z M1051.528,59.078l-6.57,0.054l-3.651-9.399h13.873L1051.528,59.078z"/>
	</defs>
	<clipPath id="SVGID_6_">
		<use xlink:href="#SVGID_5_"  overflow="visible"/>
	</clipPath>
	<rect x="989.888" y="-77.297" clip-path="url(#SVGID_6_)" fill="#3C330C" width="116.756" height="146.215"/>
	<rect x="1048.219" y="-77.297" clip-path="url(#SVGID_6_)" fill="#F1600F" width="58.425" height="146.215"/>
	<rect x="989.888" y="-30.335" clip-path="url(#SVGID_6_)" fill="#3F7A8F" width="58.378" height="18.9"/>
	<rect x="989.889" y="-11.347" clip-path="url(#SVGID_6_)" fill="#3C330C" width="118.535" height="63.395"/>
	<rect x="1048.266" y="-30.335" clip-path="url(#SVGID_6_)" fill="#FFE6B9" width="58.378" height="19.091"/>
	<rect x="989.888" y="6.518" clip-path="url(#SVGID_6_)" fill="#3F6435" width="58.378" height="18.9"/>
	<rect x="1048.266" y="-11.347" clip-path="url(#SVGID_6_)" fill="#F1600F" width="58.378" height="63.395"/>
	<rect x="1048.266" y="6.518" clip-path="url(#SVGID_6_)" fill="#FFBD44" width="58.378" height="19.091"/>
	<rect x="1039.208" y="49.761" clip-path="url(#SVGID_6_)" fill="#211800" width="13.616" height="24.835"/>
	<rect x="1046.931" y="49.761" clip-path="url(#SVGID_6_)" fill="#792B00" width="12.701" height="24.835"/>
</g>
</svg>
