<?xml version="1.0" encoding="utf-8"?>
<!-- Generator: Adobe Illustrator 18.0.0, SVG Export Plug-In . SVG Version: 6.00 Build 0)  -->
<!DOCTYPE svg PUBLIC "-//W3C//DTD SVG 1.1//EN" "http://www.w3.org/Graphics/SVG/1.1/DTD/svg11.dtd">
<svg version="1.1" id="Balloons_Back" xmlns="http://www.w3.org/2000/svg" xmlns:xlink="http://www.w3.org/1999/xlink" x="0px"
	 y="0px" viewBox="0 0 1406 383" enable-background="new 0 0 1406 383" xml:space="preserve">
<g>
	<defs>
		<path id="SVGID_1_" d="M1066.036,128.419l-0.031,0.007c-10.07,0-18.213,8.17-18.213,18.24c0,8.053,10.44,18.471,15.609,23.556
			v0.028l1.337,3.456c-0.302,0.003-0.55,0.25-0.55,0.552v1.816c0,0.057,0,0.111,0,0.163v1.298c0,0.305,0.238,0.579,0.543,0.579
			h2.603c0.305,0,0.562-0.273,0.562-0.579v-1.461v-0.356v-1.461c0-0.304-0.252-0.553-0.556-0.553l1.342-3.455v-0.002h-0.012
			c5.164-5.113,15.594-15.516,15.594-23.569C1084.264,136.609,1076.106,128.419,1066.036,128.419z M1067.615,174.258v0.98
			c-0.056-0.045-0.182-0.046-0.281-0.046h-2.603c-0.109,0-0.206,0.006-0.263,0.061v-0.995c0-0.15,0.088-0.246,0.238-0.246h2.628
			C1067.484,174.012,1067.615,174.108,1067.615,174.258z M1067.142,173.439l-2.243,0.018l-1.247-3.209h4.737L1067.142,173.439z"/>
	</defs>
	<use xlink:href="#SVGID_1_"  overflow="visible" fill="#20699D"/>
	<clipPath id="SVGID_2_">
		<use xlink:href="#SVGID_1_"  overflow="visible"/>
	</clipPath>
	<rect x="1046.095" y="123.495" clip-path="url(#SVGID_2_)" fill="#083879" width="39.866" height="56.428"/>
	<rect x="1066.012" y="123.495" clip-path="url(#SVGID_2_)" fill="#20699D" width="19.949" height="56.428"/>
	<rect x="1046.095" y="125.157" clip-path="url(#SVGID_2_)" fill="#0A5F94" width="19.933" height="30.723"/>
	<rect x="1046.095" y="137.288" clip-path="url(#SVGID_2_)" fill="#3F7A8F" width="19.933" height="9.717"/>
	<rect x="1066.028" y="125.157" clip-path="url(#SVGID_2_)" fill="#28B3BF" width="19.933" height="30.723"/>
	<rect x="1066.028" y="137.288" clip-path="url(#SVGID_2_)" fill="#FEE6B9" width="19.933" height="9.717"/>
	<rect x="1062.935" y="170.257" clip-path="url(#SVGID_2_)" fill="#211800" width="4.649" height="8.48"/>
	<rect x="1065.572" y="170.257" clip-path="url(#SVGID_2_)" fill="#792B00" width="4.337" height="8.48"/>
</g>
<g>
	<defs>
		<path id="SVGID_3_" d="M701.825,50.888l-0.033,0.007c-10.529,0-19.043,8.543-19.043,19.071c0,8.42,10.916,19.313,16.321,24.63
			v0.029l1.398,3.613c-0.315,0.003-0.575,0.262-0.575,0.578v1.899c0,0.059,0,0.116,0,0.17v1.357c0,0.319,0.249,0.605,0.568,0.605
			h2.722c0.319,0,0.587-0.286,0.587-0.605v-1.527v-0.372v-1.527c0-0.318-0.263-0.578-0.581-0.578l1.403-3.613v-0.002h-0.013
			c5.399-5.346,16.305-16.224,16.305-24.644C720.884,59.452,712.354,50.888,701.825,50.888z M703.476,98.817v1.025
			c-0.059-0.048-0.19-0.048-0.294-0.048h-2.722c-0.114,0-0.216,0.006-0.275,0.064v-1.04c0-0.157,0.092-0.257,0.249-0.257h2.748
			C703.339,98.56,703.476,98.661,703.476,98.817z M702.981,97.96l-2.346,0.019l-1.303-3.355h4.953L702.981,97.96z"/>
	</defs>
	<clipPath id="SVGID_4_">
		<use xlink:href="#SVGID_3_"  overflow="visible"/>
	</clipPath>
	<rect x="680.974" y="49.272" clip-path="url(#SVGID_4_)" fill="#3F7A8F" width="41.684" height="52.201"/>
	<rect x="701.799" y="49.272" clip-path="url(#SVGID_4_)" fill="#FFE6B9" width="20.859" height="52.201"/>
	<rect x="680.975" y="66.039" clip-path="url(#SVGID_4_)" fill="#36398C" width="20.842" height="6.748"/>
	<rect x="680.975" y="72.818" clip-path="url(#SVGID_4_)" fill="#002876" width="42.319" height="22.633"/>
	<rect x="701.816" y="66.039" clip-path="url(#SVGID_4_)" fill="#FE74BB" width="20.842" height="6.816"/>
	<rect x="701.816" y="72.818" clip-path="url(#SVGID_4_)" fill="#004191" width="20.842" height="22.633"/>
	<rect x="698.583" y="94.634" clip-path="url(#SVGID_4_)" fill="#211800" width="4.861" height="8.867"/>
	<rect x="701.339" y="94.634" clip-path="url(#SVGID_4_)" fill="#792B00" width="4.535" height="8.867"/>
</g>
<g>
	<defs>
		<path id="SVGID_5_" d="M120.513,173.041l-0.031,0.007c-9.83,0-17.79,7.976-17.79,17.806c0,7.861,10.181,18.031,15.227,22.996
			v0.027l1.305,3.374c-0.294,0.003-0.537,0.244-0.537,0.539v1.773c0,0.055,0,0.109,0,0.159v1.267c0,0.298,0.254,0.555,0.552,0.555
			h2.541c0.298,0,0.527-0.257,0.527-0.555v-1.426v-0.347v-1.426c0-0.297-0.246-0.539-0.542-0.539l1.31-3.373v-0.012h0.009
			c5.041-4.991,15.223-15.142,15.223-23.004C138.307,181.032,130.343,173.041,120.513,173.041z M121.78,217.54
			c0.146,0,0.253,0.103,0.253,0.249v0.957c-0.055-0.044-0.157-0.054-0.253-0.054h-2.541c-0.107,0-0.222,0.015-0.277,0.069v-0.971
			c0-0.146,0.107-0.249,0.253-0.249H121.78z M121.592,216.985l-2.19,0.016l-1.217-3.135h4.624L121.592,216.985z"/>
	</defs>
	<clipPath id="SVGID_6_">
		<use xlink:href="#SVGID_5_"  overflow="visible"/>
	</clipPath>
	<rect x="99.167" y="169.833" clip-path="url(#SVGID_6_)" fill="#1C37A1" width="43.333" height="54.333"/>
	<rect x="120.5" y="169.833" clip-path="url(#SVGID_6_)" fill="#7368D1" width="22" height="54.333"/>
	<polygon clip-path="url(#SVGID_6_)" fill="#3D393D" points="100.975,196.597 104.072,200.308 120.49,186.608 120.49,180.313 	"/>
	<polygon clip-path="url(#SVGID_6_)" fill="#F26C4F" points="131.273,171.314 120.49,180.313 120.49,186.608 134.37,175.025 	"/>
	<polygon clip-path="url(#SVGID_6_)" fill="#3D393D" points="109.585,208.735 112.681,212.446 120.49,205.931 120.49,199.635 	"/>
	<polygon clip-path="url(#SVGID_6_)" fill="#F26C4F" points="139.883,183.452 120.49,199.635 120.49,205.931 140.24,189.449 	"/>
	<rect x="115.995" y="213.891" clip-path="url(#SVGID_6_)" fill="#211800" width="9.573" height="8.837"/>
	<rect x="120.239" y="213.891" clip-path="url(#SVGID_6_)" fill="#792B00" width="7.198" height="8.837"/>
</g>
</svg>
