<svg xmlns="http://www.w3.org/2000/svg" xmlns:xlink="http://www.w3.org/1999/xlink" viewBox="0 0 1406 383"><defs><path id="a" d="M1305.656 78.39l-.054.01c-17.402 0-31.494 14.12-31.494 31.523 0 13.917 18.024 31.92 26.957 40.71v.05l2.31 5.97c-.52.006-.95.433-.95.956v5.66c0 .527.448.983.975.983h4.5c.526 0 .933-.456.933-.983v-5.663c0-.525-.435-.955-.96-.955l2.32-5.972v-.02h.015c8.924-8.836 26.95-26.807 26.95-40.724 0-17.402-14.1-31.547-31.502-31.547zm2.244 78.776c.26 0 .448.182.448.44v1.695c-.097-.077-.277-.094-.448-.094h-4.5c-.188 0-.393.027-.49.122v-1.72c0-.258.19-.44.448-.44h4.542zm-.333-.983l-3.877.028-2.155-5.55h8.186l-2.152 5.524z"/></defs><clipPath id="b"><use xlink:href="#a" overflow="visible"/></clipPath><path clip-path="url(#b)" fill="#3F6435" d="M1269.53 73.17h69.792v81.004h-69.793z"/><path clip-path="url(#b)" fill="#391B5C" d="M1298.272 76.25h7.36v62.247h-7.36z"/><path clip-path="url(#b)" fill="#FFBD44" d="M1305.633 74.85h34.167v81.19h-34.167z"/><path clip-path="url(#b)" fill="#E83377" d="M1305.633 77.557h5.984v63.552h-5.984z"/><path clip-path="url(#b)" fill="#391B5C" d="M1281.66 80.917h5.974v51.327h-5.973z"/><path clip-path="url(#b)" fill="#3F7A8F" d="M1275.782 125.99h59.703v16.8h-59.703z"/><path clip-path="url(#b)" fill="#E83377" d="M1321.976 80.917h5.973v51.327h-5.975z"/><path clip-path="url(#b)" fill="#FFE6C1" d="M1305.66 125.99h29.824v16.8h-29.825z"/><path clip-path="url(#b)" fill="#042E71" d="M1284.74 125.99h8.4v8.4h-8.4zm8.4 8.4h8.4v8.4h-8.4zm-16.798 0h8.4v8.4h-8.4zm25.196-8.4h8.4v8.4h-8.4z"/><path clip-path="url(#b)" fill="#3F7A8F" d="M1305.633 125.99h4.304v8.4h-4.304zm4.304 8.4h8.4v8.4h-8.4zm8.4-8.4h8.4v8.4h-8.4z"/><path clip-path="url(#b)" fill="#042E71" d="M1327.855 134.39h8.4v8.4h-8.4z"/><path clip-path="url(#b)" fill="#211800" d="M1292.72 151.586h24.636v17.006h-24.637z"/><path clip-path="url(#b)" fill="#792B00" d="M1304.426 151.586h24.637v17.006h-24.637z"/><path clip-path="url(#b)" fill="none" d="M1307.9 159.427v.98c-.185-.152-.49-.302-.815-.302h-2.904c-.324 0-.546.15-.92.3v-.978c0-.495.427-.807.92-.807h2.906c.495 0 .816.312.816.807zm-3.902-2.732l-1.957-5.127h7.265l-1.994 5.11-3.31.017z"/><defs><path id="c" d="M318.51-10.15l-.063.014c-20.142 0-36.43 16.342-36.43 36.484 0 16.108 20.882 36.946 31.222 47.12v.055l2.672 6.912c-.603.006-1.1.5-1.1 1.105v6.554c0 .61.476 1.157 1.086 1.157h5.206c.61 0 1.124-.546 1.124-1.156V81.54c0-.608-.503-1.105-1.11-1.105l2.684-6.912v-.003h-.025c10.328-10.227 31.19-31.037 31.19-47.145 0-20.142-16.318-36.525-36.46-36.525zm3.158 91.69v1.96c-.112-.09-.364-.09-.562-.09H315.9c-.218 0-.413.01-.525.12v-1.99c0-.3.176-.49.476-.49h5.258c.3 0 .56.192.56.49zm-.946-1.638l-4.487.037-2.494-6.42h9.477l-2.494 6.38z"/></defs><clipPath id="d"><use xlink:href="#c" overflow="visible"/></clipPath><path clip-path="url(#d)" fill="#3F6435" d="M278.622-20h79.743V92.872h-79.743z"/><path clip-path="url(#d)" fill="#FFBD44" d="M318.46-20h39.905V92.872H318.46z"/><path clip-path="url(#d)" fill="#364665" d="M278.622 18.834h39.872v36.714h-39.872z"/><path clip-path="url(#d)" fill="#005A8B" d="M278.622 23.552h39.872v26.445h-39.872z"/><path clip-path="url(#d)" fill="#DC8583" d="M318.494 18.834h39.872v36.714h-39.872z"/><path clip-path="url(#d)" fill="#00AAB4" d="M318.494 23.552h39.872v26.445h-39.872z"/><path clip-path="url(#d)" fill="#211800" d="M312.307 73.538h9.3V90.5h-9.3z"/><path clip-path="url(#d)" fill="#792B00" d="M317.58 73.538h8.676V90.5h-8.675z"/><g><defs><path id="e" d="M389.753 156.69l-.048.01c-15.286 0-27.663 12.403-27.663 27.69 0 12.223 15.832 28.037 23.678 35.757v.043l2.03 5.246c-.46.004-.836.38-.836.838v4.975c0 .462.394.863.858.863h3.95c.464 0 .82-.4.82-.864v-4.977c0-.46-.38-.84-.842-.84l2.037-5.244v-.02h.014c7.84-7.76 23.673-23.545 23.673-35.77 0-15.284-12.383-27.71-27.67-27.71zm1.97 69.196c.228 0 .395.16.395.388v1.488c-.085-.07-.244-.084-.394-.084h-3.95c-.167 0-.347.024-.432.107v-1.51c0-.227.166-.388.394-.388h3.988zm-.292-.864l-3.403.024-1.892-4.875h7.19l-1.893 4.853z"/></defs><clipPath id="f"><use xlink:href="#e" overflow="visible"/></clipPath><path clip-path="url(#f)" fill="#0C3238" d="M355.047 152.6h69.286v81.603h-69.286z"/><path clip-path="url(#f)" fill="#2E5F49" d="M389.69 152.948h34.703v81.255H389.69z"/><g clip-path="url(#f)"><path fill="#3E4634" d="M360.863 172.786c3.764-.342 11.804-2.908 18.134-8.212 6.33-5.303 10.778-11.976 10.778-11.976l-21.727 3.593-7.185 16.597zm22.583-3.763c-11.723 10.337-27.93 12.677-34.9 13.344l8.896 8.552s15.392-3.42 31.408-14.26c.308-.207.617-.43.925-.66v-13.523c-1.915 2.28-4.028 4.516-6.33 6.545zm27.2-25.15c1.904-6.75-8.553-.854-8.553-.854s-1.836 4.146-5.21 9.58h10.263c1.605-3.29 2.826-6.33 3.5-8.727z"/><path fill="#FC8543" d="M407.145 152.6h-10.263c-1.898 3.055-4.284 6.515-7.107 9.877V176c6.61-4.955 13.26-14.985 17.37-23.4z"/><path fill="#3E4634" d="M363.43 209.397s0 9.41 8.896 8.896c5.09-.294 12.253-2.716 17.45-4.735v-12.23c-10.465 5.48-19.484 6.782-26.346 8.07z"/><path fill="#FC8543" d="M417.832 194.342s5.676-30.225 3.593-25.49c-3.764 8.553-12.146 20.015-25.32 28.74-2.163 1.434-4.27 2.656-6.33 3.734v12.23c3.884-1.508 6.673-2.79 6.673-2.79 10.777-4.962 21.384-16.424 21.384-16.424z"/></g><g clip-path="url(#f)"><path fill="#3E4634" d="M402.093 143h8.733c.763-5-8.728 0-8.733 0z"/><path fill="#FC8543" d="M389.69 152.613v.11l.086-.124-.086.012z"/></g><path clip-path="url(#f)" fill="#211800" d="M384.75 220.188h13.698v16.447H384.75z"/><path clip-path="url(#f)" fill="#792B00" d="M388.654 220.188h13.698v16.447h-13.698z"/></g><g><defs><path id="g" d="M979.757 171.316l-.048.01c-15.42 0-27.906 12.51-27.906 27.93 0 12.33 15.97 28.282 23.885 36.07v.043l2.046 5.29c-.462.004-.842.383-.842.846v5.018c0 .467.398.87.865.87h3.985c.467 0 .827-.403.827-.87v-5.017c0-.465-.385-.846-.85-.846l2.054-5.29v-.017h.014c7.908-7.83 23.88-23.75 23.88-36.082-.002-15.42-12.494-27.953-27.913-27.953zm1.988 69.798c.23 0 .397.162.397.39v1.502c-.086-.07-.246-.085-.397-.085h-3.986c-.17 0-.35.026-.437.11v-1.523c0-.23.168-.39.397-.39h4.025zm-.295-.87l-3.435.024-1.91-4.918h7.254l-1.91 4.893z"/></defs><clipPath id="h"><use xlink:href="#g" overflow="visible"/></clipPath><path clip-path="url(#h)" fill="#3F2D3F" d="M950.333 168.667h59.5v79.167h-59.5z"/><path clip-path="url(#h)" fill="#FD5551" d="M979.75 168.667h30.083v79.167H979.75z"/><g clip-path="url(#h)"><path fill="#3F7A8F" d="M968.827 154.072c-5.028-11.407-17.936-1.753-12.657 6.612 2.434 3.857 12.13 13.933 23.58 24.18v-15.166c-4.573-4.764-8.346-9.778-10.923-15.626zm-14.784 20.648l-14.668-.97c5.86 11.642 21.647 29.182 40.375 42.537v-14.403c-14.592-11.873-24.34-24.427-25.707-27.164z"/><path fill="#FFE6B9" d="M1012.458 196.675c-.924-.948-1.525-1.537-1.525-1.537s-5.07-2.662-16.298-12.04c-5.47-4.57-10.54-8.873-14.885-13.4v15.165c10.897 9.752 23.372 19.645 32.708 24.492v-12.68zm-7.205 21.39c-9.444-4.3-18.095-10.154-25.503-16.18v14.402c9.103 6.49 18.897 12 28.59 15.35 1.48.513 2.85.983 4.12 1.417v-7.873l-7.207-7.115z"/></g><path clip-path="url(#h)" fill="#211800" d="M974.88 235.17h9.713v12.862h-9.713z"/><path clip-path="url(#h)" fill="#792B00" d="M978.737 235.17h9.713v12.862h-9.713z"/></g><g><defs><path id="i" d="M738.5 177.147l-.06.014c-19.628 0-35.522 15.927-35.522 35.555 0 15.697 20.33 36.003 30.405 45.916v.056l2.606 6.736c-.59.007-1.075.49-1.075 1.078v6.388c0 .595.506 1.11 1.1 1.11h5.075c.596 0 1.054-.515 1.054-1.11v-6.39c0-.593-.49-1.078-1.083-1.078l2.618-6.736v-.023h.018c10.065-9.964 30.396-30.233 30.396-45.93.002-19.627-15.9-35.582-35.53-35.582zM741.033 266c.292 0 .506.206.506.498v1.91c-.11-.09-.314-.108-.507-.108h-5.074c-.214 0-.445.03-.555.137v-1.94c0-.29.214-.497.506-.497h5.123zm-.376-1.11l-4.373.032-2.43-6.26h9.233l-2.43 6.23z"/></defs><clipPath id="j"><use xlink:href="#i" overflow="visible"/></clipPath><path clip-path="url(#j)" fill="#2A7059" d="M700.617 172h75.717v104.667h-75.717z"/><path clip-path="url(#j)" fill="#ACD373" d="M737.758 172h38.575v104.667h-38.575z"/><path clip-path="url(#j)" fill="#3F7A8F" d="M704.25 239.25c3.25-12.5 12.333-27.25 17.417-28.75 5.083-1.5 26.333-5.143 30.583-5.946S776.333 197 776.333 197l4.99 13.75-6.573 20.5-6.5 8-25.463 1.5-16.594 4.592-8.86 9.467-13.083-15.56z"/><path clip-path="url(#j)" fill="#FFE6B9" d="M737.758 207.176c6.31-1.164 12.42-2.23 14.492-2.622 4.25-.804 24.083-7.554 24.083-7.554l4.99 13.75-6.573 20.5-6.5 8-25.463 1.5-5.028 1.39-.003-34.964z"/><path clip-path="url(#j)" fill="#211800" d="M730.908 258.68h15.425v17.837h-15.425z"/><path clip-path="url(#j)" fill="#792B00" d="M737.074 258.68H752.5v17.772h-15.426z"/><g clip-path="url(#j)" fill="#2B7059"><path d="M739.75 211.563c11.954-2.002 35.79-1.324 39.712-16.367 1.466-5.622-7.215-8.004-8.678-2.393-.965 3.703-5.762 4.907-8.957 5.946-4.735 1.537-9.775 2.186-14.693 2.814-3.143.4-6.283.79-9.394 1.295v9.06c.67-.125 1.34-.245 2.01-.358zm24.375-32.713c4.267-3.95-2.113-10.3-6.364-6.365-5.62 5.202-12.683 8.224-20.02 10.66v9.21c9.515-3.07 18.9-6.577 26.386-13.506zm16.86 42.3c-4.91 3.854-9.553 7.863-15.076 10.845-7.97 4.302-16.35 3.92-25.096 4.12-1.028.022-2.054.083-3.075.176v8.824c5.47-.623 11.41.092 16.513-.355 13.332-1.17 23.04-9.354 33.096-17.243 4.56-3.58-1.856-9.904-6.366-6.365z"/></g><g clip-path="url(#j)" fill="#0B3B45"><path d="M722.832 206.84c-13.39 5.618-24.11 19.494-24.832 34.16-.285 5.804 8.716 5.776 9 0 .376-7.65 4.742-14.354 9.992-19.66 5.626-5.683 13.128-8.003 20.766-9.423v-9.06c-5.09.826-10.105 1.962-14.926 3.984zm-4.046-17.644c-13.182 4.954-25.793 12.042-30.754 26.004-1.948 5.483 6.75 7.82 8.678 2.393 4.715-13.27 20.056-18.456 32.23-22.434 2.916-.955 5.873-1.864 8.818-2.814v-9.208c-6.373 2.117-12.95 3.794-18.972 6.056zM758.38 172h4.866c-1.404-.892-3.237-1.1-4.866 0zm-37.932 70.962c-5.454 4.59-8.344 10.664-11.037 17.12-2.232 5.354 6.48 7.666 8.68 2.392 2.664-6.385 5.727-11.62 11.92-15.088 2.35-1.316 4.99-1.962 7.75-2.274v-8.822c-6.29.57-12.39 2.53-17.31 6.672z"/></g></g></svg>