<?xml version="1.0" encoding="UTF-8" standalone="no"?>
<!-- Generator: Adobe Illustrator 18.0.0, SVG Export Plug-In . SVG Version: 6.00 Build 0)  -->

<svg
   xmlns:dc="http://purl.org/dc/elements/1.1/"
   xmlns:cc="http://creativecommons.org/ns#"
   xmlns:rdf="http://www.w3.org/1999/02/22-rdf-syntax-ns#"
   xmlns:svg="http://www.w3.org/2000/svg"
   xmlns="http://www.w3.org/2000/svg"
   xmlns:sodipodi="http://sodipodi.sourceforge.net/DTD/sodipodi-0.dtd"
   xmlns:inkscape="http://www.inkscape.org/namespaces/inkscape"
   version="1.1"
   id="Foreground"
   x="0px"
   y="0px"
   viewBox="0 0 1406 383"
   enable-background="new 0 0 1406 383"
   xml:space="preserve"
   inkscape:version="0.91 r13725"
   sodipodi:docname="BH_07 Foreground.svg"><metadata
     id="metadata214"><rdf:RDF><cc:Work
         rdf:about=""><dc:format>image/svg+xml</dc:format><dc:type
           rdf:resource="http://purl.org/dc/dcmitype/StillImage" /><dc:title></dc:title></cc:Work></rdf:RDF></metadata><defs
     id="defs212"><linearGradient
       y2="321.4362"
       x2="1424"
       y1="321.4362"
       x1="22"
       gradientUnits="userSpaceOnUse"
       id="SVGID_1_"><stop
         id="stop5"
         style="stop-color:#242B0C"
         offset="0" /><stop
         id="stop7"
         style="stop-color:#344827"
         offset="0.508" /><stop
         id="stop9"
         style="stop-color:#3D3215"
         offset="1" /></linearGradient><linearGradient
       y2="361.9874"
       x2="1424"
       y1="361.9874"
       x1="22"
       gradientUnits="userSpaceOnUse"
       id="SVGID_2_"><stop
         id="stop14"
         style="stop-color:#242B0C"
         offset="0" /><stop
         id="stop16"
         style="stop-color:#344827"
         offset="0.508" /><stop
         id="stop18"
         style="stop-color:#3D3215"
         offset="1" /></linearGradient><linearGradient
       y2="334.0909"
       x2="1424"
       y1="334.0909"
       x1="22"
       gradientUnits="userSpaceOnUse"
       id="SVGID_3_"><stop
         id="stop23"
         style="stop-color:#242B0C"
         offset="0" /><stop
         id="stop25"
         style="stop-color:#344827"
         offset="0.508" /><stop
         id="stop27"
         style="stop-color:#3D3215"
         offset="1" /></linearGradient><linearGradient
       y2="340.0009"
       x2="1424"
       y1="340.0009"
       x1="22"
       gradientUnits="userSpaceOnUse"
       id="SVGID_4_"><stop
         id="stop32"
         style="stop-color:#242B0C"
         offset="0" /><stop
         id="stop34"
         style="stop-color:#344827"
         offset="0.508" /><stop
         id="stop36"
         style="stop-color:#3D3215"
         offset="1" /></linearGradient><linearGradient
       y2="334.5"
       x2="1424"
       y1="334.5"
       x1="22"
       gradientUnits="userSpaceOnUse"
       id="SVGID_5_"><stop
         id="stop41"
         style="stop-color:#242B0C"
         offset="0" /><stop
         id="stop43"
         style="stop-color:#344827"
         offset="0.508" /><stop
         id="stop45"
         style="stop-color:#3D3215"
         offset="1" /></linearGradient><linearGradient
       y2="347.3308"
       x2="1424"
       y1="347.3308"
       x1="22"
       gradientUnits="userSpaceOnUse"
       id="SVGID_6_"><stop
         id="stop50"
         style="stop-color:#242B0C"
         offset="0" /><stop
         id="stop52"
         style="stop-color:#344827"
         offset="0.508" /><stop
         id="stop54"
         style="stop-color:#3D3215"
         offset="1" /></linearGradient><linearGradient
       y2="342.4166"
       x2="1424"
       y1="342.4166"
       x1="22"
       gradientUnits="userSpaceOnUse"
       id="SVGID_7_"><stop
         id="stop59"
         style="stop-color:#242B0C"
         offset="0" /><stop
         id="stop61"
         style="stop-color:#344827"
         offset="0.508" /><stop
         id="stop63"
         style="stop-color:#3D3215"
         offset="1" /></linearGradient><linearGradient
       y2="303.0763"
       x2="1424"
       y1="303.0763"
       x1="22"
       gradientUnits="userSpaceOnUse"
       id="SVGID_8_"><stop
         id="stop68"
         style="stop-color:#242B0C"
         offset="0" /><stop
         id="stop70"
         style="stop-color:#344827"
         offset="0.508" /><stop
         id="stop72"
         style="stop-color:#3D3215"
         offset="1" /></linearGradient><linearGradient
       y2="348.5598"
       x2="1424"
       y1="348.5598"
       x1="22"
       gradientUnits="userSpaceOnUse"
       id="SVGID_9_"><stop
         id="stop77"
         style="stop-color:#242B0C"
         offset="0" /><stop
         id="stop79"
         style="stop-color:#344827"
         offset="0.508" /><stop
         id="stop81"
         style="stop-color:#3D3215"
         offset="1" /></linearGradient><linearGradient
       y2="334.9642"
       x2="1424"
       y1="334.9642"
       x1="22"
       gradientUnits="userSpaceOnUse"
       id="SVGID_10_"><stop
         id="stop86"
         style="stop-color:#242B0C"
         offset="0" /><stop
         id="stop88"
         style="stop-color:#344827"
         offset="0.508" /><stop
         id="stop90"
         style="stop-color:#3D3215"
         offset="1" /></linearGradient><linearGradient
       y2="400.2209"
       x2="517.8184"
       y1="276.2209"
       x1="513.8184"
       gradientUnits="userSpaceOnUse"
       id="SVGID_11_"><stop
         id="stop95"
         style="stop-color:#C9A73B"
         offset="0" /><stop
         id="stop97"
         style="stop-color:#694B28"
         offset="1" /></linearGradient><linearGradient
       y2="151.546"
       x2="1136.4453"
       y1="7.5532"
       x1="918.9562"
       gradientUnits="userSpaceOnUse"
       id="SVGID_12_"><stop
         id="stop102"
         style="stop-color:#C9A73B"
         offset="0" /><stop
         id="stop104"
         style="stop-color:#694B28"
         offset="1" /></linearGradient><linearGradient
       y2="330.6578"
       x2="1424"
       y1="330.6578"
       x1="22"
       gradientUnits="userSpaceOnUse"
       id="SVGID_13_"><stop
         id="stop109"
         style="stop-color:#242B0C"
         offset="0" /><stop
         id="stop111"
         style="stop-color:#344827"
         offset="0.508" /><stop
         id="stop113"
         style="stop-color:#3D3215"
         offset="1" /></linearGradient><linearGradient
       y2="266.0916"
       x2="1060.6083"
       y1="122.0987"
       x1="843.1191"
       gradientUnits="userSpaceOnUse"
       id="SVGID_14_"><stop
         id="stop118"
         style="stop-color:#C9A73B"
         offset="0" /><stop
         id="stop120"
         style="stop-color:#694B28"
         offset="1" /></linearGradient><linearGradient
       y2="331.75"
       x2="1424"
       y1="331.75"
       x1="22"
       gradientUnits="userSpaceOnUse"
       id="SVGID_15_"><stop
         id="stop125"
         style="stop-color:#242B0C"
         offset="0" /><stop
         id="stop127"
         style="stop-color:#344827"
         offset="0.508" /><stop
         id="stop129"
         style="stop-color:#3D3215"
         offset="1" /></linearGradient><linearGradient
       y2="392.8936"
       x2="744.9663"
       y1="268.8936"
       x1="740.9663"
       gradientUnits="userSpaceOnUse"
       id="SVGID_16_"><stop
         id="stop134"
         style="stop-color:#C9A73B"
         offset="0" /><stop
         id="stop136"
         style="stop-color:#694B28"
         offset="1" /></linearGradient><linearGradient
       y2="335.7155"
       x2="1424"
       y1="335.7155"
       x1="22"
       gradientUnits="userSpaceOnUse"
       id="SVGID_17_"><stop
         id="stop141"
         style="stop-color:#242B0C"
         offset="0" /><stop
         id="stop143"
         style="stop-color:#344827"
         offset="0.508" /><stop
         id="stop145"
         style="stop-color:#3D3215"
         offset="1" /></linearGradient><linearGradient
       y2="388.7686"
       x2="-63.8043"
       y1="258.2751"
       x1="642.6603"
       gradientUnits="userSpaceOnUse"
       id="SVGID_18_"><stop
         id="stop150"
         style="stop-color:#487876"
         offset="0" /><stop
         id="stop152"
         style="stop-color:#193D29"
         offset="1" /></linearGradient><linearGradient
       y2="310.3341"
       x2="1424"
       y1="310.3341"
       x1="22"
       gradientUnits="userSpaceOnUse"
       id="SVGID_19_"><stop
         id="stop157"
         style="stop-color:#242B0C"
         offset="0" /><stop
         id="stop159"
         style="stop-color:#344827"
         offset="0.508" /><stop
         id="stop161"
         style="stop-color:#3D3215"
         offset="1" /></linearGradient><linearGradient
       y2="401.5026"
       x2="478.0872"
       y1="277.5026"
       x1="474.0872"
       gradientUnits="userSpaceOnUse"
       id="SVGID_20_"><stop
         id="stop166"
         style="stop-color:#C9A73B"
         offset="0" /><stop
         id="stop168"
         style="stop-color:#694B28"
         offset="1" /></linearGradient><linearGradient
       y2="409.3026"
       x2="-60.0114"
       y1="278.8091"
       x1="646.4532"
       gradientUnits="userSpaceOnUse"
       id="SVGID_21_"><stop
         id="stop173"
         style="stop-color:#487876"
         offset="0" /><stop
         id="stop175"
         style="stop-color:#193D29"
         offset="1" /></linearGradient><linearGradient
       y2="297.66"
       x2="1424"
       y1="297.66"
       x1="22"
       gradientUnits="userSpaceOnUse"
       id="SVGID_22_"><stop
         id="stop180"
         style="stop-color:#242B0C"
         offset="0" /><stop
         id="stop182"
         style="stop-color:#344827"
         offset="0.508" /><stop
         id="stop184"
         style="stop-color:#3D3215"
         offset="1" /></linearGradient><linearGradient
       y2="400.1925"
       x2="518.6978"
       y1="276.1925"
       x1="514.6978"
       gradientUnits="userSpaceOnUse"
       id="SVGID_23_"><stop
         id="stop189"
         style="stop-color:#C9A73B"
         offset="0" /><stop
         id="stop191"
         style="stop-color:#694B28"
         offset="1" /></linearGradient><linearGradient
       y2="403.6114"
       x2="-61.0627"
       y1="273.1179"
       x1="645.402"
       gradientUnits="userSpaceOnUse"
       id="SVGID_24_"><stop
         id="stop196"
         style="stop-color:#487876"
         offset="0" /><stop
         id="stop198"
         style="stop-color:#193D29"
         offset="1" /></linearGradient></defs><sodipodi:namedview
     pagecolor="#ffffff"
     bordercolor="#666666"
     borderopacity="1"
     objecttolerance="10"
     gridtolerance="10"
     guidetolerance="10"
     inkscape:pageopacity="0"
     inkscape:pageshadow="2"
     inkscape:window-width="2530"
     inkscape:window-height="1388"
     id="namedview210"
     showgrid="false"
     inkscape:zoom="1.6294637"
     inkscape:cx="1130.9468"
     inkscape:cy="-22.096117"
     inkscape:window-x="1743"
     inkscape:window-y="37"
     inkscape:window-maximized="0"
     inkscape:current-layer="Foreground" /><polygon
     style="fill:url(#SVGID_1_)"
     id="polygon11"
     points="517.614,343.976 511.753,298.896 490.943,305.773 " /><polygon
     style="fill:url(#SVGID_2_)"
     id="polygon20"
     points="1056.427,360.791 1056.361,363.184 1079.315,362.23 " /><path
     inkscape:connector-curvature="0"
     style="fill:url(#SVGID_3_)"
     id="path29"
     d="m 998.152,331.784 48.218,33.719 6.942,-5.947 L 1033.5,341 l 60.657,20.615 163.343,-6.781 c -10.667,-2.667 -80.167,-17.287 -91.167,-19.403 -11,-2.116 -36.833,-5.222 -36.833,-5.222 0,0 30.667,10.979 32.833,12.229 2.167,1.25 -66.667,1.323 -73,0.406 -3.917,-0.567 -82.115,-21.222 -146.886,-37.609 -17.268,-4.369 -31.239,-2.514 -42.285,0.904 l 117.976,54.265 -19.986,-28.62 z" /><path
     inkscape:connector-curvature="0"
     style="fill:url(#SVGID_4_)"
     id="path38"
     d="m 1285.917,336.574 c -3.352,-1.227 -21.818,-1.227 -21.818,-1.227 0,0 34.598,8.41 36.513,9.248 1.916,0.838 -12.899,-7.364 -14.695,-8.021 z" /><path
     inkscape:connector-curvature="0"
     style="fill:url(#SVGID_5_)"
     id="path47"
     d="m 558.649,295 c -0.048,0 -0.103,0 -0.149,0 -3.494,0 -13.766,0.36 -27.567,0.928 L 598.681,374 558.649,295 Z" /><path
     inkscape:connector-curvature="0"
     style="fill:url(#SVGID_6_)"
     id="path56"
     d="m 1415.492,354.424 c 0,0 -4.489,-1.816 -7.49,-2.553 -3.001,-0.738 -48.177,-11.349 -53.851,-12.03 -5.675,-0.681 -23.549,-1.759 -23.549,-1.759 l 31.721,18.499 53.169,-2.157 z" /><path
     inkscape:connector-curvature="0"
     style="fill:url(#SVGID_7_)"
     id="path65"
     d="m 129.86,357.869 0.82,1.465 71.763,0 10.491,-33.833 -34.934,20.884 0,-17.718 -56.677,12.3 c -0.27,0.054 -0.544,0.114 -0.823,0.178 l 0,0 c -4.781,1.115 -10.625,3.712 -10.625,3.712 l -1.274,5.224 c 0,0 -6.752,-2.93 -7.007,-2.93 -0.255,0 -16.945,5.861 -24.334,9.428 l 52.6,1.29 z" /><path
     inkscape:connector-curvature="0"
     style="fill:url(#SVGID_8_)"
     id="path74"
     d="m 681.287,290.961 c -12.51,1.425 -27.039,3.443 -30.5,3.928 l 23.27,20.302 7.23,-24.23 z" /><path
     inkscape:connector-curvature="0"
     style="fill:url(#SVGID_9_)"
     id="path83"
     d="m -53.365,406.356 1471.157,-9.945 0,-36.692 -290.292,8.406 c 0,0 -29.791,-1.536 -71.14,-4.907 l -0.183,6.659 -30.749,-3.786 -86.79,-1.244 -101.373,-60.446 -12.104,-12.963 c -11.658,-0.24 -23.872,-0.467 -35.926,-0.674 L 927,358 833.667,358 789,334.372 789,374 l -84.939,-32.631 17.606,15.361 -52.333,6.063 -43,-38.708 L 614,357 598.681,374 507,362.228 l -0.621,-0.521 -18.359,8.382 -53.767,-27.443 32.51,1.899 16.82,20.212 20.821,-4.707 -42.823,-43.783 -5.59,2.4 C 441.982,323.667 414.275,357 414.275,357 L 398,365.333 385,361 c 2.333,-1.667 13,-32.333 10.424,-31.481 C 392.848,330.371 359.333,340 359.333,340 L 337,323.646 l -43.25,3.604 3.259,-11.18 c -17.24,8.419 -75.676,13.263 -81.009,42.037 -0.078,0.423 -0.235,0.831 -0.449,1.227 l 18.908,0 27.376,-32.903 -8.499,32.903 21.636,0 12.077,-24.155 5.083,-1.417 -3.89,25.571 53.699,0.12 14.58,-14.532 0.479,15.912 21.835,-1.5 0,10 -37.618,0 -0.217,5.334 -23.86,-5.333 -66.388,0 -1.076,4.167 -23.676,-4 0.139,-0.167 -53.608,0 c -23.398,1.341 -52.908,0.951 -79.906,0 l -81.958,0 0,-7.5 -8.07,-5.262 c 0,0 20.46,-10.645 20.632,-10.645 0.129,0 -6.986,8.929 -10.563,13.408 l 9.368,0 c 5.938,-7.092 15.79,-18.138 19.967,-18.688 6.167,-0.812 16.5,-1.978 19.167,-2.812 1.218,-0.381 16.622,-12.715 29.833,-13.187 L 44,327 l -70,27.618 -3.561,-34.5 c -2.096,0.054 -4.002,0.098 -5.689,0.133 l -18.115,37.43 0,48.675 z" /><path
     inkscape:connector-curvature="0"
     style="fill:url(#SVGID_10_)"
     id="path92"
     d="m 517.614,343.976 -26.671,-38.203 -21.352,7.055 -8.01,3.439 42.823,43.783 -20.821,4.707 -16.82,-20.212 -32.51,-1.899 53.767,27.443 18.359,-8.382 0.621,0.521 91.681,11.772 -67.748,-78.072 c -3.669,0.151 -7.588,0.317 -11.696,0.495 l -7.484,2.473 5.861,45.08 z" /><path
     inkscape:connector-curvature="0"
     style="fill:url(#SVGID_11_)"
     id="path99"
     d="m 517.614,343.976 -26.671,-38.203 -21.352,7.055 -8.01,3.439 42.823,43.783 -20.821,4.707 -16.82,-20.212 -32.51,-1.899 53.767,27.443 18.359,-8.382 0.621,0.521 91.681,11.772 -67.748,-78.072 c -3.669,0.151 -7.588,0.317 -11.696,0.495 l -7.484,2.473 5.861,45.08 z" /><path
     inkscape:connector-curvature="0"
     style="fill:url(#SVGID_13_)"
     id="path115"
     d="m 938.638,364.847 86.79,1.244 30.749,3.786 0.183,-6.659 c 41.349,3.371 71.14,4.907 71.14,4.907 l 290.292,-8.406 0,-39.63742 C 1361.997,321.60958 1120.751,323.706 1068,311.125 1008.25,296.875 920.5,295.5 892.25,293.5 c -10.144,-0.718 -36.728,-1.436 -67.089,-2.062 l 12.104,12.963 z m 117.723,-1.663 0.066,-2.392 22.888,1.439 z M 1354.15,339.84 c 5.674,0.681 50.85,11.292 53.851,12.03 3.001,0.738 7.49,2.553 7.49,2.553 l -53.17,2.156 -31.721,-18.499 c 0,0.001 17.876,1.08 23.55,1.76 z m -68.233,-3.266 c 1.796,0.657 16.61,8.859 14.695,8.021 -1.915,-0.838 -36.513,-9.248 -36.513,-9.248 0,0 18.466,0 21.818,1.227 z m -343.47,-31.339 c 64.771,16.387 142.969,37.042 146.886,37.609 6.333,0.917 75.167,0.844 73,-0.406 -2.167,-1.25 -32.833,-12.229 -32.833,-12.229 0,0 25.833,3.106 36.833,5.222 11,2.116 80.5,16.737 91.167,19.403 L 1094.157,361.615 1033.5,341 l 19.812,18.557 -6.942,5.947 -48.218,-33.719 19.986,28.62 -117.976,-54.265 c 11.046,-3.419 25.017,-5.274 42.285,-0.905 z"
     sodipodi:nodetypes="cccccccscccccccccscccccsccccscsccccccccc" /><path
     inkscape:connector-curvature="0"
     style="fill:url(#SVGID_14_)"
     id="path122"
     d="m 938.638,364.847 86.79,1.244 30.749,3.786 0.183,-6.659 c 41.349,3.371 71.14,4.907 71.14,4.907 l 290.292,-8.406 0,-39.52893 C 1361.997,321.71807 1120.751,323.706 1068,311.125 1008.25,296.875 920.5,295.5 892.25,293.5 c -10.144,-0.718 -36.728,-1.436 -67.089,-2.062 l 12.104,12.963 z m 117.723,-1.663 0.066,-2.392 22.888,1.439 z M 1354.15,339.84 c 5.674,0.681 50.85,11.292 53.851,12.03 3.001,0.738 7.49,2.553 7.49,2.553 l -53.17,2.156 -31.721,-18.499 c 0,0.001 17.876,1.08 23.55,1.76 z m -68.233,-3.266 c 1.796,0.657 16.61,8.859 14.695,8.021 -1.915,-0.838 -36.513,-9.248 -36.513,-9.248 0,0 18.466,0 21.818,1.227 z m -343.47,-31.339 c 64.771,16.387 142.969,37.042 146.886,37.609 6.333,0.917 75.167,0.844 73,-0.406 -2.167,-1.25 -32.833,-12.229 -32.833,-12.229 0,0 25.833,3.106 36.833,5.222 11,2.116 80.5,16.737 91.167,19.403 L 1094.157,361.615 1033.5,341 l 19.812,18.557 -6.942,5.947 -48.218,-33.719 19.986,28.62 -117.976,-54.265 c 11.046,-3.419 25.017,-5.274 42.285,-0.905 z"
     sodipodi:nodetypes="cccccccscccccccccscccccsccccscsccccccccc" /><path
     inkscape:connector-curvature="0"
     style="fill:url(#SVGID_15_)"
     id="path131"
     d="m 614,357 12.333,-32.917 43,38.708 52.333,-6.063 L 704.06,341.367 789,374 789,334.372 833.667,358 927,358 789.235,290.764 c -43.98,-0.758 -85.83,-1.264 -90.735,-1.264 -3.296,0 -9.907,0.629 -17.213,1.461 l -7.23,24.231 -23.27,-20.302 C 650.29,294.959 650,295 650,295 c 0,0 -77.219,0 -91.351,0 L 598.681,374 614,357 Z" /><path
     inkscape:connector-curvature="0"
     style="fill:url(#SVGID_16_)"
     id="path138"
     d="m 614,357 12.333,-32.917 43,38.708 52.333,-6.063 L 704.06,341.367 789,374 789,334.372 833.667,358 927,358 789.235,290.764 c -43.98,-0.758 -85.83,-1.264 -90.735,-1.264 -3.296,0 -9.907,0.629 -17.213,1.461 l -7.23,24.231 -23.27,-20.302 C 650.29,294.959 650,295 650,295 c 0,0 -77.219,0 -91.351,0 L 598.681,374 614,357 Z" /><path
     inkscape:connector-curvature="0"
     style="fill:url(#SVGID_17_)"
     id="path147"
     d="m 44,327 47,-2.354 c -13.211,0.473 -28.615,12.807 -29.833,13.187 -2.667,0.833 -13,2 -19.167,2.812 -4.178,0.55 -14.029,11.596 -19.967,18.688 l -9.368,0 c 3.577,-4.479 10.692,-13.408 10.563,-13.408 -0.172,0 -20.632,10.645 -20.632,10.645 l 8.07,5.262 0,7.5 81.958,0 c 26.998,0.951 56.509,1.341 79.906,0 l 53.608,0 -0.138,0.168 23.676,4 1.076,-4.167 66.388,0 23.86,5.333 0.217,-5.333 37.618,0 0,-10 -21.835,1.5 -0.479,-15.912 -14.58,14.532 -53.699,-0.12 3.89,-25.571 -5.083,1.417 -12.077,24.155 -21.636,0 8.499,-32.903 -27.376,32.903 -18.908,0 c 0.215,-0.396 0.371,-0.804 0.449,-1.227 5.333,-28.773 63.77,-33.618 81.009,-42.037 L 293.75,327.25 337,323.646 359.333,340 c 0,0 33.514,-9.628 36.09,-10.481 2.576,-0.853 -8.09,29.814 -10.423,31.481 l 13,4.333 16.275,-8.333 c 0,0 27.706,-33.333 41.716,-38.333 l 5.59,-2.4 -2.262,-2.313 30.667,-9.553 0.958,1.371 20.809,-6.876 -0.277,-2.132 c -40.702,1.806 -94.911,4.525 -111.788,5.798 -26.5,2 -83.813,7.261 -94.813,7.261 -61.796,0 -275.668,8.788 -334.436,10.293 L -26,354.616 44,327 Z m 64.601,23.08 1.274,-5.224 c 0,0 5.844,-2.597 10.625,-3.712 l 0,0 c 0.278,-0.065 0.553,-0.125 0.823,-0.178 l 56.677,-12.3 0,17.718 34.934,-20.885 -10.491,33.833 -71.763,0 -0.82,-1.465 -52.601,-1.291 c 7.389,-3.567 24.079,-9.428 24.334,-9.428 0.255,0.002 7.008,2.932 7.008,2.932 z" /><path
     inkscape:connector-curvature="0"
     style="fill:url(#SVGID_18_)"
     id="path154"
     d="m 44,327 47,-2.354 c -13.211,0.473 -28.615,12.807 -29.833,13.187 -2.667,0.833 -13,2 -19.167,2.812 -4.178,0.55 -14.029,11.596 -19.967,18.688 l -9.368,0 c 3.577,-4.479 10.692,-13.408 10.563,-13.408 -0.172,0 -20.632,10.645 -20.632,10.645 l 8.07,5.262 0,7.5 81.958,0 c 26.998,0.951 56.509,1.341 79.906,0 l 53.608,0 -0.138,0.168 23.676,4 1.076,-4.167 66.388,0 23.86,5.333 0.217,-5.333 37.618,0 0,-10 -21.835,1.5 -0.479,-15.912 -14.58,14.532 -53.699,-0.12 3.89,-25.571 -5.083,1.417 -12.077,24.155 -21.636,0 8.499,-32.903 -27.376,32.903 -18.908,0 c 0.215,-0.396 0.371,-0.804 0.449,-1.227 5.333,-28.773 63.77,-33.618 81.009,-42.037 L 293.75,327.25 337,323.646 359.333,340 c 0,0 33.514,-9.628 36.09,-10.481 2.576,-0.853 -8.09,29.814 -10.423,31.481 l 13,4.333 16.275,-8.333 c 0,0 27.706,-33.333 41.716,-38.333 l 5.59,-2.4 -2.262,-2.313 30.667,-9.553 0.958,1.371 20.809,-6.876 -0.277,-2.132 c -40.702,1.806 -94.911,4.525 -111.788,5.798 -26.5,2 -83.813,7.261 -94.813,7.261 -61.796,0 -275.668,8.788 -334.436,10.293 L -26,354.616 44,327 Z m 64.601,23.08 1.274,-5.224 c 0,0 5.844,-2.597 10.625,-3.712 l 0,0 c 0.278,-0.065 0.553,-0.125 0.823,-0.178 l 56.677,-12.3 0,17.718 34.934,-20.885 -10.491,33.833 -71.763,0 -0.82,-1.465 -52.601,-1.291 c 7.389,-3.567 24.079,-9.428 24.334,-9.428 0.255,0.002 7.008,2.932 7.008,2.932 z" /><polygon
     style="fill:url(#SVGID_19_)"
     id="polygon163"
     points="459.319,313.954 461.581,316.267 469.592,312.828 490.943,305.773 489.986,304.401 " /><polygon
     style="fill:url(#SVGID_20_)"
     id="polygon170"
     points="459.319,313.954 461.581,316.267 469.592,312.828 490.943,305.773 489.986,304.401 " /><polygon
     style="fill:url(#SVGID_21_)"
     id="polygon177"
     points="459.319,313.954 461.581,316.267 469.592,312.828 490.943,305.773 489.986,304.401 " /><path
     inkscape:connector-curvature="0"
     style="fill:url(#SVGID_22_)"
     id="path186"
     d="m 519.236,296.424 c -2.521,0.109 -5.111,0.223 -7.761,0.341 l 0.277,2.132 7.484,-2.473 z" /><path
     inkscape:connector-curvature="0"
     style="fill:url(#SVGID_23_)"
     id="path193"
     d="m 519.236,296.424 c -2.521,0.109 -5.111,0.223 -7.761,0.341 l 0.277,2.132 7.484,-2.473 z" /><path
     inkscape:connector-curvature="0"
     style="fill:url(#SVGID_24_)"
     id="path200"
     d="m 519.236,296.424 c -2.521,0.109 -5.111,0.223 -7.761,0.341 l 0.277,2.132 7.484,-2.473 z" /><linearGradient
     id="Water_1_"
     gradientUnits="userSpaceOnUse"
     x1="-59.85"
     y1="401.4625"
     x2="1470.5878"
     y2="401.4625"><stop
       offset="0"
       style="stop-color:#056170"
       id="stop203" /><stop
       offset="0.5615"
       style="stop-color:#52A4B8"
       id="stop205" /><stop
       offset="1"
       style="stop-color:#056170"
       id="stop207" /></linearGradient><rect
     id="Water"
     x="-91.383"
     y="355.463"
     fill="url(#Water_1_)"
     width="1584"
     height="92" /></svg>