<?xml version="1.0" encoding="utf-8"?>
<!-- Generator: Adobe Illustrator 18.0.0, SVG Export Plug-In . SVG Version: 6.00 Build 0)  -->
<!DOCTYPE svg PUBLIC "-//W3C//DTD SVG 1.1//EN" "http://www.w3.org/Graphics/SVG/1.1/DTD/svg11.dtd">
<svg version="1.1" id="Balloons_Middle" xmlns="http://www.w3.org/2000/svg" xmlns:xlink="http://www.w3.org/1999/xlink" x="0px"
	 y="0px" viewBox="0 0 1406 383" enable-background="new 0 0 1406 383" xml:space="preserve">
<g>
	<defs>
		<path id="SVGID_1_" d="M1305.656,78.389l-0.054,0.012c-17.402,0-31.494,14.119-31.494,31.522c0,13.917,18.024,31.921,26.957,40.71
			v0.049l2.31,5.972c-0.521,0.005-0.951,0.432-0.951,0.955v3.139c0,0.098,0,0.192,0,0.281v2.243c0,0.527,0.449,0.983,0.976,0.983
			h4.499c0.527,0,0.934-0.456,0.934-0.983v-2.525v-0.615v-2.525c0-0.525-0.435-0.955-0.96-0.955l2.319-5.972v-0.02h0.016
			c8.924-8.836,26.949-26.807,26.949-40.724C1337.158,92.534,1323.058,78.389,1305.656,78.389z M1307.9,157.166
			c0.259,0,0.448,0.182,0.448,0.441v1.694c-0.097-0.079-0.277-0.096-0.448-0.096h-4.499c-0.189,0-0.394,0.027-0.491,0.122v-1.719
			c0-0.259,0.189-0.441,0.448-0.441H1307.9z M1307.567,156.183l-3.877,0.028l-2.155-5.55h8.186L1307.567,156.183z"/>
	</defs>
	<clipPath id="SVGID_2_">
		<use xlink:href="#SVGID_1_"  overflow="visible"/>
	</clipPath>
	<rect x="1269.529" y="73.171" clip-path="url(#SVGID_2_)" fill="#3F6435" width="69.793" height="81.003"/>
	<rect x="1298.272" y="76.251" clip-path="url(#SVGID_2_)" fill="#391B5C" width="7.361" height="62.246"/>
	<rect x="1305.633" y="74.851" clip-path="url(#SVGID_2_)" fill="#FFBD44" width="34.167" height="81.19"/>
	<rect x="1305.633" y="77.557" clip-path="url(#SVGID_2_)" fill="#E83377" width="5.984" height="63.552"/>
	<rect x="1281.661" y="80.917" clip-path="url(#SVGID_2_)" fill="#391B5C" width="5.973" height="51.327"/>
	<rect x="1275.782" y="125.991" clip-path="url(#SVGID_2_)" fill="#3F7A8F" width="59.703" height="16.798"/>
	<rect x="1321.976" y="80.917" clip-path="url(#SVGID_2_)" fill="#E83377" width="5.973" height="51.327"/>
	<rect x="1305.659" y="125.991" clip-path="url(#SVGID_2_)" fill="#FFE6C1" width="29.825" height="16.798"/>
	<rect x="1284.741" y="125.991" clip-path="url(#SVGID_2_)" fill="#042E71" width="8.399" height="8.399"/>
	<rect x="1293.14" y="134.39" clip-path="url(#SVGID_2_)" fill="#042E71" width="8.399" height="8.399"/>
	<rect x="1276.342" y="134.39" clip-path="url(#SVGID_2_)" fill="#042E71" width="8.399" height="8.399"/>
	<rect x="1301.538" y="125.991" clip-path="url(#SVGID_2_)" fill="#042E71" width="8.399" height="8.399"/>
	<rect x="1305.633" y="125.991" clip-path="url(#SVGID_2_)" fill="#3F7A8F" width="4.304" height="8.399"/>
	<rect x="1309.937" y="134.39" clip-path="url(#SVGID_2_)" fill="#3F7A8F" width="8.399" height="8.399"/>
	<rect x="1318.336" y="125.991" clip-path="url(#SVGID_2_)" fill="#3F7A8F" width="8.399" height="8.399"/>
	<rect x="1327.855" y="134.39" clip-path="url(#SVGID_2_)" fill="#042E71" width="8.399" height="8.399"/>
	<rect x="1292.719" y="151.586" clip-path="url(#SVGID_2_)" fill="#211800" width="24.637" height="17.006"/>
	<rect x="1304.426" y="151.586" clip-path="url(#SVGID_2_)" fill="#792B00" width="24.637" height="17.006"/>
	<path clip-path="url(#SVGID_2_)" fill="none" d="M1307.901,159.427v0.979c-0.186-0.151-0.49-0.301-0.816-0.301h-2.904
		c-0.326,0-0.548,0.15-0.92,0.301v-0.979c0-0.495,0.425-0.807,0.92-0.807h2.904C1307.58,158.62,1307.901,158.932,1307.901,159.427z
		 M1303.998,156.695l-1.957-5.127h7.263l-1.994,5.109L1303.998,156.695z"/>
</g>
<g>
	<defs>
		<path id="SVGID_3_" d="M318.51-10.15l-0.063,0.014c-20.142,0-36.431,16.342-36.431,36.484c0,16.108,20.883,36.946,31.223,47.119
			v0.056l2.674,6.912c-0.603,0.006-1.101,0.5-1.101,1.105v3.633c0,0.113,0,0.223,0,0.326v2.596c0,0.61,0.477,1.157,1.087,1.157
			h5.207c0.61,0,1.124-0.547,1.124-1.157v-2.922v-0.711v-2.922c0-0.608-0.503-1.105-1.111-1.105l2.685-6.912V73.52h-0.025
			c10.329-10.227,31.192-31.037,31.192-47.145C354.971,6.233,338.652-10.15,318.51-10.15z M321.668,81.541v1.96
			c-0.112-0.091-0.364-0.092-0.562-0.092H315.9c-0.218,0-0.413,0.012-0.525,0.122v-1.99c0-0.3,0.176-0.492,0.476-0.492h5.256
			C321.406,81.05,321.668,81.242,321.668,81.541z M320.722,79.902l-4.487,0.037l-2.494-6.419h9.475L320.722,79.902z"/>
	</defs>
	<clipPath id="SVGID_4_">
		<use xlink:href="#SVGID_3_"  overflow="visible"/>
	</clipPath>
	<rect x="278.622" y="-20" clip-path="url(#SVGID_4_)" fill="#3F6435" width="79.743" height="112.872"/>
	<rect x="318.461" y="-20" clip-path="url(#SVGID_4_)" fill="#FFBD44" width="39.904" height="112.872"/>
	<rect x="278.622" y="18.834" clip-path="url(#SVGID_4_)" fill="#364665" width="39.872" height="36.714"/>
	<rect x="278.622" y="23.552" clip-path="url(#SVGID_4_)" fill="#005A8B" width="39.872" height="26.445"/>
	<rect x="318.494" y="18.834" clip-path="url(#SVGID_4_)" fill="#DC8583" width="39.872" height="36.714"/>
	<rect x="318.494" y="23.552" clip-path="url(#SVGID_4_)" fill="#00AAB4" width="39.872" height="26.445"/>
	<rect x="312.307" y="73.538" clip-path="url(#SVGID_4_)" fill="#211800" width="9.299" height="16.962"/>
	<rect x="317.581" y="73.538" clip-path="url(#SVGID_4_)" fill="#792B00" width="8.675" height="16.962"/>
</g>
<g>
	<defs>
		<path id="SVGID_5_" d="M389.753,156.69l-0.048,0.011c-15.286,0-27.663,12.402-27.663,27.688c0,12.224,15.832,28.038,23.678,35.758
			v0.043l2.029,5.246c-0.458,0.004-0.835,0.38-0.835,0.838v2.757c0,0.086,0,0.169,0,0.247v1.97c0,0.463,0.394,0.864,0.858,0.864
			h3.951c0.463,0,0.82-0.4,0.82-0.864v-2.218v-0.54v-2.218c0-0.461-0.382-0.839-0.843-0.839l2.037-5.245v-0.018h0.014
			c7.838-7.761,23.671-23.546,23.671-35.771C417.423,169.115,405.039,156.69,389.753,156.69z M391.724,225.886
			c0.227,0,0.394,0.16,0.394,0.388v1.488c-0.085-0.069-0.244-0.084-0.394-0.084h-3.951c-0.166,0-0.346,0.024-0.431,0.107v-1.51
			c0-0.227,0.166-0.388,0.394-0.388H391.724z M391.431,225.022l-3.405,0.024l-1.892-4.875h7.191L391.431,225.022z"/>
	</defs>
	<clipPath id="SVGID_6_">
		<use xlink:href="#SVGID_5_"  overflow="visible"/>
	</clipPath>
	<rect x="355.047" y="152.599" clip-path="url(#SVGID_6_)" fill="#0C3238" width="69.286" height="81.604"/>
	<rect x="389.69" y="152.948" clip-path="url(#SVGID_6_)" fill="#2E5F49" width="34.703" height="81.255"/>
	<g clip-path="url(#SVGID_6_)">
		<path fill="#3E4634" d="M360.863,172.786c3.764-0.342,11.804-2.908,18.134-8.212c6.33-5.303,10.778-11.976,10.778-11.976
			l-21.727,3.593L360.863,172.786z"/>
		<path fill="#3E4634" d="M383.446,169.023c-11.723,10.337-27.929,12.677-34.9,13.344l8.896,8.552c0,0,15.392-3.418,31.408-14.257
			c0.308-0.208,0.617-0.43,0.925-0.661v-13.523C387.86,164.758,385.747,166.994,383.446,169.023z"/>
		<path fill="#3E4634" d="M410.647,143.874c1.903-6.75-8.554-0.855-8.554-0.855s-1.836,4.148-5.21,9.58h10.263
			C408.751,149.312,409.972,146.269,410.647,143.874z"/>
		<path fill="#FC8543" d="M407.145,152.599h-10.263c-1.898,3.056-4.284,6.516-7.107,9.878V176
			C396.384,171.045,403.035,161.015,407.145,152.599z"/>
		<path fill="#3E4634" d="M363.43,209.397c0,0,0,9.409,8.896,8.896c5.091-0.294,12.253-2.716,17.45-4.735v-12.231
			C379.311,206.807,370.292,208.11,363.43,209.397z"/>
		<path fill="#FC8543" d="M417.832,194.342c0,0,5.676-30.225,3.593-25.491c-3.764,8.554-12.146,20.016-25.319,28.741
			c-2.164,1.434-4.272,2.656-6.33,3.734v12.231c3.883-1.509,6.672-2.792,6.672-2.792
			C407.225,205.804,417.832,194.342,417.832,194.342z"/>
	</g>
	<g clip-path="url(#SVGID_6_)">
		<path fill="#3E4634" d="M402.093,143h8.733C411.589,138,402.098,143,402.093,143z"/>
		<path fill="#FC8543" d="M389.69,152.613v0.111c0.051-0.074,0.086-0.125,0.086-0.125L389.69,152.613z"/>
	</g>
	<rect x="384.75" y="220.188" clip-path="url(#SVGID_6_)" fill="#211800" width="13.698" height="16.447"/>
	<rect x="388.654" y="220.188" clip-path="url(#SVGID_6_)" fill="#792B00" width="13.698" height="16.447"/>
</g>
<g>
	<defs>
		<path id="SVGID_7_" d="M979.757,171.316l-0.048,0.011c-15.419,0-27.904,12.51-27.904,27.929c0,12.331,15.969,28.282,23.885,36.07
			v0.043l2.047,5.292c-0.462,0.004-0.842,0.383-0.842,0.846v2.781c0,0.087,0,0.17,0,0.249v1.988c0,0.467,0.398,0.871,0.865,0.871
			h3.986c0.467,0,0.827-0.404,0.827-0.871v-2.237v-0.544v-2.237c0-0.465-0.385-0.846-0.851-0.846l2.055-5.291v-0.018h0.014
			c7.907-7.829,23.878-23.751,23.878-36.082C1007.668,183.849,995.176,171.316,979.757,171.316z M981.745,241.114
			c0.229,0,0.397,0.162,0.397,0.391v1.501c-0.086-0.07-0.246-0.085-0.397-0.085h-3.986c-0.167,0-0.349,0.024-0.435,0.108v-1.523
			c0-0.229,0.168-0.391,0.397-0.391H981.745z M981.45,240.243l-3.435,0.025l-1.909-4.918h7.253L981.45,240.243z"/>
	</defs>
	<clipPath id="SVGID_8_">
		<use xlink:href="#SVGID_7_"  overflow="visible"/>
	</clipPath>
	<rect x="950.333" y="168.667" clip-path="url(#SVGID_8_)" fill="#3F2D3F" width="59.5" height="79.167"/>
	<rect x="979.75" y="168.667" clip-path="url(#SVGID_8_)" fill="#FD5551" width="30.083" height="79.167"/>
	<g clip-path="url(#SVGID_8_)">
		<path fill="#3F7A8F" d="M968.827,154.072c-5.028-11.407-17.936-1.753-12.657,6.612c2.434,3.857,12.131,13.933,23.581,24.179
			v-15.165C975.177,164.934,971.404,159.92,968.827,154.072z"/>
		<path fill="#3F7A8F" d="M954.043,174.72l-14.668-0.97c5.859,11.642,21.647,29.182,40.375,42.537v-14.403
			C965.158,190.011,955.409,177.457,954.043,174.72z"/>
		<path fill="#FFE6B9" d="M1012.458,196.675c-0.924-0.948-1.525-1.537-1.525-1.537s-5.07-2.662-16.298-12.041
			c-5.471-4.57-10.539-8.872-14.885-13.399v15.165c10.897,9.752,23.372,19.645,32.708,24.492V196.675z"/>
		<path fill="#FFE6B9" d="M1005.253,218.064c-9.444-4.301-18.095-10.153-25.503-16.18v14.403c9.103,6.491,18.897,12,28.591,15.351
			c1.48,0.512,2.849,0.982,4.118,1.416v-7.873L1005.253,218.064z"/>
	</g>
	<rect x="974.88" y="235.17" clip-path="url(#SVGID_8_)" fill="#211800" width="9.713" height="12.862"/>
	<rect x="978.737" y="235.17" clip-path="url(#SVGID_8_)" fill="#792B00" width="9.713" height="12.862"/>
</g>
<g>
	<defs>
		<path id="SVGID_9_" d="M738.501,177.147l-0.061,0.014c-19.628,0-35.522,15.925-35.522,35.553
			c0,15.697,20.329,36.003,30.405,45.916v0.055l2.606,6.736c-0.588,0.006-1.073,0.488-1.073,1.077v3.541c0,0.11,0,0.217,0,0.317
			v2.53c0,0.595,0.506,1.109,1.101,1.109h5.074c0.595,0,1.053-0.514,1.053-1.109v-2.848v-0.693v-2.848
			c0-0.592-0.49-1.077-1.083-1.077l2.616-6.736v-0.023h0.018c10.065-9.966,30.396-30.235,30.396-45.932
			C774.032,193.102,758.129,177.147,738.501,177.147z M741.032,266c0.292,0,0.506,0.206,0.506,0.498v1.91
			c-0.11-0.089-0.313-0.108-0.506-0.108h-5.074c-0.213,0-0.444,0.031-0.554,0.137v-1.939c0-0.292,0.214-0.498,0.506-0.498H741.032z
			 M740.656,264.891l-4.373,0.031l-2.43-6.26h9.233L740.656,264.891z"/>
	</defs>
	<clipPath id="SVGID_10_">
		<use xlink:href="#SVGID_9_"  overflow="visible"/>
	</clipPath>
	<rect x="700.617" y="172" clip-path="url(#SVGID_10_)" fill="#2A7059" width="75.717" height="104.667"/>
	<rect x="737.758" y="172" clip-path="url(#SVGID_10_)" fill="#ACD373" width="38.575" height="104.667"/>
	<path clip-path="url(#SVGID_10_)" fill="#3F7A8F" d="M704.25,239.25c3.25-12.5,12.333-27.25,17.417-28.75
		c5.083-1.5,26.333-5.143,30.583-5.946S776.333,197,776.333,197l4.99,13.75l-6.573,20.5l-6.5,8l-25.463,1.5l-16.594,4.592
		l-8.859,9.467L704.25,239.25z"/>
	<path clip-path="url(#SVGID_10_)" fill="#FFE6B9" d="M737.758,207.176c6.309-1.164,12.42-2.23,14.492-2.622
		c4.25-0.804,24.083-7.554,24.083-7.554l4.99,13.75l-6.573,20.5l-6.5,8l-25.463,1.5l-5.028,1.391L737.758,207.176z"/>
	<rect x="730.908" y="258.679" clip-path="url(#SVGID_10_)" fill="#211800" width="15.425" height="17.838"/>
	<rect x="737.074" y="258.679" clip-path="url(#SVGID_10_)" fill="#792B00" width="15.425" height="17.773"/>
	<g clip-path="url(#SVGID_10_)">
		<path fill="#2B7059" d="M739.751,211.563c11.953-2.002,35.788-1.324,39.711-16.367c1.466-5.622-7.215-8.004-8.678-2.393
			c-0.965,3.703-5.762,4.907-8.957,5.946c-4.735,1.539-9.775,2.188-14.693,2.816c-3.143,0.401-6.283,0.791-9.394,1.295v9.06
			C738.409,211.796,739.08,211.676,739.751,211.563z"/>
		<path fill="#2B7059" d="M764.125,178.849c4.267-3.95-2.113-10.3-6.364-6.364c-5.62,5.202-12.685,8.224-20.023,10.661v9.208
			C747.254,189.285,756.64,185.778,764.125,178.849z"/>
		<path fill="#2B7059" d="M780.985,221.151c-4.91,3.853-9.553,7.862-15.076,10.844c-7.969,4.302-16.347,3.92-25.094,4.119
			c-1.028,0.023-2.054,0.084-3.075,0.177v8.822c5.469-0.623,11.409,0.092,16.514-0.355c13.332-1.168,23.041-9.353,33.096-17.242
			C791.912,223.935,785.495,217.612,780.985,221.151z"/>
	</g>
	<g clip-path="url(#SVGID_10_)">
		<path fill="#0B3B45" d="M722.832,206.841C709.442,212.458,698.721,226.334,698,241c-0.285,5.804,8.716,5.776,9,0
			c0.376-7.651,4.742-14.354,9.992-19.659c5.626-5.684,13.128-8.004,20.766-9.424v-9.06
			C732.667,203.683,727.653,204.819,722.832,206.841z"/>
		<path fill="#0B3B45" d="M718.786,189.196c-13.182,4.954-25.793,12.042-30.754,26.004c-1.948,5.483,6.75,7.821,8.678,2.393
			c4.715-13.27,20.056-18.456,32.229-22.434c2.917-0.953,5.874-1.862,8.819-2.812v-9.208
			C731.385,185.257,724.807,186.934,718.786,189.196z"/>
		<path fill="#0B3B45" d="M758.38,172h4.866C761.842,171.108,760.009,170.899,758.38,172z"/>
		<path fill="#0B3B45" d="M720.448,242.962c-5.454,4.591-8.344,10.664-11.037,17.119c-2.234,5.355,6.478,7.667,8.678,2.393
			c2.664-6.385,5.727-11.619,11.921-15.088c2.35-1.316,4.991-1.962,7.748-2.274v-8.822
			C731.469,236.861,725.369,238.819,720.448,242.962z"/>
	</g>
</g>
</svg>
