<svg xmlns="http://www.w3.org/2000/svg" viewBox="0 0 1639 383"><path fill="#FFE6C2" d="M495.742 81.5H487.8c.1-1 .17-1.434.17-2.18 0-8.745-7.09-15.82-15.834-15.82H444.62c.45-2 .752-4.743.752-6.805v.29c0-14.666-12.06-25.485-26.725-25.485h-87.664c-11.045-30-39.263-50.42-72.348-50.42-5.787 0-11.42.522-16.844 1.688 5.71 21.535 13.863 47.576 21.68 55.392 9.5 9.5 20.85 11.976 26.175 7.976s3.763-6.79 3.763-6.79 11.186.522 14.56 4.147 6.126 8.747 3.814 11.622-6.5 4.998-11.812 3.498-13.563-2.813-18.25-.938-20.5 8.506-25.5 25.63c-4.23 14.493-4.076 42.195-3.928 51.195h130.845c5.43 0 9.833-4.296 9.833-9.727 0-1.987-.594-3.273-1.608-5.273h104.38c10.427 0 18.88-8.573 18.88-19s-8.45-19-18.878-19z"/><path fill="#FFE6C1" d="M721.872 244.5H690.53c-.09 0-.17-.87-.262-1.08-7.632-17.513-27.042-35.05-47.43-39.546 4.1 14.016 3.83 20.09 1.13 27.286-3 8-15.666 22.642-18.332 31.976-2.667 9.333 15.333 20.32 14 32.32s0 20.662 0 20.662-17-10.336-20.333-17.67c-3.333-7.333-9.667-18.668-20-26.335-10.333-7.667-18.667-14-12-31 6.642-16.94 22.214-19.65 22.163-30.385-4.485-11.945-27.34-38.943-61.502-50.632l-64.786 39.9s-18.604 11.39-20.604 20.058 15.365 19.362 19.365 24.03c4 4.666 11.15 11.033 5.05 21.263-8.5 14.25-103.617 65.43-103.617 65.43v13.72c120-.315 300.66-2.357 300.798-2.354 7.78.146-19.09-29.098-13.037-33.142 17.666-11.805 26.033-30.5 23.368-50.5h27.373c3.974 0 7.196-3.024 7.196-7-.003-3.973-3.224-7-7.2-7zm-74.072-52h25.17c6.074 0 11-4.925 11-11s-4.926-11-11-11h-13.33c1.41 1 2.225 3.39 2.19 4.75-.057 2.2-8.037 10.25-14.03 17.25z"/><path fill="#AAB6C8" d="M486.99 265.347c6.1-10.23-.95-16.598-4.95-21.264-4-4.667-21.416-15.362-19.416-24.03s20.58-20.057 20.58-20.057l64.773-39.9c-11.617-3.975-24.546-6.183-38.5-5.422-40.58 2.213-82.933 20.683-114.348 46.455-.68.553-1.358 1.37-2.034 2.37h-75.68c-1.637 0-2.965.86-2.965 2.5s1.33 2.5 2.967 2.5h69.357c-15.444 16-28.568 37.877-27.306 59.333 0 0-44.5 8.89-60.5 45.89 0 0-18.168 30.22-3.342 30.5 18.535.35 49.744.37 87.744.272v-13.718s95.117-51.18 103.617-65.43zm100.313-24.235c-6.667 17 1.667 23.333 12 31 10.333 7.667 16.667 19 20 26.333 3.333 7.333 20.333 17.667 20.333 17.667s-1.333-8.667 0-20.667-16.667-23-14-32.333 15.333-24 18.333-32c2.697-7.196 2.965-13.32-1.13-27.335-11.455-2.526-23.217-.967-33.37 6.96l-.006-.01c.052 10.735-15.52 13.447-22.162 30.385zM615.47 181.5c0 6.075 4.924 11 11 11h21.33c5.992-7 13.973-15.05 14.03-17.25.035-1.36-.78-3.75-2.19-4.75h-33.17c-6.076 0-11 4.925-11 11z"/><path fill="#FFE6C1" d="M201.636 217.132c3.167-3.313 6-14.52 5.833-17.688-.17-3.167-3.335-7.167-9.5-7.333-2.538-.067-10.205 1.698-18.84 3.97 2.26 7.038 5.98 19.73 4.808 22.224-1.128 2.394-9.88 10.197-18.647 16.197h12.295c10.663 0 15.836-4.652 15.836-4.652 3.455-.167 7.547-2.535 9.547-6.035s-1.334-6.68-1.334-6.68z"/><path fill="#AAB6C8" d="M183.94 218.303c1.173-2.495-2.55-15.09-4.808-22.126-12.362 3.254-26.708 7.502-30.83 8.96-7 2.48-6.666 7.492-7.166 12.346-4.914.132-6.64 7.017-7.234 10.017h-44.29c-1.775 0-3.215 1.724-3.215 3.5s1.44 3.5 3.216 3.5h75.68c8.766-6 17.52-13.803 18.646-16.197z"/><path fill="#FFE6C1" d="M855.317 257.5h-22.613c1.863 3 3.308 6.576 2.886 8.388-.722 3.096-20.678 21.612-36.31 35.612h56.037c12.104 0 21.917-9.896 21.917-22s-9.812-22-21.917-22z"/><path fill="#AAB6C8" d="M835.59 265.888c.423-1.812-1.023-5.388-2.886-8.388h-44.626c-12.104 0-21.917 9.896-21.917 22s9.815 22 21.92 22h11.2c15.633-14 35.59-32.516 36.31-35.612z"/><path fill="#FFE6C1" d="M1256.123 72.455c-.413-.127-.82-.23-1.222-.322l-16.55 31.843c4.616 2.355 15.075 3.59 19.74-3.633 0 0 8.395-4.417 8.395-11.384s.06-13.29-10.36-16.506z"/><path fill="#AAB6C8" d="M1236.71 80.855c-.81 1.588-3.712 4.645-4.267 9.645h-15.515c-1.726 0-3.125 1.274-3.125 3s1.4 3 3.125 3h15.79c.596 4 2.013 5.522 5.005 7.334.19.115.41.13.627.24l16.55-31.794c-9.78-2.224-16.76 5.773-18.19 8.575z"/><path fill="#FFE6C1" d="M1128.907 98.62c0-3.367-9.25-15.258-16.25-15.258-4.008 0-13.49-.41-24.178-.51-7.1 7.615-14.2 15.227-21.307 22.834-6.676 7.148-13.347 14.3-20.028 21.444-3.196 3.417-6.58 7.025-9.866 10.5-2.92 3.09-5.756 6.737-10.01 7.99-3.96 1.167-8.45.25-11.254-2.89-1.017-1.137-1.753-2.504-2.218-3.953-2.112-6.594-1.19-15.11-.217-21.856 1.053-7.3 3.09-14.524 6.386-21.14 0-.002 2.666-16-11-25.667-13.667-9.667-33.132-4-33.132-4s-5.465.713-13.465 1.976v5.023s.55 6.5 10.8 10 17.686 2.108 21.772 7c3.063 3.667 3.137 6.703 3.137 9.25-3.534-4.138-9.96-12.418-31.18-6.75-31.46 8.403-39.05 15.094-39.05 28 0 15.25-8.53 22-16.95 22-2.836 0-19.53-3.5-19.53 29V195.5h105.47c4.715 0 8.824-2.72 11.044-6.518 1.326.437 2.74.518 4.21.518h94.083c5.67 0 10.51-3.745 12.494-8.708l2.926.062c5.75 0 14.125-5.684 19.625-13.06s10.25-27.528 10.25-46.278-22.562-22.896-22.562-22.896z"/><path fill="#AAB6C8" d="M759.737 164.5h-26.12c-4.477 0-8.106 3.524-8.106 8s3.63 8 8.107 8h26.12c4.477 0 8.106-3.524 8.106-8s-3.628-8-8.105-8zm151.16-21.888c8.418 0 17.043-6.75 17.043-22 0-12.906 7.527-19.597 38.986-28 21.22-5.668 27.598 2.612 31.13 6.75 0-2.547-.137-5.583-3.2-9.25-4.085-4.892-11.43-3.5-21.68-7s-10.804-10-10.804-10v-5.024c-23 3.427-68.417 11.102-92.535 19.385-12.71 4.365-22.15 10.027-28.85 16.027h-37.185c-1.565 0-2.833.935-2.833 2.5s1.267 2.5 2.83 2.5h31.52c-5.76 7-8.727 14-10.152 22H765.3c-4.418 0-8 3.582-8 8s3.582 8 8 8h27.542c-.76 1-1.208 2.634-1.208 4.167 0 4.326 3.507 7.833 7.833 7.833h23.958c.11 1 .245 1.463.417 2.454 3.928 22.56 28.673 26.887 47.482 29 2.318 3.27 6.124 5.546 10.437 5.546h9.61v-23.888c0-32.5 16.687-29 19.525-29zM845.46 71.5h12.35c1.93 0 3.493-1.572 3.493-3.5s-1.563-3.5-3.492-3.5h-12.35c-1.927 0-3.49 1.572-3.49 3.5s1.564 3.5 3.49 3.5zm168.125 45.42c-.972 6.746-1.896 15.262.216 21.856.466 1.45 1.203 2.816 2.22 3.954 2.805 3.14 7.294 4.055 11.254 2.89 4.254-1.254 7.088-4.9 10.01-7.99 3.283-3.476 6.67-7.084 9.865-10.5 6.68-7.145 13.35-14.297 20.027-21.445 7.106-7.607 14.207-15.22 21.305-22.833-7.976-.075-16.625.023-24.175.593-17.667 1.333-44.333 12.333-44.333 12.333-3.3 6.616-5.335 13.84-6.387 21.142zM307.97 43.487c-3.376-3.625-14.562-4.153-14.562-4.153s1.56 2.778-3.763 6.778-16.676 1.5-26.176-8c-7.818-7.816-15.97-33.71-21.68-55.246C220.095-12.47 201.833.5 191.225 20.5H74.167c-1.44 0-2.773.957-3.066 2.37-.394 1.906 1.06 3.63 2.907 3.63h114.207c-1.576 3-2.9 6.573-3.957 10.293-6.307-1.408-13.075-1.904-20.13-1.904-29.572 0-51.357 13.61-56.384 31.61H32.47c-13.533 0-24.1 10.775-24.1 24.306v.097c0 13.53 10.566 24.597 24.097 24.597H215.04c-3.717 2-6.35 5.046-6.294 9.296.07 5.43 4.703 9.704 10.134 9.704h33.406c-.148-8-.303-36.702 3.928-51.194 5-17.125 20.813-23.66 25.5-25.535s12.938-.61 18.25.89 9.5-.65 11.813-3.523-.436-8.024-3.81-11.65z"/><g><path fill="#FFE6C1" d="M1601.6 290.365c-.004-1.073-.133-2.145-.18-3.214-.188-4.413-.713-8.896-1.836-13.18-3-11.45-10.578-21.78-20.89-27.68-11.567-6.623-14.296-22.186-17.09-30.59-7.668-23.077-21.4-44.11-39.64-60.224-7.263-6.417-14.96-11.734-22.99-16.105-28.538-15.53-61.343-19.1-94.34-17.603-1.22 1.28-3.402 2.533-6.817 3.694-43.41 15.653 24.28 54.105 2.527 59.57-64 16.083-66.056 47.904-69.083 61.18-3.025 13.275-33.887 19.52-33.887 66.76v46.53H1594.4c19.053 0 34.973-16.06 34.973-35.113v-.113c0-16.667-12.057-30.687-27.772-33.908z"/><path fill="#AAB6C8" d="M1226.303 210.5h9.333c4.97 0 9-4.03 9-9s-4.03-9-9-9h-9.333c-4.97 0-9 4.03-9 9s4.03 9 9 9z"/><path fill="#AAB6C8" d="M1331.26 246.21c3.028-13.276 5.185-45.098 69.185-61.18 21.753-5.466-45.988-43.918-2.577-59.57 3.415-1.16 5.57-2.414 6.792-3.694-19.44.882-38.962 3.52-57.704 6.515-13.295 2.127-25.446 5.08-34.98 9.166-37.332 16-46.634 61.21-45.488 66.74-2.163.432-15.6 10.315-28.214 20.315h-73.013c-5.297 0-9.593 4.2-9.593 9.5s4.296 9.5 9.595 9.5h53.86c-1.04 2-1.936 2.787-2.614 4.06-1.71 3.21-5.74 10.048-9.997 18.64-17.164 2.83-31.16 15.3-36.59 31.3h-93.097c-12.522 0-22.673 9.98-22.673 22.5s10.15 22.5 22.672 22.5h77.057c2.716 10 11.44 17 21.79 17h121.702v-46.53c0-47.24 30.86-53.485 33.888-66.76z"/></g><path fill="#AAB6C8" d="M40.373-1.5h79"/></svg>