<?xml version="1.0" encoding="utf-8"?>
<!-- Generator: Adobe Illustrator 18.0.0, SVG Export Plug-In . SVG Version: 6.00 Build 0)  -->
<!DOCTYPE svg PUBLIC "-//W3C//DTD SVG 1.1//EN" "http://www.w3.org/Graphics/SVG/1.1/DTD/svg11.dtd">
<svg version="1.1" id="Trees" xmlns="http://www.w3.org/2000/svg" xmlns:xlink="http://www.w3.org/1999/xlink" x="0px" y="0px"
	 viewBox="0 0 1406 383" enable-background="new 0 0 1406 383" xml:space="preserve">
<g id="Trees_1_">
	<polygon fill="#27564F" points="255.458,283.302 242.431,325.5 268.485,325.5 	"/>
	<polygon fill="#27564F" points="169.446,273.699 153.454,325.5 185.438,325.5 	"/>
	<polygon fill="#27564F" points="926.411,280.871 912.634,325.5 940.189,325.5 	"/>
	<polygon fill="#083700" points="212.934,236.431 185.438,325.5 240.431,325.5 	"/>
	<polygon fill="#27564F" points="1234.191,247.15 1210.003,325.5 1258.379,325.5 	"/>
	<polygon fill="#27564F" points="1322.803,239.733 1296.326,325.5 1349.281,325.5 	"/>
	<polygon fill="#27564F" points="1082.645,249.468 1059.173,325.5 1106.117,325.5 	"/>
	<polygon fill="#27564F" points="1020.253,266.205 1001.948,325.5 1038.558,325.5 	"/>
	<polygon fill="#27564F" points="1174.148,217.058 1140.67,325.5 1207.625,325.5 	"/>
	<polygon fill="#083700" points="1136.994,196.591 1097.198,325.5 1176.79,325.5 	"/>
	<polygon fill="#27564F" points="1259.848,217.058 1226.371,325.5 1293.326,325.5 	"/>
	<polygon fill="#083700" points="1213.105,207.865 1176.79,325.5 1249.421,325.5 	"/>
	<polygon fill="#083700" points="35.622,191.865 -5.633,325.5 76.877,325.5 	"/>
	<polygon fill="#27564F" points="132.588,257.91 111.723,325.5 153.454,325.5 	"/>
	<polygon fill="#083700" points="97.723,207.865 61.407,325.5 134.038,325.5 	"/>
	<polygon fill="#083700" points="1289.348,224.076 1258.038,325.5 1320.659,325.5 	"/>
	<polygon fill="#083700" points="1376.07,184.746 1332.618,325.5 1419.522,325.5 	"/>
</g>
</svg>
