<svg xmlns="http://www.w3.org/2000/svg" viewBox="0 0 1406 383"><defs><linearGradient y2="321.436" x2="1424" y1="321.436" x1="22" gradientUnits="userSpaceOnUse" id="a"><stop offset="0" stop-color="#242B0C"/><stop offset=".508" stop-color="#344827"/><stop offset="1" stop-color="#3D3215"/></linearGradient><linearGradient y2="361.987" x2="1424" y1="361.987" x1="22" gradientUnits="userSpaceOnUse" id="b"><stop offset="0" stop-color="#242B0C"/><stop offset=".508" stop-color="#344827"/><stop offset="1" stop-color="#3D3215"/></linearGradient><linearGradient y2="334.091" x2="1424" y1="334.091" x1="22" gradientUnits="userSpaceOnUse" id="c"><stop offset="0" stop-color="#242B0C"/><stop offset=".508" stop-color="#344827"/><stop offset="1" stop-color="#3D3215"/></linearGradient><linearGradient y2="340.001" x2="1424" y1="340.001" x1="22" gradientUnits="userSpaceOnUse" id="d"><stop offset="0" stop-color="#242B0C"/><stop offset=".508" stop-color="#344827"/><stop offset="1" stop-color="#3D3215"/></linearGradient><linearGradient y2="334.5" x2="1424" y1="334.5" x1="22" gradientUnits="userSpaceOnUse" id="e"><stop offset="0" stop-color="#242B0C"/><stop offset=".508" stop-color="#344827"/><stop offset="1" stop-color="#3D3215"/></linearGradient><linearGradient y2="347.331" x2="1424" y1="347.331" x1="22" gradientUnits="userSpaceOnUse" id="f"><stop offset="0" stop-color="#242B0C"/><stop offset=".508" stop-color="#344827"/><stop offset="1" stop-color="#3D3215"/></linearGradient><linearGradient y2="342.417" x2="1424" y1="342.417" x1="22" gradientUnits="userSpaceOnUse" id="g"><stop offset="0" stop-color="#242B0C"/><stop offset=".508" stop-color="#344827"/><stop offset="1" stop-color="#3D3215"/></linearGradient><linearGradient y2="303.076" x2="1424" y1="303.076" x1="22" gradientUnits="userSpaceOnUse" id="h"><stop offset="0" stop-color="#242B0C"/><stop offset=".508" stop-color="#344827"/><stop offset="1" stop-color="#3D3215"/></linearGradient><linearGradient y2="348.56" x2="1424" y1="348.56" x1="22" gradientUnits="userSpaceOnUse" id="i"><stop offset="0" stop-color="#242B0C"/><stop offset=".508" stop-color="#344827"/><stop offset="1" stop-color="#3D3215"/></linearGradient><linearGradient y2="334.964" x2="1424" y1="334.964" x1="22" gradientUnits="userSpaceOnUse" id="j"><stop offset="0" stop-color="#242B0C"/><stop offset=".508" stop-color="#344827"/><stop offset="1" stop-color="#3D3215"/></linearGradient><linearGradient y2="400.221" x2="517.818" y1="276.221" x1="513.818" gradientUnits="userSpaceOnUse" id="k"><stop offset="0" stop-color="#C9A73B"/><stop offset="1" stop-color="#694B28"/></linearGradient><linearGradient y2="330.658" x2="1424" y1="330.658" x1="22" gradientUnits="userSpaceOnUse" id="l"><stop offset="0" stop-color="#242B0C"/><stop offset=".508" stop-color="#344827"/><stop offset="1" stop-color="#3D3215"/></linearGradient><linearGradient y2="266.092" x2="1060.608" y1="122.099" x1="843.119" gradientUnits="userSpaceOnUse" id="m"><stop offset="0" stop-color="#C9A73B"/><stop offset="1" stop-color="#694B28"/></linearGradient><linearGradient y2="331.75" x2="1424" y1="331.75" x1="22" gradientUnits="userSpaceOnUse" id="n"><stop offset="0" stop-color="#242B0C"/><stop offset=".508" stop-color="#344827"/><stop offset="1" stop-color="#3D3215"/></linearGradient><linearGradient y2="392.894" x2="744.966" y1="268.894" x1="740.966" gradientUnits="userSpaceOnUse" id="o"><stop offset="0" stop-color="#C9A73B"/><stop offset="1" stop-color="#694B28"/></linearGradient><linearGradient y2="335.716" x2="1424" y1="335.716" x1="22" gradientUnits="userSpaceOnUse" id="p"><stop offset="0" stop-color="#242B0C"/><stop offset=".508" stop-color="#344827"/><stop offset="1" stop-color="#3D3215"/></linearGradient><linearGradient y2="388.769" x2="-63.804" y1="258.275" x1="642.66" gradientUnits="userSpaceOnUse" id="q"><stop offset="0" stop-color="#487876"/><stop offset="1" stop-color="#193D29"/></linearGradient><linearGradient y2="310.334" x2="1424" y1="310.334" x1="22" gradientUnits="userSpaceOnUse" id="r"><stop offset="0" stop-color="#242B0C"/><stop offset=".508" stop-color="#344827"/><stop offset="1" stop-color="#3D3215"/></linearGradient><linearGradient y2="401.503" x2="478.087" y1="277.503" x1="474.087" gradientUnits="userSpaceOnUse" id="s"><stop offset="0" stop-color="#C9A73B"/><stop offset="1" stop-color="#694B28"/></linearGradient><linearGradient y2="409.303" x2="-60.011" y1="278.809" x1="646.453" gradientUnits="userSpaceOnUse" id="t"><stop offset="0" stop-color="#487876"/><stop offset="1" stop-color="#193D29"/></linearGradient><linearGradient y2="297.66" x2="1424" y1="297.66" x1="22" gradientUnits="userSpaceOnUse" id="u"><stop offset="0" stop-color="#242B0C"/><stop offset=".508" stop-color="#344827"/><stop offset="1" stop-color="#3D3215"/></linearGradient><linearGradient y2="400.192" x2="518.698" y1="276.192" x1="514.698" gradientUnits="userSpaceOnUse" id="v"><stop offset="0" stop-color="#C9A73B"/><stop offset="1" stop-color="#694B28"/></linearGradient><linearGradient y2="403.611" x2="-61.063" y1="273.118" x1="645.402" gradientUnits="userSpaceOnUse" id="w"><stop offset="0" stop-color="#487876"/><stop offset="1" stop-color="#193D29"/></linearGradient></defs><path fill="url(#a)" d="M517.614 343.976l-5.86-45.08-20.81 6.877"/><path fill="url(#b)" d="M1056.427 360.79l-.066 2.394 22.955-.954"/><path d="M998.152 331.784l48.218 33.72 6.942-5.948L1033.5 341l60.657 20.615 163.343-6.78c-10.667-2.668-80.167-17.288-91.167-19.404-11-2.115-36.833-5.22-36.833-5.22s30.667 10.978 32.833 12.228c2.167 1.25-66.667 1.323-73 .406-3.917-.567-82.115-21.222-146.886-37.61-17.268-4.368-31.24-2.513-42.285.905l117.976 54.264-19.986-28.62z" fill="url(#c)"/><path d="M1285.917 336.574c-3.352-1.227-21.818-1.227-21.818-1.227s34.597 8.41 36.512 9.248c1.916.838-12.9-7.364-14.695-8.02z" fill="url(#d)"/><path d="M558.65 295h-.15c-3.494 0-13.766.36-27.567.928L598.68 374l-40.03-79z" fill="url(#e)"/><path d="M1415.492 354.424s-4.49-1.816-7.49-2.553c-3-.737-48.177-11.348-53.85-12.03-5.676-.68-23.55-1.758-23.55-1.758l31.72 18.5 53.17-2.158z" fill="url(#f)"/><path d="M129.86 357.87l.82 1.464h71.763l10.49-33.833L178 346.386v-17.718l-56.677 12.3c-.27.054-.544.114-.823.178-4.78 1.115-10.625 3.712-10.625 3.712l-1.274 5.224s-6.75-2.93-7.006-2.93c-.255 0-16.945 5.862-24.334 9.43l52.6 1.29z" fill="url(#g)"/><path d="M681.287 290.96c-12.51 1.426-27.04 3.444-30.5 3.93l23.27 20.3 7.23-24.23z" fill="url(#h)"/><path d="M-53.365 406.356l1471.157-9.945v-36.69l-290.292 8.405s-29.79-1.536-71.14-4.907l-.183 6.66-30.75-3.787-86.79-1.243L837.266 304.4 825.16 291.44c-11.657-.24-23.87-.467-35.925-.674L927 358h-93.333L789 334.372V374l-84.94-32.63 17.607 15.36-52.333 6.063-43-38.708L614 357l-15.32 17L507 362.228l-.62-.52-18.36 8.38-53.767-27.442 32.51 1.9 16.82 20.21 20.82-4.706-42.822-43.783-5.59 2.4c-14.008 5-41.715 38.333-41.715 38.333L398 365.333 385 361c2.333-1.667 13-32.333 10.424-31.48-2.576.85-36.09 10.48-36.09 10.48L337 323.646l-43.25 3.604 3.26-11.18c-17.24 8.42-75.677 13.263-81.01 42.037-.078.423-.235.83-.45 1.227h18.91l27.375-32.903-8.5 32.904h21.637l12.077-24.155 5.082-1.418-3.89 25.57 53.7.12 14.58-14.53.478 15.91 21.835-1.5v10h-37.618l-.217 5.335-23.86-5.333h-66.388l-1.076 4.167-23.676-4 .14-.166h-53.61c-23.397 1.34-52.907.95-79.905 0H10.667v-7.5l-8.07-5.262s20.46-10.645 20.632-10.645c.128 0-6.987 8.93-10.564 13.408h9.368c5.938-7.092 15.79-18.138 19.967-18.688 6.168-.812 16.5-1.978 19.168-2.812 1.218-.38 16.622-12.715 29.833-13.187L44 327l-70 27.618-3.56-34.5c-2.097.054-4.003.098-5.69.133l-18.115 37.43v48.676z" fill="url(#i)"/><path d="M517.614 343.976l-26.67-38.203-21.353 7.055-8.01 3.44 42.824 43.782-20.82 4.707-16.82-20.212-32.51-1.9 53.766 27.444 18.36-8.383.62.52L598.68 374l-67.747-78.072c-3.67.15-7.588.317-11.696.495l-7.484 2.473 5.86 45.08z" fill="url(#j)"/><path d="M517.614 343.976l-26.67-38.203-21.353 7.055-8.01 3.44 42.824 43.782-20.82 4.707-16.82-20.212-32.51-1.9 53.766 27.444 18.36-8.383.62.52L598.68 374l-67.747-78.072c-3.67.15-7.588.317-11.696.495l-7.484 2.473 5.86 45.08z" fill="url(#k)"/><path d="M938.638 364.847l86.79 1.244 30.75 3.787.182-6.66c41.35 3.372 71.14 4.908 71.14 4.908l290.292-8.406V320.08c-55.795 1.528-297.04 3.624-349.792-8.957-59.75-14.25-147.5-15.625-175.75-17.625-10.144-.718-36.728-1.436-67.09-2.062l12.105 12.963zm117.723-1.663l.067-2.392 22.888 1.44zm297.79-23.344c5.674.68 50.85 11.292 53.85 12.03 3.002.738 7.49 2.553 7.49 2.553l-53.17 2.156-31.72-18.5s17.876 1.08 23.55 1.76zm-68.233-3.266c1.796.657 16.61 8.86 14.695 8.02-1.915-.837-36.513-9.247-36.513-9.247s18.465 0 21.817 1.227zm-343.47-31.34c64.77 16.388 142.97 37.043 146.886 37.61 6.333.917 75.167.844 73-.406-2.167-1.25-32.833-12.23-32.833-12.23s25.833 3.107 36.833 5.223c11 2.117 80.5 16.738 91.167 19.404l-163.343 6.78L1033.5 341l19.812 18.557-6.942 5.947-48.218-33.72 19.986 28.62-117.976-54.264c11.046-3.42 25.017-5.274 42.285-.905z" fill="url(#l)"/><path d="M938.638 364.847l86.79 1.244 30.75 3.787.182-6.66c41.35 3.372 71.14 4.908 71.14 4.908l290.292-8.406v-39.53c-55.795 1.528-297.04 3.516-349.792-9.065-59.75-14.25-147.5-15.625-175.75-17.625-10.144-.718-36.728-1.436-67.09-2.062l12.105 12.963zm117.723-1.663l.067-2.392 22.888 1.44zm297.79-23.344c5.674.68 50.85 11.292 53.85 12.03 3.002.738 7.49 2.553 7.49 2.553l-53.17 2.156-31.72-18.5s17.876 1.08 23.55 1.76zm-68.233-3.266c1.796.657 16.61 8.86 14.695 8.02-1.915-.837-36.513-9.247-36.513-9.247s18.465 0 21.817 1.227zm-343.47-31.34c64.77 16.388 142.97 37.043 146.886 37.61 6.333.917 75.167.844 73-.406-2.167-1.25-32.833-12.23-32.833-12.23s25.833 3.107 36.833 5.223c11 2.117 80.5 16.738 91.167 19.404l-163.343 6.78L1033.5 341l19.812 18.557-6.942 5.947-48.218-33.72 19.986 28.62-117.976-54.264c11.046-3.42 25.017-5.274 42.285-.905z" fill="url(#m)"/><path d="M614 357l12.333-32.917 43 38.708 52.333-6.062-17.606-15.36L789 374v-39.628L833.667 358H927l-137.765-67.236c-43.98-.758-85.83-1.264-90.735-1.264-3.296 0-9.907.63-17.213 1.46l-7.23 24.232-23.27-20.302-.787.11h-91.35l40.03 79L614 357z" fill="url(#n)"/><path d="M614 357l12.333-32.917 43 38.708 52.333-6.062-17.606-15.36L789 374v-39.628L833.667 358H927l-137.765-67.236c-43.98-.758-85.83-1.264-90.735-1.264-3.296 0-9.907.63-17.213 1.46l-7.23 24.232-23.27-20.302-.787.11h-91.35l40.03 79L614 357z" fill="url(#o)"/><path d="M44 327l47-2.354c-13.21.473-28.615 12.807-29.833 13.187-2.667.833-13 2-19.167 2.812-4.178.55-14.03 11.596-19.967 18.688h-9.368c3.577-4.48 10.692-13.408 10.563-13.408-.172 0-20.632 10.645-20.632 10.645l8.07 5.262v7.5h81.958c26.998.95 56.51 1.34 79.906 0h53.608l-.138.168 23.676 4 1.076-4.167h66.388l23.86 5.333.217-5.333h37.618v-10l-21.835 1.5-.48-15.912-14.58 14.533-53.698-.12 3.89-25.57-5.083 1.416-12.078 24.154h-21.636l8.5-32.903-27.377 32.904h-18.91c.216-.396.372-.804.45-1.227 5.333-28.773 63.77-33.618 81.01-42.037l-3.26 11.18 43.25-3.604L359.333 340s33.514-9.628 36.09-10.48c2.576-.854-8.09 29.813-10.423 31.48l13 4.333L414.275 357s27.706-33.333 41.716-38.333l5.59-2.4-2.26-2.313 30.666-9.553.958 1.372 20.81-6.876-.278-2.132c-40.702 1.806-94.91 4.525-111.788 5.798-26.5 2-83.813 7.26-94.813 7.26-61.796 0-275.668 8.79-334.436 10.294l3.56 34.5L44 327zm64.6 23.08l1.275-5.224s5.844-2.597 10.625-3.712c.278-.065.553-.125.823-.178l56.677-12.3v17.718l34.934-20.885-10.49 33.832H130.68l-.82-1.465-52.6-1.29c7.388-3.568 24.078-9.43 24.333-9.43.255.003 7.008 2.933 7.008 2.933z" fill="url(#p)"/><path d="M44 327l47-2.354c-13.21.473-28.615 12.807-29.833 13.187-2.667.833-13 2-19.167 2.812-4.178.55-14.03 11.596-19.967 18.688h-9.368c3.577-4.48 10.692-13.408 10.563-13.408-.172 0-20.632 10.645-20.632 10.645l8.07 5.262v7.5h81.958c26.998.95 56.51 1.34 79.906 0h53.608l-.138.168 23.676 4 1.076-4.167h66.388l23.86 5.333.217-5.333h37.618v-10l-21.835 1.5-.48-15.912-14.58 14.533-53.698-.12 3.89-25.57-5.083 1.416-12.078 24.154h-21.636l8.5-32.903-27.377 32.904h-18.91c.216-.396.372-.804.45-1.227 5.333-28.773 63.77-33.618 81.01-42.037l-3.26 11.18 43.25-3.604L359.333 340s33.514-9.628 36.09-10.48c2.576-.854-8.09 29.813-10.423 31.48l13 4.333L414.275 357s27.706-33.333 41.716-38.333l5.59-2.4-2.26-2.313 30.666-9.553.958 1.372 20.81-6.876-.278-2.132c-40.702 1.806-94.91 4.525-111.788 5.798-26.5 2-83.813 7.26-94.813 7.26-61.796 0-275.668 8.79-334.436 10.294l3.56 34.5L44 327zm64.6 23.08l1.275-5.224s5.844-2.597 10.625-3.712c.278-.065.553-.125.823-.178l56.677-12.3v17.718l34.934-20.885-10.49 33.832H130.68l-.82-1.465-52.6-1.29c7.388-3.568 24.078-9.43 24.333-9.43.255.003 7.008 2.933 7.008 2.933z" fill="url(#q)"/><path fill="url(#r)" d="M459.32 313.954l2.26 2.313 8.012-3.44 21.35-7.054-.956-1.372"/><path fill="url(#s)" d="M459.32 313.954l2.26 2.313 8.012-3.44 21.35-7.054-.956-1.372"/><path fill="url(#t)" d="M459.32 313.954l2.26 2.313 8.012-3.44 21.35-7.054-.956-1.372"/><path d="M519.236 296.424l-7.76.34.276 2.133 7.484-2.473z" fill="url(#u)"/><path d="M519.236 296.424l-7.76.34.276 2.133 7.484-2.473z" fill="url(#v)"/><path d="M519.236 296.424l-7.76.34.276 2.133 7.484-2.473z" fill="url(#w)"/><linearGradient id="x" gradientUnits="userSpaceOnUse" x1="-59.85" y1="401.462" x2="1470.588" y2="401.462"><stop offset="0" stop-color="#056170"/><stop offset=".561" stop-color="#52A4B8"/><stop offset="1" stop-color="#056170"/></linearGradient><path fill="url(#x)" d="M-91.383 355.463h1584v92h-1584z"/></svg>