<?xml version="1.0" encoding="utf-8"?>
<!-- Generator: Adobe Illustrator 18.0.0, SVG Export Plug-In . SVG Version: 6.00 Build 0)  -->
<!DOCTYPE svg PUBLIC "-//W3C//DTD SVG 1.1//EN" "http://www.w3.org/Graphics/SVG/1.1/DTD/svg11.dtd">
<svg version="1.1" id="Clouds" xmlns="http://www.w3.org/2000/svg" xmlns:xlink="http://www.w3.org/1999/xlink" x="0px" y="0px"
	 viewBox="0 0 1406 383" enable-background="new 0 0 1406 383" xml:space="preserve">
<g>
	<path fill="#FFE6C2" d="M455.772,83h-7.942c0.1-1,0.169-1.434,0.169-2.18c0-8.745-7.089-15.82-15.833-15.82h-27.516
		C405.1,63,405,60.646,405,58.583v0.291C405,44.208,393.345,33,378.678,33h-87.664c-11.045-30-39.263-50.225-72.348-50.225
		c-5.787,0-11.421,0.618-16.844,1.784C207.531,6.095,215.684,32.184,223.5,40c9.5,9.5,20.852,12,26.176,8s3.763-6.778,3.763-6.778
		S264.625,41.75,268,45.375s6.125,8.75,3.813,11.625s-6.5,5-11.813,3.5s-13.563-2.813-18.25-0.938s-20.5,8.313-25.5,25.438
		c-4.231,14.492-4.076,42.676-3.928,51h130.845c5.431,0,9.833-4.296,9.833-9.727c0-1.987-0.594-3.273-1.608-5.273h104.38
		c10.427,0,18.88-8.573,18.88-19S466.199,83,455.772,83z"/>
	<path fill="#AAB6C8" d="M216.25,85c5-17.125,20.813-23.563,25.5-25.438S254.688,59,260,60.5s9.5-0.625,11.813-3.5
		s-0.438-8-3.813-11.625s-14.561-4.153-14.561-4.153S255,44,249.676,48S233,49.5,223.5,40c-7.816-7.816-15.969-33.905-21.677-55.44
		C180.124-10.776,161.862,2.799,151.255,22H34.037c-1.64,0-2.97,1.36-2.97,3s1.33,3,2.97,3h114.207
		c-1.576,3-2.901,6.768-3.957,10.487c-6.307-1.408-13.075-2.001-20.129-2.001C94.584,36.486,72.8,50,67.772,68H-39.295
		c-3.647,0-7.138,1.451-9.536,3.858l5.085,44.262c1.411,0.559,2.916,0.88,4.451,0.88h214.37c-3.68,2-6.296,4.985-6.296,9.167
		c0,5.431,4.403,9.833,9.833,9.833h33.709C212.174,127.676,212.019,99.492,216.25,85z"/>
</g>
<g>
	<path fill="#FFE6C1" d="M1464,131.333l-47.333-6c-22.339-0.496-70.922-1.36-109.694,4.836
		c-17.986,11.196-23.906,16.532-32.801,34.959c-10.123,20.969,20.489,27.676,20.489,27.676s-32.043,18.018-35.07,31.293
		c-3.027,13.275-33.59,19.521-33.59,66.761c0,25.675,0,51.542,0,69.812c0.125-0.002,0.246-0.001,0.371-0.003
		c120.962-2,258.962,0,258.962,0L1464,131.333z"/>
	<path fill="#AAB6C8" d="M1259.59,224.097c3.027-13.275,35.07-31.293,35.07-31.293s-30.612-6.707-20.489-27.676
		c8.896-18.427,14.815-23.763,32.801-34.959c-13.295,2.125-25.44,5.078-34.973,9.164c-37.333,16-46.667,28-50,40.667
		s-38.42,30.27-45.21,69.468c0,0-71.229,112.962,49.21,111.202c0-18.269,0-44.136,0-69.812
		C1226,243.618,1256.563,237.373,1259.59,224.097z"/>
</g>
<g>
	<path fill="#FFE6C1" d="M681.903,246h-31.343c-0.09,0-0.17-0.675-0.262-0.887c-7.632-17.512-27.042-34.951-47.429-39.448
		c4.098,14.016,3.829,20.139,1.13,27.335c-3,8-15.667,22.667-18.333,32s15.333,20.333,14,32.333s0,20.667,0,20.667
		s-17-10.333-20.333-17.667c-3.333-7.333-9.667-18.667-20-26.333c-10.333-7.667-18.667-14-12-31
		c6.642-16.938,22.214-19.649,22.163-30.384c-4.485-11.945-27.341-38.943-61.502-50.632l-64.786,39.9
		c0,0-18.604,11.391-20.604,20.058s15.365,19.362,19.365,24.029c4,4.667,10.951,11.034,4.849,21.264
		C438.318,281.486,343,332.667,343,332.667v13.718c120.323-0.314,300.861-2.356,301-2.353c7.781,0.146-18.989-29.292-12.938-33.337
		C648.728,298.887,657.196,280,654.531,260h27.372c3.974,0,7.196-3.026,7.196-7C689.099,249.026,685.877,246,681.903,246z"/>
	<path fill="#FFE6C1" d="M607.831,194H633c6.075,0,11-4.925,11-11s-4.925-11-11-11h-13.328c1.408,1.753,2.224,3.391,2.189,4.751
		C621.804,178.949,613.823,187.718,607.831,194z"/>
	<path fill="#AAB6C8" d="M446.818,267.236c6.102-10.23-0.849-16.598-4.849-21.264c-4-4.667-21.365-15.362-19.365-24.029
		s20.604-20.058,20.604-20.058l64.786-39.9c-11.617-3.975-24.54-6.183-38.495-5.422c-40.58,2.213-82.929,20.489-114.344,46.261
		c-0.677,0.555-1.353,1.177-2.029,2.177h-75.679c-1.638,0-2.966,0.862-2.966,2.5s1.328,2.5,2.966,2.5h69.357
		c-15.444,16-28.568,38.072-27.306,59.528c0,0-44.5,8.986-60.5,45.986c0,0-18.368,30.269-3.542,30.549
		c18.535,0.35,50.13,0.42,87.542,0.322v-13.718C343,332.667,438.318,281.486,446.818,267.236z"/>
	<path fill="#AAB6C8" d="M547.333,243c-6.667,17,1.667,23.333,12,31c10.333,7.667,16.667,19,20,26.333
		c3.333,7.333,20.333,17.667,20.333,17.667s-1.333-8.667,0-20.667s-16.667-23-14-32.333S601,241,604,233
		c2.699-7.196,2.967-13.319-1.13-27.335c-11.453-2.526-23.215-0.967-33.37,6.96c-0.001-0.003-0.002-0.006-0.004-0.009
		C569.547,223.351,553.976,226.062,547.333,243z"/>
	<path fill="#AAB6C8" d="M575.5,183c0,6.075,4.925,11,11,11h21.331c5.992-6.282,13.973-15.051,14.03-17.249
		c0.035-1.36-0.781-2.998-2.189-4.751H586.5C580.425,172,575.5,176.925,575.5,183z"/>
</g>
<g>
	<path fill="#FFE6C1" d="M161.667,219.021c3.167-3.313,6-14.521,5.833-17.688c-0.167-3.167-3.333-7.167-9.5-7.333
		c-2.536-0.069-10.203,1.696-18.837,3.969c2.258,7.037,5.981,19.533,4.807,22.029c-1.127,2.394-9.88,10.254-18.646,16.003h12.294
		c10.663,0,15.836-4.458,15.836-4.458c3.454-0.167,7.546-2.438,9.546-5.938S161.667,219.021,161.667,219.021z"/>
	<path fill="#AAB6C8" d="M143.97,219.997c1.174-2.495-2.549-14.991-4.807-22.029c-12.362,3.254-26.708,7.551-30.829,9.009
		c-7,2.478-6.667,7.321-7.167,12.175c-4.914,0.132-6.641,6.847-7.234,9.847H49.644c-1.776,0-3.216,1.724-3.216,3.5
		s1.44,3.5,3.216,3.5h75.68C134.09,230.251,142.843,222.391,143.97,219.997z"/>
</g>
<g>
	<path fill="#FFE6C1" d="M815.348,259h-22.613c1.863,3,3.308,6.576,2.886,8.388C794.898,270.484,774.943,289,759.31,303h56.037
		c12.104,0,21.917-9.896,21.917-22l0,0C837.265,268.896,827.452,259,815.348,259z"/>
	<path fill="#AAB6C8" d="M795.621,267.388c0.423-1.812-1.023-5.388-2.886-8.388h-44.626c-12.104,0-21.917,9.896-21.917,22l0,0
		c0,12.104,9.813,22,21.917,22h11.201C774.943,289,794.898,270.484,795.621,267.388z"/>
</g>
<g>
	<path fill="#FFE6C1" d="M1216.154,74.344c-0.413-0.127-0.819-0.23-1.222-0.322l-16.551,31.843
		c4.615,2.355,15.074,3.589,19.738-3.633c0,0,8.396-4.417,8.396-11.384S1226.574,77.559,1216.154,74.344z"/>
	<path fill="#AAB6C8" d="M1196.741,82.549c-0.81,1.588-3.713,4.451-4.268,9.451h-15.515c-1.726,0-3.125,1.274-3.125,3
		s1.399,3,3.125,3h15.79c0.596,4,2.013,5.716,5.005,7.528c0.19,0.115,0.41,0.226,0.627,0.337l16.551-31.843
		C1205.15,71.799,1198.171,79.747,1196.741,82.549z"/>
</g>
<g>
	<path fill="#FFE6C1" d="M1088.938,100.508c0-3.367-9.25-15.258-16.25-15.258c-4.008,0-13.49-0.409-24.178-0.509
		c-7.099,7.614-14.199,15.226-21.305,22.833c-6.676,7.148-13.347,14.3-20.028,21.444c-3.196,3.417-6.581,7.025-9.866,10.5
		c-2.921,3.091-5.755,6.737-10.009,7.99c-3.96,1.167-8.449,0.25-11.254-2.889c-1.017-1.138-1.753-2.505-2.218-3.954
		c-2.111-6.594-1.188-15.11-0.216-21.856c1.052-7.302,3.088-14.526,6.385-21.142v0c0-0.002,2.666-16-11-25.667
		c-13.667-9.667-33.333-4-33.333-4s-5.294,0.713-13.667,1.976V75c0,0,0.75,6.5,11,10s17.789,2.108,21.875,7
		c3.063,3.667,3.188,6.703,3.188,9.25c-3.533-4.138-9.936-12.418-31.156-6.75c-31.459,8.403-39.036,15.094-39.036,28
		c0,15.25-8.727,22-17.143,22c-2.837,0-19.727-3.5-19.727,29c0,9.133,0,16.962,0,23.5h105.871c4.715,0,8.824-2.721,11.044-6.518
		c1.326,0.437,2.739,0.518,4.211,0.518h94.082c5.67,0,10.511-3.551,12.494-8.513l2.924,0.159c5.75,0,14.125-5.635,19.625-13.01
		s10.25-27.505,10.25-46.255S1088.938,100.508,1088.938,100.508z"/>
	<path fill="#AAB6C8" d="M719.768,166h-26.121c-4.476,0-8.105,3.524-8.105,8c0,4.476,3.629,8,8.105,8h26.121
		c4.476,0,8.105-3.524,8.105-8C727.873,169.524,724.244,166,719.768,166z"/>
	<path fill="#AAB6C8" d="M870.727,144.5c8.417,0,17.143-6.75,17.143-22c0-12.906,7.577-19.597,39.036-28
		c21.22-5.668,27.623,2.612,31.156,6.75c0-2.547-0.125-5.583-3.188-9.25c-4.086-4.892-11.625-3.5-21.875-7s-11-10-11-10v-5.024
		c-22.737,3.427-68.215,10.908-92.333,19.191C816.957,93.532,807.719,99,801.018,105h-37.185c-1.565,0-2.833,0.935-2.833,2.5
		s1.269,2.5,2.833,2.5h31.521c-5.76,7-8.729,14-10.154,22h-59.867c-4.418,0-8,3.582-8,8s3.582,8,8,8h27.542
		c-0.761,1-1.208,2.634-1.208,4.167c0,4.326,3.507,7.833,7.833,7.833h23.959c0.111,1,0.245,1.657,0.417,2.648
		c3.928,22.561,28.673,26.79,47.482,28.904c2.318,3.27,6.124,5.448,10.437,5.448H851c0-6.538,0-14.367,0-23.5
		C851,141,867.889,144.5,870.727,144.5z"/>
	<path fill="#AAB6C8" d="M805.492,73h12.35c1.929,0,3.492-1.572,3.492-3.5s-1.563-3.5-3.492-3.5h-12.35
		c-1.929,0-3.492,1.572-3.492,3.5S803.563,73,805.492,73z"/>
	<path fill="#AAB6C8" d="M973.615,118.809c-0.972,6.746-1.896,15.262,0.216,21.856c0.464,1.45,1.201,2.816,2.218,3.954
		c2.805,3.139,7.294,4.055,11.254,2.889c4.254-1.253,7.088-4.899,10.009-7.99c3.284-3.475,6.67-7.083,9.866-10.5
		c6.681-7.144,13.352-14.296,20.028-21.444c7.106-7.607,14.207-15.219,21.305-22.833c-7.977-0.075-16.626,0.023-24.176,0.593
		C1006.667,86.667,980,97.667,980,97.667v0v0C976.704,104.282,974.668,111.507,973.615,118.809z"/>
</g>
</svg>
