<?xml version="1.0" encoding="utf-8"?>
<!-- Generator: Adobe Illustrator 18.0.0, SVG Export Plug-In . SVG Version: 6.00 Build 0)  -->
<!DOCTYPE svg PUBLIC "-//W3C//DTD SVG 1.1//EN" "http://www.w3.org/Graphics/SVG/1.1/DTD/svg11.dtd">
<svg version="1.1" xmlns="http://www.w3.org/2000/svg" xmlns:xlink="http://www.w3.org/1999/xlink" x="0px" y="0px"
	 viewBox="0 0 350 180" enable-background="new 0 0 350 180" xml:space="preserve">
<g id="Layer_5">
</g>
<g id="sky">
	<linearGradient id="SVGID_1_" gradientUnits="userSpaceOnUse" x1="175.006" y1="85.6667" x2="175.006" y2="163.0115">
		<stop  offset="0" style="stop-color:#FEE0B6"/>
		<stop  offset="1" style="stop-color:#D57D6B"/>
	</linearGradient>
	<polygon fill="url(#SVGID_1_)" points="-0.004,0 0,180 350.016,180.022 350,0 	"/>
	<circle fill="#FFFBF0" cx="125.508" cy="39.508" r="22.008"/>
</g>
<g id="buildings">
	<linearGradient id="SVGID_2_" gradientUnits="userSpaceOnUse" x1="175.006" y1="47.7604" x2="175.006" y2="152.8351">
		<stop  offset="0" style="stop-color:#EA987B"/>
		<stop  offset="1" style="stop-color:#AF656F"/>
	</linearGradient>
	<polygon fill="url(#SVGID_2_)" points="335,40 335,137 329.655,137 319.75,90 309.845,137 299,137 299,110 256,110 256,158.941 
		251.471,164.25 213.375,126.5 181,160 148,160 148,117 122,117 122,160 107,160 107,132 85,132 85,105 35,105 35,32 -0.004,14.592 
		0,180 350.016,180.022 350,31 	"/>
</g>
<g id="window">
	<g>
		<rect x="169.333" fill="#67161D" width="8" height="180"/>
		<rect x="-0.004" y="68.667" fill="#67161D" width="350.004" height="8"/>
		<rect x="275.333" fill="#67161D" width="8" height="180"/>
		<rect x="63.333" fill="#67161D" width="8" height="180"/>
	</g>
	<rect x="0.014" y="147.458" fill="#D54D09" width="349.986" height="32.546"/>
	<polygon fill="#A33600" points="350.016,155.853 0,155.853 0.014,180.004 350,180.004 	"/>
	<rect x="0.051" y="165.345" fill="#4C0900" width="349.949" height="14.677"/>
</g>
<g id="plant">
	<linearGradient id="SVGID_3_" gradientUnits="userSpaceOnUse" x1="99.6243" y1="39.3616" x2="13.0267" y2="91.4457">
		<stop  offset="0" style="stop-color:#BF9E00"/>
		<stop  offset="1" style="stop-color:#2B1A00"/>
	</linearGradient>
	<path fill="url(#SVGID_3_)" d="M114.243,69.449c-9.662-5.622-21.688-3.061-22.254-2.936l-0.011-0.016
		c-3.188,2.277-6.267,4.797-9.24,7.537c-1.952-1.674-4.086-2.98-6.188-3.995c2.943-4.172,6.143-8.019,9.622-11.503
		c3.828,1.432,12.119,3.812,20.175,1.366c10.956-3.327,17.587-13.435,17.318-14.323c-0.27-0.888-11.402-5.602-22.358-2.276
		C90.349,46.63,83.988,57.627,83.988,57.627s0.031,0.015,0.077,0.037c-3.426,3.501-6.589,7.339-9.495,11.498
		c-5.419-2.21-10.124-2.591-10.124-2.591v0.003c-5.069,4.526-8.071,10.491-9.844,17.664l-0.038-7.912
		c1.627-11.087,5.406-19.67,11.252-25.535c3.965,1.043,12.428,2.568,20.18-0.662c10.569-4.404,16.158-15.124,15.801-15.98
		c-0.357-0.857-11.904-4.437-22.473-0.033c-9.66,4.025-14.859,14.036-15.682,15.73c-4.03,4.26-7.081,9.757-9.126,16.425
		l-0.092-19.153c3.565-0.83,12.527-3.531,18.102-10.612c7.082-8.997,6.738-21.081,6.008-21.655S65.98,16.778,58.897,25.775
		c-3.654,4.642-5.134,10.254-5.714,14.604c-0.366-4.413-1.59-10.256-5.141-15.168c-6.707-9.28-18.422-12.266-19.174-11.722
		s-1.593,12.604,5.114,21.884c5.582,7.724,15.148,10.709,18.202,11.493l0.084,17.521c-1.257-5.463-3.156-10.105-6.065-13.758
		c-0.006-0.042-0.01-0.07-0.01-0.07s-6.157,1.345-12.073,5.429c-1.327-1.884-2.742-3.774-4.198-5.667
		c0.058-1.602-4.203-12.215-13.718-17.659C10.712,29.519,4.477,29.005,0,29.174l0.003,11.88c1.973,2.474,4.477,4.886,7.588,6.665
		c3.332,1.906,6.883,2.933,10.152,3.43c-3.589,0.699-7.559,2.048-11.057,4.576C3.924,57.72,1.719,60.159,0,62.621
		c-0.003,0.577,0.001,12.745,0.001,12.745c4.485-0.207,11.183-1.489,16.846-5.582c7.617-5.505,10.626-14.885,11.46-18.072
		c1.423,1.853,2.803,3.702,4.101,5.546c-1.874,1.494-3.659,3.284-5.138,5.424c-3.212,4.647-4.571,9.929-5.035,14.155
		c-1.191-1.052-2.408-2.105-3.665-3.159c0-0.015-0.001-0.029-0.001-0.029S7.586,74.772,0,81.916l0,21.031
		c3.763-1.541,8.073-4.069,11.479-7.974c5.365-6.152,6.684-14.367,6.999-18.579c1.222,1.044,2.413,2.086,3.57,3.126
		c-0.084,2.93,0.267,4.938,0.568,5.147c0.262,0.181,1.811-0.081,3.995-0.887c15.178,14.728,23.734,29.101,25.522,42.889
		c0.004,1.32,0.008,2.654,0.008,4.004h0.322c0.016,0.474,0.029,0.948,0.029,1.42h0.1l0.002,0.46
		c-0.122,0.97-0.258,1.923-0.368,2.906l0.382,0.043l0.004,0.904l2.24-0.011l-0.022-4.557c1.064-8.18,2.546-15.878,4.442-23.089
		c4.018-7.547,8.44-14.384,13.241-20.479c7.72,7.991,19.195,9.553,19.867,8.942c0.686-0.625,0.157-12.703-7.557-21.165
		c-0.17-0.187-0.346-0.366-0.521-0.546c2.718-2.496,5.526-4.799,8.425-6.899c1.52,3.729,5.43,11.555,12.792,15.839
		c9.897,5.759,21.815,3.732,22.282,2.93S124.14,75.207,114.243,69.449z M46.437,54.802c3.426,5.905,4.945,13.956,5.596,23.684
		c-0.002,0.018-0.005,0.035-0.007,0.053l0.011,0.001c0.153,2.294,0.261,4.679,0.333,7.153l0.041,8.657
		c-1.91-7.924-5.068-15.978-9.463-24.133C45.854,64.76,46.436,58.728,46.437,54.802z M28.754,82.894
		c4.031-1.837,9.19-5.148,12.786-10.349c0.047-0.067,0.088-0.136,0.134-0.204c6.067,11.547,9.587,22.865,10.533,33.863
		c-0.091,3.505-0.112,7.157-0.108,10.943C48.389,105.973,40.589,94.519,28.754,82.894z M54.673,98.817
		c0.852-12.523,3.273-22.623,9.932-29.441c0.268,2.72,0.99,7.06,2.933,11.412c-5.693,10.985-9.95,23.721-12.77,38.111L54.673,98.817
		z M68.737,83.17c0.669,1.191,1.443,2.359,2.338,3.472c-3.234,4.079-6.294,8.493-9.181,13.216
		C63.859,93.913,66.144,88.351,68.737,83.17z"/>
	<g>
		<defs>
			<path id="SVGID_4_" d="M25.92,126.583v2.878l1.618,3.54v22.026c0,5.648,6.279,10.226,14.024,10.226h23.734
				c7.745,0,14.024-4.578,14.024-10.226v-22.026l1.618-3.54v-2.878H25.92z"/>
		</defs>
		<clipPath id="SVGID_5_">
			<use xlink:href="#SVGID_4_"  overflow="visible"/>
		</clipPath>
		<rect x="11.554" y="122.675" clip-path="url(#SVGID_5_)" fill="#791D08" width="83.75" height="57.325"/>
		<rect x="11.554" y="150.75" clip-path="url(#SVGID_5_)" fill="#601003" width="83.75" height="28.95"/>
		<rect x="20.5" y="124.125" clip-path="url(#SVGID_5_)" fill="#F6DCB9" width="30.75" height="4"/>
		<rect x="56.5" y="124.125" clip-path="url(#SVGID_5_)" fill="#F6DCB9" width="30.75" height="4"/>
	</g>
</g>
<g id="mug">
	<g>
		<g>
			<path fill="#FFFFFF" d="M104.771-36.651c0-13.517-4.089-20.093-8.418-27.077c-4.359-7.034-8.868-14.297-8.868-28.668
				s4.508-21.558,8.868-28.592c4.329-6.984,8.418-14.012,8.418-27.012h3c0,14-4.508,21.563-8.868,28.597
				c-4.329,6.984-8.418,13.541-8.418,27.057s4.089,20.093,8.418,27.077c4.359,7.034,8.868,14.297,8.868,28.668"/>
		</g>
		<g>
			<path fill="#FFFFFF" d="M115.143-36.651c0-13.517-4.089-20.093-8.417-27.077c-4.36-7.034-8.868-14.297-8.868-28.668
				s4.508-21.558,8.868-28.592c4.329-6.984,8.417-14.012,8.417-27.012h3c0,14-4.508,21.563-8.868,28.597
				c-4.329,6.984-8.417,13.541-8.417,27.057s4.089,20.093,8.417,27.077c4.36,7.034,8.868,14.297,8.868,28.668"/>
		</g>
		<g>
			<path fill="#FFFFFF" d="M125.514-36.651c0-13.517-4.089-20.093-8.418-27.077c-4.359-7.034-8.868-14.297-8.868-28.668
				s4.508-21.558,8.868-28.592c4.329-6.984,8.418-14.012,8.418-27.012h3c0,14-4.508,21.563-8.868,28.597
				c-4.329,6.984-8.418,13.541-8.418,27.057s4.089,20.093,8.418,27.077c4.359,7.034,8.868,14.297,8.868,28.668"/>
		</g>
	</g>
	<g>
		<path fill="#FFFFFF" d="M100.125,0c-3.505,5.927-6.41,12.375-6.41,23.768c0,13.517,4.089,20.093,8.418,27.077
			C106.492,57.88,111,65.142,111,79.513c0,14.371-4.508,21.557-8.868,28.59c-4.329,6.984-8.418,14.011-8.418,27.011h-3
			c0-14,4.508-21.562,8.868-28.596c4.329-6.984,8.417-13.54,8.417-27.056c0-13.517-4.089-20.093-8.418-27.077
			c-4.359-7.034-8.868-14.297-8.868-28.668c0-11.123,2.701-17.942,5.943-23.718L100.125,0z"/>
		<path fill="#FFFFFF" d="M110.496,0c-3.505,5.927-6.41,12.375-6.41,23.768c0,13.517,4.089,20.093,8.417,27.077
			c4.36,7.034,8.868,14.297,8.868,28.668c0,14.371-4.508,21.557-8.868,28.59c-4.329,6.984-8.417,14.011-8.417,27.011h-3
			c0-14,4.508-21.562,8.868-28.596c4.329-6.984,8.417-13.54,8.417-27.056c0-13.517-4.089-20.093-8.417-27.077
			c-4.36-7.034-8.868-14.297-8.868-28.668c0-11.123,2.7-17.942,5.943-23.718L110.496,0z"/>
		<path fill="#FFFFFF" d="M120.867,0c-3.505,5.927-6.41,12.375-6.41,23.768c0,13.517,4.089,20.093,8.418,27.077
			c4.359,7.034,8.868,14.297,8.868,28.668c0,14.371-4.508,21.557-8.868,28.59c-4.329,6.984-8.418,14.011-8.418,27.011h-3
			c0-14,4.508-21.562,8.868-28.596c4.329-6.984,8.417-13.54,8.417-27.056c0-13.517-4.089-20.093-8.418-27.077
			c-4.359-7.034-8.868-14.297-8.868-28.668c0-11.123,2.701-17.942,5.943-23.718L120.867,0z"/>
	</g>
	<g>
		<defs>
			<path id="SVGID_6_" d="M123.593,138.083c-1.159,0-2.573,0.285-3.308,0.785v-3.753H85v15.833c0,7.843,6.113,14.306,13.957,14.306
				h6.881c6.669,0,12.262-4.651,13.788-10.849c1.125,0.635,2.526,0.98,3.844,0.98c3.676,0,7.474-3.501,7.474-7.464v-2.417
				C130.944,141.54,127.268,138.083,123.593,138.083z M128.738,147.92c0,2.755-2.695,5.233-5.268,5.233
				c-1.238,0-2.346-0.442-3.289-1.156c0.025-0.347,0.104-0.697,0.104-1.05v-9.538c0.735-0.692,2.088-1.12,3.308-1.12
				c2.573,0,5.146,2.46,5.146,5.215V147.92z"/>
		</defs>
		<clipPath id="SVGID_7_">
			<use xlink:href="#SVGID_6_"  overflow="visible"/>
		</clipPath>
		<rect x="82.427" y="131.316" clip-path="url(#SVGID_7_)" fill="#351E25" width="52.805" height="34.305"/>
		<rect x="82.427" y="157.045" clip-path="url(#SVGID_7_)" fill="#6B5C58" width="39.94" height="8.576"/>
		<rect x="82.427" y="127.899" clip-path="url(#SVGID_7_)" fill="#F6DCB9" width="39.94" height="8.576"/>
		<path clip-path="url(#SVGID_7_)" fill="#F6DCB9" d="M120.672,138.655c0.163,0.23,0.607,0.164,0.842,0.149
			c0.525-0.033,1.046-0.092,1.57-0.124c1.12-0.069,2.269,0.18,3.242,0.74c0.491,0.283,0.987,0.563,1.484,0.834
			c0.273,0.149,0.699,0.448,1.03,0.417c0.043-0.004,0.085-0.008,0.121-0.035c3.068-2.348-1.036-5.969-1.036-5.969l-6.426,2.638
			C121.5,137.305,120.173,137.95,120.672,138.655z"/>
	</g>
</g>
<g id="laptop">
	<g>
		<linearGradient id="SVGID_8_" gradientUnits="userSpaceOnUse" x1="243.3406" y1="136.8881" x2="278.2011" y2="48.8194">
			<stop  offset="0" style="stop-color:#6E687F"/>
			<stop  offset="1" style="stop-color:#96A9FB"/>
		</linearGradient>
		<polygon fill="url(#SVGID_8_)" points="340.929,54 340.887,54 309.118,151 284,151 284,165 153.9,165 153.894,165 310.532,165 
			344.76,59.757 		"/>
		<polygon fill="#221008" points="340.913,53.513 340.906,53.536 340.928,53.536 		"/>
		<path fill="#221008" d="M284.468,151.541h24.65l31.77-97.947l0.019-0.058l-40.228-0.154l-112.735-0.064l-31.859,98.224H284.468z
			 M300.664,142.934H170.281l26.305-81.203l130.341,0.134L300.664,142.934z"/>
		<polygon fill="#504D5F" points="284.468,151.541 156.084,151.541 135.937,151.541 124.333,151.541 124.333,165.225 
			135.937,165.225 153.9,165.225 284.468,165.225 		"/>
		<polygon fill="#221008" points="170.281,142.934 300.664,142.934 326.927,61.865 196.585,61.731 		"/>
		<linearGradient id="SVGID_9_" gradientUnits="userSpaceOnUse" x1="248.6037" y1="65.9207" x2="248.6037" y2="143">
			<stop  offset="0" style="stop-color:#E3D7C9"/>
			<stop  offset="1" style="stop-color:#B69C83"/>
		</linearGradient>
		<polygon fill="url(#SVGID_9_)" points="170.281,143 300.664,143 326.927,61.898 196.585,61.781 		"/>
	</g>
</g>
<g id="spinny">
	<g>
		<path fill="#443238" d="M241.924,119.904c-2.687-1.337-2.922-5.005-0.538-8.196l-0.001,0l6.797-9.097l-8.082-3.946
			c-2.644-0.925-6.384,0.561-8.63,3.521l-0.024-0.012c-0.872,2.325-1.299,4.706-1.163,7.008
			C230.668,115.715,235.43,119.737,241.924,119.904z"/>
		<path fill="#443238" d="M254.895,93.624l0.003,0l-6.716,8.988l8.266,4.036c2.644,0.861,6.277-0.612,8.446-3.505
			c0.84-2.35,1.22-4.745,1.026-7.043c-0.535-6.356-5.276-10.214-11.618-10.377C256.936,87.003,257.208,90.529,254.895,93.624z"/>
		<path fill="#755F5A" d="M256.448,106.648l-8.266-4.036l-6.797,9.097l0.001,0c-2.384,3.191-2.149,6.859,0.538,8.196
			c2.296,0.059,4.801-0.361,7.401-1.326c7.292-2.707,13.231-8.893,15.57-15.436C262.726,106.036,259.092,107.509,256.448,106.648z"
			/>
		<path fill="#755F5A" d="M240.1,98.666l8.082,3.946l6.716-8.988l-0.003,0c2.313-3.096,2.041-6.621-0.592-7.902
			c-2.245-0.058-4.694,0.343-7.239,1.267c-7.2,2.614-13.175,8.676-15.618,15.186l0.024,0.012
			C233.716,99.228,237.456,97.741,240.1,98.666z"/>
	</g>
	<g display="none">
		<path display="inline" fill="#443238" d="M248.886,118.736c-3.398-0.005-5.198-2.816-4.03-6.274l-0.001,0.001l3.328-9.851
			l-10.218,0c-3.199,0.291-6.541,2.93-7.668,6.161l-0.031,0c0.064,2.19,0.626,4.251,1.753,6.027
			C235.209,119.834,241.96,121.149,248.886,118.736z"/>
		<path display="inline" fill="#443238" d="M251.464,92.89c0,0,0.003-0.001,0.003-0.001l-3.285,9.723h10.394
			c3.132-0.339,6.318-2.903,7.376-6.023c-0.104-2.18-0.709-4.22-1.873-5.965c-3.223-4.833-9.824-6.087-16.577-3.789
			C250.821,86.845,252.594,89.543,251.464,92.89z"/>
		<path display="inline" fill="#755F5A" d="M258.576,102.612h-10.394l-3.328,9.851l0.001-0.001c-1.168,3.458,0.632,6.268,4.03,6.274
			c2.443-0.851,4.901-2.161,7.226-3.936c6.508-4.969,10.131-12.145,9.841-18.212C264.894,99.709,261.709,102.273,258.576,102.612z"
			/>
		<path display="inline" fill="#755F5A" d="M237.964,102.612l10.218,0l3.285-9.723c0,0-0.003,0.001-0.003,0.001
			c1.131-3.347-0.643-6.045-3.961-6.055c-2.396,0.815-4.816,2.075-7.119,3.789c-6.528,4.862-10.297,12.012-10.118,18.149l0.031,0
			C231.423,105.542,234.765,102.903,237.964,102.612z"/>
	</g>
	<g display="none">
		<path display="inline" fill="#443238" d="M255.716,115.096c-3.574,1.321-6.654-0.198-6.882-3.389l-0.001,0.001l-0.651-9.097
			l-10.806,3.967c-3.271,1.478-5.699,4.881-5.518,7.891l-0.033,0.012c1.002,1.715,2.477,3.13,4.427,4.096
			C241.767,121.312,249.449,119.706,255.716,115.096z"/>
		<path display="inline" fill="#443238" d="M247.536,93.626c0,0,0.002-0.002,0.003-0.002l0.643,8.988l10.932-4.014
			c3.141-1.474,5.401-4.725,5.203-7.598c-1.022-1.687-2.51-3.072-4.462-4.011c-5.418-2.606-12.904-1.079-19.072,3.344
			C244.299,89.065,247.315,90.53,247.536,93.626z"/>
		<path display="inline" fill="#755F5A" d="M259.114,98.598l-10.932,4.014l0.651,9.097l0.001-0.001
			c0.228,3.191,3.308,4.71,6.882,3.389c2.206-1.622,4.234-3.611,5.925-5.913c4.728-6.436,5.515-13.496,2.676-18.183
			C264.516,93.874,262.255,97.125,259.114,98.598z"/>
		<path display="inline" fill="#755F5A" d="M237.376,106.579l10.806-3.967l-0.643-8.988c0,0-0.003,0.002-0.003,0.002
			c-0.222-3.096-3.237-4.561-6.753-3.294c-2.193,1.572-4.225,3.51-5.94,5.767c-4.869,6.408-5.828,13.573-3.019,18.383l0.033-0.012
			C231.677,111.461,234.104,108.057,237.376,106.579z"/>
	</g>
	<g display="none">
		<path display="inline" fill="#443238" d="M261.352,109.569c-3.191,2.429-7.063,2.427-8.647-0.007c0,0-0.001,0.001-0.001,0.001
			l-4.523-6.952l-9.744,7.348c-2.841,2.451-3.969,6.103-2.497,8.42l-0.03,0.023c1.791,0.966,3.954,1.508,6.427,1.508
			C249.315,119.91,256.715,115.642,261.352,109.569z"/>
		<path display="inline" fill="#443238" d="M243.699,95.726c0,0,0.002-0.002,0.002-0.003l4.481,6.889l9.812-7.399
			c2.676-2.373,3.682-5.815,2.269-8.017c-1.78-0.948-3.925-1.479-6.373-1.479c-6.811,0-14.083,4.091-18.746,9.996
			C238.335,93.344,242.152,93.348,243.699,95.726z"/>
		<path display="inline" fill="#755F5A" d="M257.994,95.213l-9.812,7.399l4.523,6.952c0,0,0.001-0.001,0.001-0.001
			c1.583,2.434,5.455,2.436,8.647,0.007c1.63-2.134,2.919-4.488,3.725-6.957c2.251-6.902,0.123-12.787-4.814-15.416
			C261.676,89.398,260.669,92.84,257.994,95.213z"/>
		<path display="inline" fill="#755F5A" d="M238.438,109.96l9.744-7.348l-4.481-6.889c0,0-0.002,0.003-0.002,0.003
			c-1.547-2.378-5.363-2.382-8.555-0.013c-1.66,2.102-2.995,4.435-3.856,6.899c-2.447,7.002-0.409,13.075,4.624,15.79l0.03-0.023
			C234.469,116.063,235.597,112.411,238.438,109.96z"/>
	</g>
	<g display="none">
		<path display="inline" fill="#443238" d="M264.935,103.029c-2.322,3.15-6.38,4.647-9.064,3.336l0,0.001l-7.689-3.754l-7.184,9.615
			c-1.967,3.054-1.612,6.39,0.928,7.647l-0.022,0.029c2.302,0.062,4.814-0.357,7.421-1.325
			C256.66,115.855,262.625,109.613,264.935,103.029z"/>
		<path display="inline" fill="#443238" d="M240.528,98.878l0.001-0.003l7.653,3.736l7.212-9.652
			c1.813-2.909,1.424-6.025-0.989-7.234c-2.273-0.073-4.758,0.325-7.341,1.263c-7.204,2.616-13.182,8.683-15.622,15.198
			C233.825,99.06,237.879,97.585,240.528,98.878z"/>
		<path display="inline" fill="#755F5A" d="M255.394,92.96l-7.212,9.652l7.689,3.754l0-0.001c2.684,1.31,6.742-0.186,9.064-3.336
			c0.812-2.313,1.175-4.668,0.985-6.929c-0.532-6.322-5.225-10.173-11.516-10.374C256.817,86.935,257.207,90.051,255.394,92.96z"/>
		<path display="inline" fill="#755F5A" d="M240.998,112.227l7.184-9.615l-7.653-3.736l-0.001,0.003
			c-2.649-1.293-6.703,0.182-9.087,3.309c-0.869,2.321-1.294,4.698-1.159,6.996c0.385,6.525,5.137,10.545,11.621,10.72l0.022-0.029
			C239.386,118.617,239.03,115.281,240.998,112.227z"/>
	</g>
	<g display="none">
		<path display="inline" fill="#443238" d="M265.947,96.483c-1.111,3.381-4.731,6.128-8.094,6.128l0,0.001l-9.671,0l-3.518,10.413
			c-0.786,3.187,1.001,5.687,4.21,5.687l-0.01,0.032c2.45-0.851,4.916-2.163,7.247-3.943
			C262.657,109.803,266.285,102.572,265.947,96.483z"/>
		<path display="inline" fill="#443238" d="M238.508,102.615l0-0.003h9.675l3.527-10.441c0.683-3.006-1.042-5.335-4.097-5.372
			c-2.432,0.814-4.891,2.085-7.228,3.826c-6.532,4.865-10.302,12.021-10.118,18.16C231.468,105.366,235.147,102.615,238.508,102.615
			z"/>
		<path display="inline" fill="#755F5A" d="M251.709,92.171l-3.527,10.441l9.671,0l0-0.001c3.364,0,6.984-2.746,8.094-6.128
			c-0.119-2.14-0.723-4.142-1.868-5.859c-3.206-4.807-9.753-6.073-16.467-3.826C250.667,86.836,252.392,89.164,251.709,92.171z"/>
		<path display="inline" fill="#755F5A" d="M244.664,113.025l3.518-10.413h-9.675l0,0.003c-3.361,0-7.04,2.752-8.242,6.17
			c0.065,2.186,0.628,4.243,1.752,6.016c3.188,5.027,9.928,6.345,16.846,3.943l0.01-0.032
			C245.665,118.712,243.879,116.212,244.664,113.025z"/>
	</g>
	<g display="none">
		<path display="inline" fill="#443238" d="M264.267,90.918c0.253,3.101-2.387,6.664-5.913,7.958l0.001,0.001l-10.173,3.735
			l0.688,9.615c0.517,2.827,3.451,4.106,6.824,2.855l0.002,0.029c2.214-1.625,4.249-3.618,5.945-5.928
			C266.397,102.709,267.166,95.605,264.267,90.918z"/>
		<path display="inline" fill="#443238" d="M237.953,106.37l-0.002-0.002l10.23-3.756l-0.691-9.652
			c-0.55-2.653-3.358-3.843-6.608-2.698c-2.231,1.585-4.299,3.547-6.04,5.838c-4.872,6.412-5.83,13.581-3.014,18.391
			C231.65,111.303,234.388,107.679,237.953,106.37z"/>
		<path display="inline" fill="#755F5A" d="M247.491,92.96l0.691,9.652l10.173-3.735l-0.001-0.001
			c3.526-1.295,6.166-4.857,5.913-7.958c-1.02-1.649-2.492-3.005-4.412-3.929c-5.388-2.592-12.823-1.095-18.972,3.273
			C244.133,89.117,246.941,90.307,247.491,92.96z"/>
		<path display="inline" fill="#755F5A" d="M248.87,112.227l-0.688-9.615l-10.23,3.756l0.002,0.002
			c-3.566,1.309-6.303,4.934-6.124,8.122c1.001,1.711,2.475,3.123,4.422,4.088c5.51,2.731,13.181,1.13,19.445-3.468l-0.002-0.029
			C252.322,116.333,249.387,115.054,248.87,112.227z"/>
	</g>
	<g display="none">
		<path display="inline" fill="#443238" d="M260.176,87.15c1.566,2.362,0.293,6.196-2.863,8.576l0.001,0l-9.132,6.886l4.78,7.348
			c1.733,2.034,5.351,1.903,8.361-0.393l0.015,0.022c1.637-2.14,2.931-4.499,3.739-6.976
			C267.341,95.67,265.175,89.756,260.176,87.15z"/>
		<path display="inline" fill="#443238" d="M238.961,109.568l-0.002-0.001l9.223-6.955l-4.813-7.399
			c-1.707-1.899-5.188-1.764-8.149,0.404c-1.696,2.127-3.058,4.493-3.932,6.995c-2.448,7.006-0.407,13.082,4.633,15.795
			C234.373,115.948,235.737,111.999,238.961,109.568z"/>
		<path display="inline" fill="#755F5A" d="M243.369,95.213l4.813,7.399l9.132-6.886l-0.001,0c3.156-2.38,4.429-6.213,2.863-8.576
			c-1.763-0.919-3.878-1.433-6.286-1.433c-6.774,0-14.004,4.047-18.67,9.9C238.181,93.449,241.662,93.314,243.369,95.213z"/>
		<path display="inline" fill="#755F5A" d="M252.962,109.96l-4.78-7.348l-9.223,6.955l0.002,0.001
			c-3.224,2.431-4.588,6.381-3.041,8.839c1.789,0.963,3.949,1.503,6.418,1.503c6.969,0,14.36-4.259,18.999-10.321l-0.015-0.022
			C258.313,111.863,254.695,111.993,252.962,109.96z"/>
	</g>
</g>
</svg>
