<svg xmlns="http://www.w3.org/2000/svg" xmlns:xlink="http://www.w3.org/1999/xlink" viewBox="0 0 350 180"><linearGradient id="a" gradientUnits="userSpaceOnUse" x1="175.006" y1="85.667" x2="175.006" y2="163.012"><stop offset="0" stop-color="#FEE0B6"/><stop offset="1" stop-color="#D57D6B"/></linearGradient><path fill="url(#a)" d="M-.004 0L0 180l350.016.022L350 0"/><circle fill="#FFFBF0" cx="125.508" cy="39.508" r="22.008"/><linearGradient id="b" gradientUnits="userSpaceOnUse" x1="175.006" y1="47.76" x2="175.006" y2="152.835"><stop offset="0" stop-color="#EA987B"/><stop offset="1" stop-color="#AF656F"/></linearGradient><path fill="url(#b)" d="M335 40v97h-5.345l-9.905-47-9.905 47H299v-27h-43v48.94l-4.53 5.31-38.095-37.75L181 160h-33v-43h-26v43h-15v-28H85v-27H35V32L-.004 14.592 0 180l350.016.022L350 31"/><g fill="#67161D"><path d="M169.333 0h8v180h-8z"/><path d="M-.004 68.667H350v8H-.004z"/><path d="M275.333 0h8v180h-8zM63.333 0h8v180h-8z"/></g><path fill="#D54D09" d="M.014 147.458H350v32.546H.014z"/><path fill="#A33600" d="M350.016 155.853H0l.014 24.15H350"/><path fill="#4C0900" d="M.05 165.345H350v14.677H.05z"/><g><linearGradient id="c" gradientUnits="userSpaceOnUse" x1="99.624" y1="39.362" x2="13.027" y2="91.446"><stop offset="0" stop-color="#BF9E00"/><stop offset="1" stop-color="#2B1A00"/></linearGradient><path fill="url(#c)" d="M114.243 69.45c-9.662-5.623-21.688-3.062-22.254-2.937l-.012-.016c-3.188 2.277-6.267 4.797-9.24 7.537-1.952-1.674-4.086-2.98-6.188-3.995 2.943-4.173 6.143-8.02 9.622-11.504 3.828 1.432 12.12 3.812 20.175 1.366 10.956-3.327 17.587-13.435 17.318-14.323-.27-.89-11.402-5.603-22.358-2.277-10.958 3.327-17.32 14.324-17.32 14.324l.078.037c-3.426 3.5-6.59 7.34-9.495 11.498-5.42-2.21-10.124-2.59-10.124-2.59v.002c-5.07 4.526-8.07 10.49-9.844 17.664l-.038-7.912C56.19 65.24 59.97 56.656 65.816 50.79c3.965 1.044 12.428 2.57 20.18-.66 10.57-4.405 16.158-15.125 15.8-15.98-.356-.858-11.903-4.438-22.472-.034-9.66 4.025-14.86 14.036-15.682 15.73-4.03 4.26-7.08 9.757-9.126 16.425l-.092-19.152c3.565-.83 12.527-3.53 18.102-10.612 7.082-8.997 6.738-21.08 6.008-21.655S65.98 16.78 58.897 25.776c-3.654 4.642-5.134 10.254-5.714 14.604-.366-4.414-1.59-10.257-5.14-15.17-6.708-9.28-18.423-12.265-19.175-11.72s-1.593 12.603 5.114 21.883c5.582 7.724 15.148 10.71 18.202 11.493l.084 17.52c-1.257-5.462-3.156-10.104-6.065-13.757l-.01-.07s-6.157 1.344-12.073 5.428c-1.327-1.884-2.742-3.774-4.198-5.667.058-1.6-4.203-12.214-13.718-17.658C10.712 29.52 4.477 29.005 0 29.174l.003 11.88C1.976 43.528 4.48 45.94 7.59 47.72c3.333 1.905 6.884 2.932 10.153 3.43-3.59.698-7.56 2.047-11.057 4.575C3.924 57.72 1.72 60.16 0 62.62c-.003.578 0 12.746 0 12.746 4.486-.207 11.184-1.49 16.847-5.582 7.617-5.505 10.626-14.885 11.46-18.072 1.423 1.853 2.803 3.702 4.1 5.546-1.873 1.494-3.658 3.284-5.137 5.424-3.212 4.647-4.57 9.93-5.035 14.155-1.19-1.052-2.408-2.105-3.665-3.16v-.028S7.585 74.77 0 81.915v21.03c3.763-1.54 8.073-4.068 11.48-7.973 5.364-6.152 6.683-14.367 6.998-18.58 1.222 1.045 2.413 2.087 3.57 3.127-.084 2.93.267 4.938.568 5.147.262.18 1.81-.08 3.995-.887 15.18 14.728 23.735 29.1 25.523 42.89.004 1.32.008 2.653.008 4.003h.323c.016.474.03.948.03 1.42h.1v.46c-.12.97-.257 1.923-.367 2.906l.382.042.004.904 2.24-.01-.022-4.558c1.064-8.18 2.546-15.878 4.442-23.09 4.018-7.546 8.44-14.383 13.24-20.478 7.72 7.99 19.196 9.553 19.868 8.942.686-.625.157-12.703-7.557-21.165-.17-.187-.346-.366-.52-.546 2.717-2.495 5.525-4.798 8.424-6.898 1.52 3.73 5.43 11.555 12.792 15.84 9.896 5.758 21.814 3.73 22.28 2.93s-3.66-12.165-13.557-17.923zM46.437 54.8c3.426 5.905 4.945 13.956 5.596 23.684l-.007.053h.01c.154 2.294.262 4.68.334 7.153l.04 8.657c-1.91-7.924-5.067-15.978-9.462-24.133 2.906-5.457 3.488-11.49 3.49-15.415zM28.754 82.894c4.03-1.837 9.19-5.148 12.786-10.35.047-.066.088-.135.134-.203 6.067 11.548 9.587 22.866 10.533 33.864-.09 3.505-.112 7.157-.108 10.943-3.71-11.174-11.51-22.628-23.346-34.253zm25.92 15.923c.85-12.523 3.272-22.623 9.93-29.44.27 2.72.99 7.06 2.934 11.41-5.693 10.986-9.95 23.722-12.77 38.112l-.095-20.083zM68.736 83.17c.67 1.19 1.443 2.36 2.338 3.472-3.234 4.08-6.294 8.493-9.18 13.216 1.964-5.945 4.25-11.507 6.842-16.688z"/><defs><path id="d" d="M25.92 126.583v2.878l1.618 3.54v22.027c0 5.648 6.28 10.226 14.024 10.226h23.734c7.745 0 14.024-4.578 14.024-10.226V133l1.618-3.54v-2.877H25.92z"/></defs><clipPath id="e"><use xlink:href="#d" overflow="visible"/></clipPath><path clip-path="url(#e)" fill="#791D08" d="M11.554 122.675h83.75V180h-83.75z"/><path clip-path="url(#e)" fill="#601003" d="M11.554 150.75h83.75v28.95h-83.75z"/><path clip-path="url(#e)" fill="#F6DCB9" d="M20.5 124.125h30.75v4H20.5zM56.5 124.125h30.75v4H56.5z"/></g><g><path fill="#FFF" d="M104.77-36.65c0-13.518-4.088-20.094-8.417-27.078-4.36-7.034-8.868-14.297-8.868-28.668s4.508-21.558 8.868-28.592c4.33-6.984 8.418-14.012 8.418-27.012h3c0 14-4.507 21.563-8.867 28.597-4.33 6.984-8.418 13.54-8.418 27.057s4.09 20.093 8.418 27.077c4.36 7.035 8.868 14.298 8.868 28.67"/><path fill="#FFF" d="M115.143-36.65c0-13.518-4.09-20.094-8.417-27.078-4.36-7.034-8.868-14.297-8.868-28.668s4.508-21.558 8.868-28.592c4.33-6.984 8.417-14.012 8.417-27.012h3c0 14-4.508 21.563-8.868 28.597-4.33 6.984-8.417 13.54-8.417 27.057s4.09 20.093 8.417 27.077c4.36 7.035 8.868 14.298 8.868 28.67"/><path fill="#FFF" d="M125.514-36.65c0-13.518-4.09-20.094-8.418-27.078-4.36-7.034-8.868-14.297-8.868-28.668s4.508-21.558 8.868-28.592c4.33-6.984 8.418-14.012 8.418-27.012h3c0 14-4.508 21.563-8.868 28.597-4.33 6.984-8.418 13.54-8.418 27.057s4.09 20.093 8.418 27.077c4.36 7.035 8.868 14.298 8.868 28.67"/><g fill="#FFF"><path d="M100.125 0c-3.505 5.927-6.41 12.375-6.41 23.768 0 13.517 4.09 20.093 8.418 27.077C106.493 57.88 111 65.142 111 79.513c0 14.37-4.508 21.557-8.868 28.59-4.33 6.984-8.418 14.01-8.418 27.01h-3c0-14 4.508-21.56 8.868-28.595 4.33-6.984 8.417-13.54 8.417-27.056 0-13.517-4.09-20.093-8.42-27.077-4.358-7.034-8.867-14.297-8.867-28.668 0-11.123 2.7-17.942 5.943-23.718h3.47z"/><path d="M110.496 0c-3.505 5.927-6.41 12.375-6.41 23.768 0 13.517 4.09 20.093 8.417 27.077 4.36 7.034 8.868 14.297 8.868 28.668 0 14.37-4.507 21.557-8.867 28.59-4.33 6.984-8.417 14.01-8.417 27.01h-3c0-14 4.508-21.56 8.868-28.595 4.33-6.984 8.417-13.54 8.417-27.056 0-13.517-4.088-20.093-8.416-27.077-4.36-7.034-8.868-14.297-8.868-28.668 0-11.123 2.7-17.942 5.943-23.718h3.466z"/><path d="M120.867 0c-3.505 5.927-6.41 12.375-6.41 23.768 0 13.517 4.09 20.093 8.418 27.077 4.36 7.034 8.868 14.297 8.868 28.668 0 14.37-4.508 21.557-8.868 28.59-4.33 6.984-8.418 14.01-8.418 27.01h-3c0-14 4.508-21.56 8.868-28.595 4.33-6.984 8.417-13.54 8.417-27.056 0-13.517-4.09-20.093-8.418-27.077-4.36-7.034-8.868-14.297-8.868-28.668 0-11.123 2.7-17.942 5.943-23.718h3.467z"/></g><g><defs><path id="f" d="M123.593 138.083c-1.16 0-2.573.285-3.308.785v-3.753H85v15.833c0 7.843 6.113 14.306 13.957 14.306h6.88c6.67 0 12.263-4.65 13.79-10.85 1.124.636 2.525.98 3.843.98 3.676 0 7.474-3.5 7.474-7.463v-2.416c0-3.964-3.676-7.42-7.35-7.42zm5.145 9.837c0 2.755-2.695 5.233-5.268 5.233-1.238 0-2.346-.442-3.29-1.156.026-.347.105-.697.105-1.05v-9.538c.735-.693 2.088-1.12 3.308-1.12 2.573 0 5.146 2.46 5.146 5.214v2.416z"/></defs><clipPath id="g"><use xlink:href="#f" overflow="visible"/></clipPath><path clip-path="url(#g)" fill="#351E25" d="M82.427 131.316h52.805v34.305H82.427z"/><path clip-path="url(#g)" fill="#6B5C58" d="M82.427 157.045h39.94v8.576h-39.94z"/><path clip-path="url(#g)" fill="#F6DCB9" d="M82.427 127.9h39.94v8.575h-39.94zM120.672 138.655c.163.23.607.164.842.15.525-.034 1.046-.093 1.57-.125 1.12-.07 2.27.18 3.242.74.49.283.987.563 1.484.834.273.15.7.448 1.03.417.043-.003.085-.007.12-.034 3.07-2.348-1.035-5.97-1.035-5.97l-6.426 2.64s-1.327.644-.828 1.35z"/></g></g><g><linearGradient id="h" gradientUnits="userSpaceOnUse" x1="243.341" y1="136.888" x2="278.201" y2="48.819"><stop offset="0" stop-color="#6E687F"/><stop offset="1" stop-color="#96A9FB"/></linearGradient><path fill="url(#h)" d="M340.93 54h-.043l-31.77 97H284v14H153.894h156.638L344.76 59.757"/><path fill="#221008" d="M340.913 53.513l-.007.023h.022"/><path fill="#221008" d="M284.468 151.54h24.65l31.77-97.946.02-.058-40.23-.154-112.734-.064-31.86 98.224H284.47zm16.196-8.606H170.28l26.306-81.203 130.34.135-26.262 81.07z"/><path fill="#504D5F" d="M284.468 151.54H124.333v13.685H284.468"/><path fill="#221008" d="M170.28 142.934h130.384l26.263-81.07-130.342-.133"/><linearGradient id="i" gradientUnits="userSpaceOnUse" x1="248.604" y1="65.921" x2="248.604" y2="143"><stop offset="0" stop-color="#E3D7C9"/><stop offset="1" stop-color="#B69C83"/></linearGradient><path fill="url(#i)" d="M170.28 143h130.384l26.263-81.102-130.342-.117"/></g><g><path fill="#443238" d="M241.924 119.904c-2.687-1.337-2.922-5.005-.538-8.196l6.796-9.097-8.082-3.945c-2.644-.925-6.384.56-8.63 3.52l-.024-.01c-.872 2.324-1.3 4.705-1.163 7.007.385 6.533 5.147 10.555 11.64 10.722zM254.895 93.624h.003l-6.716 8.988 8.266 4.036c2.644.86 6.277-.612 8.446-3.505.84-2.35 1.22-4.745 1.026-7.043-.535-6.356-5.276-10.214-11.618-10.377 2.634 1.28 2.906 4.806.593 7.9z"/><path fill="#755F5A" d="M256.448 106.648l-8.266-4.036-6.797 9.097c-2.383 3.19-2.148 6.858.54 8.195 2.295.06 4.8-.36 7.4-1.326 7.292-2.708 13.23-8.894 15.57-15.437-2.17 2.893-5.803 4.366-8.447 3.505zM240.1 98.666l8.082 3.946 6.716-8.988h-.003c2.313-3.096 2.04-6.62-.592-7.902-2.245-.058-4.694.343-7.24 1.267-7.2 2.613-13.174 8.675-15.617 15.185l.024.012c2.246-2.96 5.986-4.446 8.63-3.52z"/></g></svg>