<?xml version="1.0" encoding="utf-8"?>
<!-- Generator: Adobe Illustrator 18.0.0, SVG Export Plug-In . SVG Version: 6.00 Build 0)  -->
<!DOCTYPE svg PUBLIC "-//W3C//DTD SVG 1.1//EN" "http://www.w3.org/Graphics/SVG/1.1/DTD/svg11.dtd">
<svg version="1.1" id="Layer_1" xmlns="http://www.w3.org/2000/svg" xmlns:xlink="http://www.w3.org/1999/xlink" x="0px" y="0px"
	 viewBox="0 0 350 180" enable-background="new 0 0 350 180" xml:space="preserve">
<g>
	<g>
		<defs>
			<rect id="SVGID_1_" x="-0.002" y="0.151" width="349.771" height="179.821"/>
		</defs>
		<clipPath id="SVGID_2_">
			<use xlink:href="#SVGID_1_"  overflow="visible"/>
		</clipPath>
		<g clip-path="url(#SVGID_2_)">
			<defs>
				<rect id="SVGID_3_" x="-0.002" y="0.151" width="349.771" height="179.822"/>
			</defs>
			<clipPath id="SVGID_4_">
				<use xlink:href="#SVGID_3_"  overflow="visible"/>
			</clipPath>
			<g transform="matrix(1 0 0 1 -1.164153e-010 0)" clip-path="url(#SVGID_4_)">
				
					<image overflow="visible" width="992" height="510" xlink:href="460EAAD5.jpg"  transform="matrix(0.3526 0 0 0.3526 -0.002 0.1514)">
				</image>
			</g>
		</g>
	</g>
	
		<linearGradient id="SVGID_5_" gradientUnits="userSpaceOnUse" x1="0" y1="180" x2="1" y2="180" gradientTransform="matrix(4.746354e-009 105.4759 -105.4759 4.746354e-009 19160.668 45.0775)">
		<stop  offset="0" style="stop-color:#0C4451"/>
		<stop  offset="1" style="stop-color:#83B3A6"/>
	</linearGradient>
	<polygon fill="url(#SVGID_5_)" points="350,0 350,180 0,180 0,0.141 	"/>
	<path fill="#142730" d="M171.309,111.214c2.128-0.369,4.304-0.544,6.459-0.647c12.105-0.574,24.308,0.974,35.886,4.554
		c7.457,2.305,14.675,5.449,22.317,7.039c19.442,4.043,31.58-15.033,51.198-9.254c11.274,3.321,17.711,43.243,20.573,67.094
		l-163.937,0c1.238-5.66,2.476-11.319,3.715-16.979c2.919-13.342,3.3-43.233,17.205-49.809
		C166.812,112.225,169.033,111.608,171.309,111.214z"/>
	<rect x="192.434" y="129.195" fill="#FFBE57" width="5.691" height="2.903"/>
	<rect x="192.434" y="133.195" fill="#FFBE57" width="5.691" height="2.903"/>
	<rect x="192.434" y="137.195" fill="#FFBE57" width="5.691" height="2.903"/>
	<rect x="192.434" y="141.195" fill="#FFBE57" width="5.691" height="2.903"/>
	<rect x="192.434" y="145.195" fill="#FFBE57" width="5.691" height="2.903"/>
	<rect x="192.434" y="149.195" fill="#FFBE57" width="5.691" height="2.903"/>
	<rect x="192.434" y="153.195" fill="#FFBE57" width="5.691" height="2.903"/>
	<rect x="192.434" y="157.195" fill="#FFBE57" width="5.691" height="2.903"/>
	<rect x="192.434" y="161.195" fill="#FFBE57" width="5.691" height="2.903"/>
	<rect x="192.434" y="165.195" fill="#FFBE57" width="5.691" height="2.903"/>
	<rect x="192.434" y="169.195" fill="#FFBE57" width="5.691" height="2.903"/>
	<rect x="192.434" y="173.195" fill="#FFBE57" width="5.691" height="2.903"/>
	<rect x="199.125" y="129.195" fill="#FFBE57" width="5.691" height="2.903"/>
	<rect x="199.125" y="133.195" fill="#FFBE57" width="5.691" height="2.903"/>
	<rect x="199.125" y="137.195" fill="#FFBE57" width="5.691" height="2.903"/>
	<rect x="199.125" y="141.195" fill="#FFBE57" width="5.691" height="2.903"/>
	<rect x="199.125" y="145.195" fill="#FFBE57" width="5.691" height="2.903"/>
	<rect x="199.125" y="149.195" fill="#FFBE57" width="5.691" height="2.903"/>
	<rect x="199.125" y="153.195" fill="#FFBE57" width="5.691" height="2.903"/>
	<rect x="199.125" y="157.195" fill="#FFBE57" width="5.691" height="2.903"/>
	<rect x="199.125" y="161.195" fill="#FFBE57" width="5.691" height="2.903"/>
	<rect x="199.125" y="165.195" fill="#FFBE57" width="5.691" height="2.903"/>
	<rect x="199.125" y="169.195" fill="#FFBE57" width="5.691" height="2.903"/>
	<rect x="199.125" y="173.195" fill="#FFBE57" width="5.691" height="2.903"/>
	<rect x="175.433" y="116.234" fill="#FFBE57" width="13.001" height="2.903"/>
	<rect x="175.433" y="120.234" fill="#FFBE57" width="13.001" height="2.903"/>
	<rect x="175.433" y="124.234" fill="#FFBE57" width="13.001" height="2.903"/>
	<rect x="175.433" y="128.234" fill="#FFBE57" width="13.001" height="2.903"/>
	<rect x="175.433" y="132.234" fill="#FFBE57" width="13.001" height="2.903"/>
	<rect x="175.433" y="136.234" fill="#FFBE57" width="13.001" height="2.903"/>
	<rect x="175.433" y="140.234" fill="#FFBE57" width="13.001" height="2.903"/>
	<rect x="175.433" y="144.234" fill="#FFBE57" width="13.001" height="2.903"/>
	<rect x="175.433" y="148.234" fill="#FFBE57" width="13.001" height="2.903"/>
	<rect x="175.433" y="152.234" fill="#FFBE57" width="13.001" height="2.903"/>
	<rect x="175.433" y="156.234" fill="#FFBE57" width="13.001" height="2.903"/>
	<rect x="175.433" y="160.234" fill="#FFBE57" width="13.001" height="2.903"/>
	<rect x="227.831" y="127.686" fill="#FFBE57" width="2.762" height="2.903"/>
	<rect x="227.831" y="131.686" fill="#FFBE57" width="2.762" height="2.903"/>
	<rect x="227.831" y="135.686" fill="#FFBE57" width="2.762" height="2.903"/>
	<rect x="227.831" y="139.686" fill="#FFBE57" width="2.762" height="2.903"/>
	<rect x="227.831" y="143.686" fill="#FFBE57" width="2.762" height="2.903"/>
	<rect x="227.831" y="147.686" fill="#FFBE57" width="2.762" height="2.903"/>
	<rect x="227.831" y="151.686" fill="#FFBE57" width="2.762" height="2.903"/>
	<rect x="227.831" y="155.686" fill="#FFBE57" width="2.762" height="2.903"/>
	<rect x="227.831" y="159.686" fill="#FFBE57" width="2.762" height="2.903"/>
	<rect x="227.831" y="163.686" fill="#FFBE57" width="2.762" height="2.903"/>
	<rect x="227.831" y="167.686" fill="#FFBE57" width="2.762" height="2.903"/>
	<rect x="227.831" y="171.686" fill="#FFBE57" width="2.762" height="2.903"/>
	<rect x="234.593" y="127.686" fill="#FFBE57" width="2.762" height="2.903"/>
	<rect x="234.593" y="131.686" fill="#FFBE57" width="2.762" height="2.903"/>
	<rect x="234.593" y="135.686" fill="#FFBE57" width="2.762" height="2.903"/>
	<rect x="234.593" y="139.686" fill="#FFBE57" width="2.762" height="2.903"/>
	<rect x="234.593" y="143.686" fill="#FFBE57" width="2.762" height="2.903"/>
	<rect x="234.593" y="147.686" fill="#FFBE57" width="2.762" height="2.903"/>
	<rect x="234.593" y="151.686" fill="#FFBE57" width="2.762" height="2.903"/>
	<rect x="234.593" y="155.686" fill="#FFBE57" width="2.762" height="2.903"/>
	<rect x="234.593" y="159.686" fill="#FFBE57" width="2.762" height="2.903"/>
	<rect x="234.593" y="163.686" fill="#FFBE57" width="2.762" height="2.903"/>
	<rect x="234.593" y="167.686" fill="#FFBE57" width="2.762" height="2.903"/>
	<rect x="234.593" y="171.686" fill="#FFBE57" width="2.762" height="2.903"/>
	<rect x="241.355" y="127.686" fill="#FFBE57" width="2.762" height="2.903"/>
	<rect x="241.355" y="131.686" fill="#FFBE57" width="2.762" height="2.903"/>
	<rect x="241.355" y="135.686" fill="#FFBE57" width="2.762" height="2.903"/>
	<rect x="241.355" y="139.686" fill="#FFBE57" width="2.762" height="2.903"/>
	<rect x="241.355" y="143.686" fill="#FFBE57" width="2.762" height="2.903"/>
	<rect x="241.355" y="147.686" fill="#FFBE57" width="2.762" height="2.903"/>
	<rect x="241.355" y="151.686" fill="#FFBE57" width="2.762" height="2.903"/>
	<rect x="241.355" y="155.686" fill="#FFBE57" width="2.762" height="2.903"/>
	<rect x="241.355" y="159.686" fill="#FFBE57" width="2.762" height="2.903"/>
	<rect x="241.355" y="163.686" fill="#FFBE57" width="2.762" height="2.903"/>
	<rect x="241.355" y="167.686" fill="#FFBE57" width="2.762" height="2.903"/>
	<rect x="241.355" y="171.686" fill="#FFBE57" width="2.762" height="2.903"/>
	<polygon fill="#111E17" points="192.938,180.001 189.193,175.721 196.559,174.046 193.585,167.103 201.108,167.786 
		200.425,160.263 207.368,163.237 209.043,155.871 214.728,160.846 218.597,154.358 222.466,160.846 228.151,155.871 
		229.826,163.237 236.769,160.263 236.086,167.786 243.609,167.103 240.635,174.046 248,175.721 244.256,180 	"/>
	<polygon fill="#20332A" points="234.168,167.144 229.193,172.829 236.559,174.504 234.204,180.002 282.99,180.002 280.635,174.504 
		288,172.829 283.026,167.144 289.514,163.275 283.026,159.406 288,153.721 280.635,152.046 283.609,145.103 276.086,145.786 
		276.769,138.263 269.826,141.237 268.151,133.871 262.466,138.846 258.597,132.358 254.728,138.846 249.043,133.871 
		247.368,141.237 240.425,138.263 241.108,145.786 233.585,145.103 236.559,152.046 229.193,153.721 234.168,159.406 
		227.68,163.275 	"/>
	<polygon fill="#20332A" points="157.393,167.267 152.26,173.132 159.86,174.86 157.67,179.972 207.524,179.972 205.334,174.86 
		212.934,173.132 207.801,167.267 214.495,163.275 207.801,159.283 212.934,153.418 205.334,151.69 208.403,144.526 
		200.641,145.231 201.346,137.469 194.182,140.538 192.454,132.938 186.589,138.071 182.597,131.377 178.605,138.071 
		172.74,132.938 171.012,140.538 163.848,137.469 164.553,145.231 156.791,144.526 159.86,151.69 152.26,153.418 157.393,159.283 
		150.699,163.275 	"/>
	<polygon fill="#111E17" points="279.333,0.001 277.254,4.853 286.793,7.022 280.351,14.384 288.752,19.394 280.351,24.404 
		286.793,31.766 277.254,33.935 281.106,42.927 271.364,42.042 272.249,51.784 263.257,47.932 261.088,57.47 253.727,51.028 
		248.716,59.43 243.706,51.028 236.344,57.47 234.175,47.932 225.184,51.784 226.068,42.042 216.326,42.927 220.178,33.935 
		210.64,31.766 217.082,24.404 208.68,19.394 217.082,14.384 210.64,7.022 220.178,4.853 218.1,0.002 	"/>
	<polygon fill="#111E17" points="260.093,0.001 260.752,0.394 252.351,5.404 258.793,12.766 249.254,14.935 253.106,23.927 
		243.364,23.042 244.249,32.784 235.257,28.932 233.088,38.47 225.727,32.028 220.716,40.43 215.706,32.028 208.344,38.47 
		206.175,28.932 197.184,32.784 198.068,23.042 188.326,23.927 192.178,14.935 182.64,12.766 189.082,5.404 180.68,0.394 181.341,0 
			"/>
	
		<linearGradient id="SVGID_6_" gradientUnits="userSpaceOnUse" x1="0" y1="180" x2="1" y2="180" gradientTransform="matrix(9.492381e-009 -211.4276 211.4276 9.492381e-009 -37881.9766 206.6081)">
		<stop  offset="0" style="stop-color:#C0937B"/>
		<stop  offset="0.0053" style="stop-color:#C0937B"/>
		<stop  offset="1" style="stop-color:#183840"/>
	</linearGradient>
	<path fill="url(#SVGID_6_)" d="M0,0l-0.002,180.002H173V53.844c0-25.132,21.171-45.578,47-45.578c25.83,0,47,20.447,47,45.578
		v126.157h83V0L0,0z"/>
	
		<linearGradient id="SVGID_7_" gradientUnits="userSpaceOnUse" x1="0" y1="180" x2="1" y2="180" gradientTransform="matrix(5.184179e-009 -115.4693 115.4693 5.184179e-009 -20563.9785 172.754)">
		<stop  offset="0" style="stop-color:#705D5C"/>
		<stop  offset="0.0053" style="stop-color:#705D5C"/>
		<stop  offset="1" style="stop-color:#1C2A25"/>
	</linearGradient>
	<rect x="218.5" y="8.137" fill="url(#SVGID_7_)" width="4" height="171.863"/>
	
		<linearGradient id="SVGID_8_" gradientUnits="userSpaceOnUse" x1="0" y1="180" x2="1" y2="180" gradientTransform="matrix(5.821773e-009 -129.6707 129.6707 5.821773e-009 -23120.2266 193)">
		<stop  offset="0" style="stop-color:#705D5C"/>
		<stop  offset="0.0053" style="stop-color:#705D5C"/>
		<stop  offset="1" style="stop-color:#1C2A25"/>
	</linearGradient>
	<rect x="174" y="46.662" fill="url(#SVGID_8_)" width="93" height="4"/>
	
		<linearGradient id="SVGID_9_" gradientUnits="userSpaceOnUse" x1="0" y1="180" x2="1" y2="180" gradientTransform="matrix(5.821773e-009 -129.6707 129.6707 5.821773e-009 -23120.2266 193)">
		<stop  offset="0" style="stop-color:#705D5C"/>
		<stop  offset="0.0053" style="stop-color:#705D5C"/>
		<stop  offset="1" style="stop-color:#1C2A25"/>
	</linearGradient>
	<rect x="174" y="96.662" fill="url(#SVGID_9_)" width="93" height="4"/>
	
		<linearGradient id="SVGID_10_" gradientUnits="userSpaceOnUse" x1="0" y1="180" x2="1" y2="180" gradientTransform="matrix(5.821773e-009 -129.6707 129.6707 5.821773e-009 -23120.2266 193)">
		<stop  offset="0" style="stop-color:#705D5C"/>
		<stop  offset="0.0053" style="stop-color:#705D5C"/>
		<stop  offset="1" style="stop-color:#1C2A25"/>
	</linearGradient>
	<rect x="174" y="146.662" fill="url(#SVGID_10_)" width="93" height="4"/>
	
		<linearGradient id="SVGID_11_" gradientUnits="userSpaceOnUse" x1="0" y1="180" x2="1" y2="180" gradientTransform="matrix(5.169554e-009 -115.1436 115.1436 5.169554e-009 -20505.3418 172.0082)">
		<stop  offset="0" style="stop-color:#705D5C"/>
		<stop  offset="0.0053" style="stop-color:#705D5C"/>
		<stop  offset="1" style="stop-color:#1C2A25"/>
	</linearGradient>
	<path fill="url(#SVGID_11_)" d="M177,180V54.059c0-23.988,19.564-43.434,43.5-43.434S264,30.071,264,54.059
		c0,3.265,0,88.762,0,125.941l5,0V54.06c0-26.707-21.845-48.435-48.5-48.435c-26.654,0-48.5,21.728-48.5,48.434V180H177z"/>
	<path fill="#E2DECF" d="M188.768,82.545c1.451,0,2.627,1.176,2.627,2.627c0-1.451,1.176-2.627,2.627-2.627
		c-1.451,0-2.627-1.176-2.627-2.627C191.395,81.369,190.219,82.545,188.768,82.545z"/>
	<path fill="#E2DECF" d="M255.97,89.057c1.451,0,2.627,1.176,2.627,2.627c0-1.451,1.176-2.627,2.627-2.627
		c-1.451,0-2.627-1.176-2.627-2.627C258.597,87.881,257.421,89.057,255.97,89.057z"/>
	<path fill="#E2DECF" d="M202.345,57.982c1.451,0,2.627,1.176,2.627,2.627c0-1.451,1.176-2.627,2.627-2.627
		c-1.451,0-2.627-1.176-2.627-2.627C204.971,56.806,203.795,57.982,202.345,57.982z"/>
	<path fill="#E2DECF" d="M227.056,69.57c1.953,0,3.537,1.584,3.537,3.537c0-1.953,1.584-3.537,3.537-3.537
		c-1.953,0-3.537-1.584-3.537-3.537C230.593,67.986,229.009,69.57,227.056,69.57z"/>
	<path fill="#E2DECF" d="M184.978,39c2.001,0,3.624,1.622,3.624,3.624c0-2.001,1.622-3.624,3.624-3.624
		c-2.001,0-3.624-1.622-3.624-3.624C188.602,37.378,186.98,39,184.978,39z"/>
	<path fill="#E2DECF" d="M230.593,110.45c2.065,0,3.738,1.674,3.738,3.738c0-2.065,1.674-3.738,3.738-3.738
		c-2.065,0-3.738-1.674-3.738-3.738C234.331,108.777,232.658,110.45,230.593,110.45z"/>
	<rect x="212.263" y="128.234" fill="#FFBE57" width="2.762" height="2.903"/>
	<rect x="208.807" y="139.137" fill="#FFBE57" width="2.762" height="2.903"/>
	<rect x="215.025" y="152.234" fill="#FFBE57" width="2.762" height="2.903"/>
	<rect x="249.514" y="125.331" fill="#FFBE57" width="2.762" height="2.903"/>
	<rect x="259.194" y="126.783" fill="#FFBE57" width="2.762" height="2.903"/>
	<rect x="201.97" y="118.783" fill="#FFBE57" width="2.762" height="2.903"/>
	<rect x="201.97" y="122.783" fill="#FFBE57" width="2.762" height="2.903"/>
	<rect y="0" fill="#191111" width="164.342" height="180.002"/>
	
		<linearGradient id="SVGID_12_" gradientUnits="userSpaceOnUse" x1="0" y1="180" x2="1" y2="180" gradientTransform="matrix(215.5006 0 0 215.5006 -43 -38700.1055)">
		<stop  offset="0" style="stop-color:#705D5C"/>
		<stop  offset="0.0053" style="stop-color:#705D5C"/>
		<stop  offset="1" style="stop-color:#1C2A25"/>
	</linearGradient>
	<rect x="69.575" y="0" fill="url(#SVGID_12_)" width="5.159" height="180.002"/>
	
		<linearGradient id="SVGID_13_" gradientUnits="userSpaceOnUse" x1="0" y1="180" x2="1" y2="180" gradientTransform="matrix(215.5006 0 0 215.5006 -43 -38747.5234)">
		<stop  offset="0" style="stop-color:#705D5C"/>
		<stop  offset="0.0053" style="stop-color:#705D5C"/>
		<stop  offset="1" style="stop-color:#1C2A25"/>
	</linearGradient>
	<rect x="-0.002" y="40" fill="url(#SVGID_13_)" width="168.996" height="5.159"/>
	
		<linearGradient id="SVGID_14_" gradientUnits="userSpaceOnUse" x1="0" y1="180" x2="1" y2="180" gradientTransform="matrix(215.5006 0 0 215.5006 -43 -38697.5234)">
		<stop  offset="0" style="stop-color:#705D5C"/>
		<stop  offset="0.0053" style="stop-color:#705D5C"/>
		<stop  offset="1" style="stop-color:#1C2A25"/>
	</linearGradient>
	<rect x="-0.002" y="90" fill="url(#SVGID_14_)" width="168.996" height="5.159"/>
	
		<linearGradient id="SVGID_15_" gradientUnits="userSpaceOnUse" x1="0" y1="180" x2="1" y2="180" gradientTransform="matrix(215.5006 0 0 215.5006 -43 -38647.5234)">
		<stop  offset="0" style="stop-color:#705D5C"/>
		<stop  offset="0.0053" style="stop-color:#705D5C"/>
		<stop  offset="1" style="stop-color:#1C2A25"/>
	</linearGradient>
	<rect x="-0.002" y="140" fill="url(#SVGID_15_)" width="168.996" height="5.159"/>
	
		<linearGradient id="SVGID_16_" gradientUnits="userSpaceOnUse" x1="0" y1="180" x2="1" y2="180" gradientTransform="matrix(215.5006 0 0 215.5006 -43 -38700.1172)">
		<stop  offset="0" style="stop-color:#705D5C"/>
		<stop  offset="0.0053" style="stop-color:#705D5C"/>
		<stop  offset="1" style="stop-color:#1C2A25"/>
	</linearGradient>
	<rect x="163.835" y="0" fill="url(#SVGID_16_)" width="5.159" height="179.973"/>
	<rect y="100.909" fill="#1B2B2B" width="7.55" height="38.5"/>
	<rect x="8.55" y="103.326" fill="#283C3D" width="8.5" height="36.083"/>
	<rect x="18.05" y="99.242" fill="#283C3D" width="11.167" height="40.167"/>
	
		<rect x="37.721" y="101.984" transform="matrix(0.9132 -0.4074 0.4074 0.9132 -45.7201 27.0964)" fill="#3C4724" width="6.083" height="37.831"/>
	<rect x="52.383" y="99.076" fill="#444F24" width="5.083" height="40.333"/>
	<rect x="58.467" y="100.909" fill="#485429" width="8.167" height="38.5"/>
	<rect x="90.877" y="154.188" fill="#283C3D" width="10" height="25.812"/>
	<rect x="101.877" y="155.808" fill="#1B2B2B" width="8.5" height="24.192"/>
	<rect x="111.377" y="153.071" fill="#283C3D" width="11.167" height="26.93"/>
	<rect x="123.543" y="154.635" fill="#283C3D" width="6.083" height="25.365"/>
	<rect x="130.627" y="157.154" fill="#1B2B2B" width="8.001" height="22.848"/>
	<rect x="82.793" y="153.797" fill="#1B2B2B" width="7.083" height="26.203"/>
	<rect x="75.734" y="153.797" fill="#1B2B2B" width="6.083" height="26.203"/>
	<rect x="139.71" y="152.904" fill="#1B2B2B" width="9.25" height="27.098"/>
	<rect x="149.96" y="154.737" fill="#1B2B2B" width="6" height="25.265"/>
	<rect x="156.96" y="154.737" fill="#283C3D" width="5.875" height="25.265"/>
	
		<rect x="74.964" y="49.13" transform="matrix(-0.9999 0.0106 -0.0106 -0.9999 161.7933 137.5672)" fill="#1B2B2B" width="11.137" height="40.165"/>
	
		<rect x="87.109" y="51.361" transform="matrix(-0.9999 0.0106 -0.0106 -0.9999 181.0251 139.5933)" fill="#283C3D" width="6.067" height="37.831"/>
	
		<rect x="94.166" y="50.026" transform="matrix(-0.9999 0.0106 -0.0106 -0.9999 197.1254 138.0879)" fill="#283C3D" width="8.062" height="39.081"/>
	
		<rect x="103.218" y="48.674" transform="matrix(-0.9999 0.0106 -0.0106 -0.9999 216.3833 136.5319)" fill="#1B2B2B" width="9.225" height="40.331"/>
	
		<rect x="113.449" y="50.395" transform="matrix(-0.9999 0.0106 -0.0106 -0.9999 237.6024 138.0284)" fill="#283C3D" width="9.973" height="38.498"/>
	
		<rect x="124.4" y="46.805" transform="matrix(-0.9999 0.0106 -0.0106 -0.9999 262.2879 134.1757)" fill="#1B2B2B" width="12.777" height="41.956"/>
	<polygon fill="#1B2B2B" points="144.814,88.618 138.889,85.912 155.727,48.848 161.652,51.554 	"/>
	<rect x="16.568" y="11.811" fill="#1B2B2B" width="40.167" height="11.167"/>
	<rect x="14.075" y="23.978" fill="#283C3D" width="41.792" height="6.083"/>
	<rect x="16.026" y="31.061" fill="#283C3D" width="39.083" height="8.083"/>
	<rect x="15.721" y="1.978" fill="#283C3D" width="37.416" height="8.833"/>
	<rect x="75.734" y="4.559" fill="#1B2B2B" width="6.083" height="34.441"/>
	<rect x="60.536" y="3.421" fill="#1B2B2B" width="8.038" height="35.579"/>
	<rect x="82.818" y="3.421" fill="#283C3D" width="8.083" height="35.579"/>
	<rect x="140.484" y="2.283" fill="#283C3D" width="9.25" height="36.717"/>
	<rect x="150.734" y="6.283" fill="#1B2B2B" width="12.184" height="32.717"/>
	<rect x="91.901" y="2.283" fill="#1B2B2B" width="9.25" height="36.717"/>
	<rect y="152.103" fill="#1B2B2B" width="7.741" height="27.899"/>
	<rect x="29.992" y="151.33" fill="#283C3D" width="11.167" height="28.672"/>
	<rect x="42.158" y="150.169" fill="#283C3D" width="6.083" height="29.832"/>
	<rect x="49.242" y="152.103" fill="#1B2B2B" width="8.083" height="27.899"/>
	<rect x="58.325" y="151.21" fill="#283C3D" width="10.25" height="28.791"/>
	<rect x="18.992" y="152.519" fill="#1B2B2B" width="10" height="27.483"/>
	<rect x="8.742" y="151.21" fill="#283C3D" width="9.25" height="28.791"/>
	<rect x="155.752" y="104.559" fill="#283C3D" width="7.083" height="34.441"/>
	<rect x="146.668" y="103.421" fill="#1B2B2B" width="8.083" height="35.579"/>
	<rect x="113.252" y="102.435" fill="#283C3D" width="11.167" height="36.565"/>
	<rect x="106.168" y="100.956" fill="#1B2B2B" width="6.083" height="38.044"/>
	<rect x="97.085" y="103.421" fill="#1B2B2B" width="8.083" height="35.579"/>
	<rect x="75.752" y="103.421" fill="#1B2B2B" width="8.218" height="35.579"/>
	<rect x="85.087" y="102.283" fill="#1B2B2B" width="10.998" height="36.717"/>
	<rect x="125.418" y="103.952" fill="#1B2B2B" width="10" height="35.048"/>
	<rect x="136.418" y="102.283" fill="#283C3D" width="9.25" height="36.717"/>
	<rect y="47.208" fill="#283C3D" width="7.694" height="41.792"/>
	<rect x="28.217" y="47.208" fill="#1B2B2B" width="6.083" height="41.792"/>
	<rect x="6.679" y="5.582" fill="#1B2B2B" width="6.083" height="33.564"/>
	<rect y="2.686" fill="#283C3D" width="5.679" height="36.46"/>
	<rect x="8.695" y="49.917" fill="#1B2B2B" width="8.083" height="39.083"/>
	<rect x="35.317" y="49.917" fill="#1B2B2B" width="8.083" height="39.083"/>
	<rect x="44.4" y="49.917" fill="#283C3D" width="6.184" height="39.083"/>
	<rect x="60.667" y="48.878" fill="#1B2B2B" width="8.083" height="40.122"/>
	<rect x="51.584" y="49.917" fill="#1B2B2B" width="8.083" height="39.083"/>
	<rect x="17.778" y="48.667" fill="#283C3D" width="9.25" height="40.333"/>
	<path fill="#1B2B2B" d="M135.742,18.41c0-8.012-5.715-14.712-13.282-16.245l-0.884-0.125l-0.446,2.549
		c-0.643-0.091-1.295-0.153-1.964-0.153c-7.717,0-13.974,6.256-13.974,13.974c0,6.742,4.775,12.368,11.129,13.682l-0.422,2.413
		l0.856,0.285c0.57,0.084,1.15,0.174,1.735,0.203L114.522,39h9.291l-3.974-4.011C128.666,34.632,135.742,27.322,135.742,18.41z
		 M119.167,34.093c-0.769,0-1.518-0.074-2.257-0.182l0.294-1.682c0.643,0.091,1.295,0.153,1.964,0.153
		c7.717,0,13.974-6.256,13.974-13.974c0-6.742-4.775-12.368-11.128-13.682l0.294-1.685c7.148,1.458,12.543,7.794,12.543,15.367
		C134.85,27.058,127.815,34.093,119.167,34.093z"/>
	<rect x="277.055" fill="#191111" width="72.945" height="180.002"/>
	
		<linearGradient id="SVGID_17_" gradientUnits="userSpaceOnUse" x1="0" y1="180" x2="1" y2="180" gradientTransform="matrix(198.5025 0 0 -198.5025 117.694 35773.0313)">
		<stop  offset="0" style="stop-color:#705D5C"/>
		<stop  offset="0.0053" style="stop-color:#705D5C"/>
		<stop  offset="1" style="stop-color:#1C2A25"/>
	</linearGradient>
	<rect x="272" y="40" fill="url(#SVGID_17_)" width="78" height="5.159"/>
	
		<linearGradient id="SVGID_18_" gradientUnits="userSpaceOnUse" x1="0" y1="180" x2="1" y2="180" gradientTransform="matrix(198.5025 0 0 -198.5025 117.694 35823.0313)">
		<stop  offset="0" style="stop-color:#705D5C"/>
		<stop  offset="0.0053" style="stop-color:#705D5C"/>
		<stop  offset="1" style="stop-color:#1C2A25"/>
	</linearGradient>
	<rect x="272" y="90" fill="url(#SVGID_18_)" width="78" height="5.159"/>
	
		<linearGradient id="SVGID_19_" gradientUnits="userSpaceOnUse" x1="0" y1="180" x2="1" y2="180" gradientTransform="matrix(198.5025 0 0 -198.5025 117.694 35873.0313)">
		<stop  offset="0" style="stop-color:#705D5C"/>
		<stop  offset="0.0053" style="stop-color:#705D5C"/>
		<stop  offset="1" style="stop-color:#1C2A25"/>
	</linearGradient>
	<rect x="272" y="140" fill="url(#SVGID_19_)" width="78" height="5.159"/>
	
		<linearGradient id="SVGID_20_" gradientUnits="userSpaceOnUse" x1="0" y1="180" x2="1" y2="180" gradientTransform="matrix(198.5025 0 0 -198.5025 117.694 35820.4531)">
		<stop  offset="0" style="stop-color:#705D5C"/>
		<stop  offset="0.0053" style="stop-color:#705D5C"/>
		<stop  offset="1" style="stop-color:#1C2A25"/>
	</linearGradient>
	<rect x="272" y="0" fill="url(#SVGID_20_)" width="5.159" height="180.002"/>
	<polygon fill="#283C3D" points="350,132.867 350,137.249 346.076,139 330.662,104.451 336.217,101.973 	"/>
	<polygon fill="#1B2B2B" points="350,129.065 338.67,103.671 346.959,99.973 350.002,106.796 	"/>
	<rect x="324.562" y="98.667" fill="#283C3D" width="5.083" height="40.333"/>
	<rect x="315.395" y="100.5" fill="#1B2B2B" width="8.167" height="38.5"/>
	<rect x="287.659" y="149.667" fill="#283C3D" width="10" height="30.333"/>
	<rect x="278.159" y="152.647" fill="#1B2B2B" width="8.5" height="27.355"/>
	<rect x="298.659" y="152.647" fill="#1B2B2B" width="7.083" height="27.355"/>
	<rect x="306.718" y="152.647" fill="#1B2B2B" width="6.083" height="27.353"/>
	<rect x="325.294" y="15.478" fill="#1B2B2B" width="24.706" height="7.5"/>
	<rect x="326.162" y="23.978" fill="#283C3D" width="23.838" height="6.083"/>
	<rect x="326.919" y="31.061" fill="#283C3D" width="23.081" height="8.083"/>
	<rect x="326.892" y="5.645" fill="#283C3D" width="23.108" height="8.833"/>
	<rect x="329.004" y="0" fill="#1B2B2B" width="20.996" height="4.586"/>
	<rect x="301.211" y="4.559" fill="#1B2B2B" width="6.083" height="34.441"/>
	<rect x="308.294" y="2.409" fill="#283C3D" width="8.088" height="36.591"/>
	<rect x="317.382" y="7.602" fill="#283C3D" width="6.174" height="31.398"/>
	<rect x="292.127" y="3.421" fill="#283C3D" width="8.083" height="35.579"/>
	<rect x="281.877" y="2.283" fill="#1B2B2B" width="9.25" height="36.717"/>
	<rect x="341.218" y="150.141" fill="#283C3D" width="8.782" height="29.831"/>
	<rect x="334.135" y="148.662" fill="#283C3D" width="6.083" height="31.34"/>
	<rect x="325.052" y="151.128" fill="#1B2B2B" width="8.083" height="28.874"/>
	<rect x="313.802" y="149.99" fill="#283C3D" width="10.25" height="30.01"/>
	<rect x="307.277" y="100.956" fill="#283C3D" width="7.118" height="38.044"/>
	<rect x="278.159" y="103.421" fill="#1B2B2B" width="6.784" height="35.579"/>
	<rect x="298.059" y="103.421" fill="#1B2B2B" width="8.218" height="35.579"/>
	<rect x="285.944" y="102.283" fill="#283C3D" width="10.998" height="36.717"/>
	<rect x="339.17" y="48.833" fill="#1B2B2B" width="10.83" height="40.167"/>
	<rect x="332.087" y="47.208" fill="#283C3D" width="6.083" height="41.792"/>
	<rect x="305.67" y="47.208" fill="#1B2B2B" width="6.083" height="41.792"/>
	<rect x="323.003" y="49.917" fill="#1B2B2B" width="8.083" height="39.083"/>
	<rect x="296.587" y="49.917" fill="#1B2B2B" width="8.083" height="39.083"/>
	<rect x="278.159" y="48.878" fill="#1B2B2B" width="8.083" height="40.122"/>
	<rect x="287.243" y="49.917" fill="#283C3D" width="8.083" height="39.083"/>
	<rect x="312.753" y="48.667" fill="#283C3D" width="9.25" height="40.333"/>
	<path fill="#A8644F" d="M92.941,69.431c0.78-1.436,0.163-2.79-0.878-3.517c-0.01-0.65-0.114-1.257-0.358-1.769
		c-1.104-2.319-6.01-2.018-8.101-2.402c-5.294-0.972-9.596-3.814-15.217-2.178c-4.059,1.182-7.594,4.911-7.413,9.134
		c0.109,2.545,1.715,4.856,3.892,6.151c-0.537,2.983-1.44,5.889-2.592,8.692c-0.178,0.432-0.227,0.826-0.195,1.184
		c-1.464,2.638-3.35,5.006-5.627,7.096c-0.739,0.678-1.041,2.058-1.311,2.996c-0.276,0.956-0.229,1.855,0.804,2.249
		c0.74,0.282,1.468,0.322,2.178-0.043c0.358-0.184,0.688-0.426,1.03-0.637c0.303-0.187,0.987-0.784,1.277-0.784
		c0.133,0,0.455,0.265,0.6,0.322c0.237,0.092,0.487,0.153,0.74,0.179c0.49,0.05,0.988-0.033,1.431-0.251
		c1.66,0.616,3.336,1.025,5.049,1.284c2.354,0.357,9.523,7.708,11.159,3.694c0.325-0.799,0.143-1.672-0.106-2.464
		c-0.254-0.81-0.492-1.675-0.816-2.458c-0.216-0.523-0.554-0.949-0.66-1.517c-0.16-0.862-0.103-1.814,0.05-2.672
		c0.185-1.04-0.03-2.202-0.179-3.247c-0.334-2.338-1.735-4.784-1.11-7.21c0.044-0.171,0.088-0.343,0.132-0.514
		c0.032-0.125,0.043-0.246,0.056-0.368c0.808-1.453,1.526-2.96,2.15-4.536c1.217,0.696,2.256,1.694,2.927,2.928
		c0.529,0.972,0.855,2.069,1.566,2.917s2.013,1.368,2.934,0.755c0.738-0.492,0.595-1.567,1.223-2.08
		c0.697-0.568,2.081-0.843,2.957-0.686c0.368,0.066,0.631,0.265,0.993,0.056c0.447-0.259,0.527-0.832,0.411-1.292
		c-0.083-0.331-0.253-0.633-0.421-0.93c-0.529-0.939-1.018-1.924-1.611-2.823c-0.497-0.754,0.037-1.262,0.645-1.745
		c0.314-0.249,0.534-0.61,0.772-0.942C91.914,71.179,92.458,70.322,92.941,69.431z"/>
	
		<linearGradient id="SVGID_21_" gradientUnits="userSpaceOnUse" x1="0" y1="180" x2="1" y2="180" gradientTransform="matrix(17.2594 -51.1616 51.1616 17.2594 -9078.1006 -2928.8752)">
		<stop  offset="0" style="stop-color:#AD745F"/>
		<stop  offset="0.5668" style="stop-color:#475B60"/>
		<stop  offset="1" style="stop-color:#475B60"/>
	</linearGradient>
	<path fill="url(#SVGID_21_)" d="M182.686,180c-1.085-2.703-1.704-5.606-2.54-8.48c-1.314-4.514-2.143-10.327-4.549-14.378
		c-2.354-4.237-5.358-8.75-9.36-11.588c-2.135-1.514-4.393-2.082-6.95-2.4c-3.695-0.459-7.399-0.853-11.103-1.232
		c-7.294-0.745-14.6-1.365-21.91-1.931c-3.7-0.287-7.402-0.56-11.103-0.828c-1.614-0.117-3.293-0.385-4.907-0.241
		c-1.098,0.098-2.472-0.16-3.503,0.146c-2.509,0.745-2.795,5.11-2.362,7.132c-3.568,2.539-7.382,4.734-11.369,6.545
		c-3.072,1.396-6.391,2.137-7.852,5.526c-2.363,5.479,2.342,11.444,7.576,12.791c8.354,2.15,17.466,3.356,26.028,4.154
		c6.919,0.645,13.948,0.063,20.666-1.71c2.53-0.668,5.519-2.726,7.996-1.583c2.254,1.04,3.192,4.577,4.073,6.625
		c0.204,0.474,0.396,0.959,0.579,1.454L182.686,180z"/>
	
		<linearGradient id="SVGID_22_" gradientUnits="userSpaceOnUse" x1="0" y1="180" x2="1" y2="180" gradientTransform="matrix(37.5 -11.6666 11.6666 37.5 -1951.85 -6621.5352)">
		<stop  offset="0" style="stop-color:#619494"/>
		<stop  offset="1" style="stop-color:#253328"/>
	</linearGradient>
	<polygon fill="url(#SVGID_22_)" points="165.848,127.937 159.26,110.255 126.895,132.299 134.378,147.495 	"/>
	<polygon fill="#7A7C71" points="157.131,108.559 154.613,110.274 152.57,107.062 120.205,129.106 134.893,146.277 165.848,127.937 
			"/>
	
		<linearGradient id="SVGID_23_" gradientUnits="userSpaceOnUse" x1="0" y1="180" x2="1" y2="180" gradientTransform="matrix(-32.8334 -36.8333 36.8333 -32.8334 -6471.7129 6056.1357)">
		<stop  offset="0" style="stop-color:#DEBAA4"/>
		<stop  offset="0.5134" style="stop-color:#476C6A"/>
		<stop  offset="1" style="stop-color:#161F18"/>
	</linearGradient>
	<polygon fill="url(#SVGID_23_)" points="165.848,127.937 151.417,106.75 119.053,128.794 133.483,149.981 	"/>
	<path fill="#A8644F" d="M99.532,129.576c1.833-1.036,3.724-1.969,5.662-2.793c1.937-0.824,3.921-1.541,5.937-2.146
		c2.017-0.605,4.067-1.099,6.138-1.478c1.125-0.206,2.256-0.378,3.391-0.516c1.067-0.13,2.137-0.154,3.199-0.283
		c0.615-0.075,1.231-0.15,1.846-0.224c0.312-0.038,0.627-0.092,0.941-0.114c0.259-0.018,0.51-0.113,0.773-0.105
		c0.222,0.007,0.452,0.094,0.579,0.277c0.872,1.251-0.864,1.687,0.865,2.434c1.566,0.677,3.431,0.976,5.073,1.443
		c1.059,0.301,2.262,0.731,2.639,1.766c0.97,2.668-3.343,4.939-5.121,6.045c-2.683,1.669-5.693,2.861-8.832,1.75
		c-2.478-0.877-4.261-3.144-7.012-3.314c-2.719-0.168-14.308,3.845-13.833-1.854"/>
	
		<linearGradient id="SVGID_24_" gradientUnits="userSpaceOnUse" x1="0" y1="180" x2="1" y2="180" gradientTransform="matrix(22 -36 36 22 -6411.2471 -3817.5403)">
		<stop  offset="0" style="stop-color:#A03030"/>
		<stop  offset="1" style="stop-color:#463345"/>
	</linearGradient>
	<path fill="url(#SVGID_24_)" d="M61.058,138.704c-0.831-1.359-1.624-2.743-2.408-4.125c-1.938-3.415-3.875-6.836-5.53-10.4
		c-2.414-5.197-4.412-10.915-4.1-16.726c0.152-2.836,0.906-5.617,2.282-8.107c0.401-0.726,0.906-1.466,1.212-2.236
		c0.201-0.507,0.098-1.005,0.193-1.526c0.247-1.357,1.44-2.439,2.577-3.101c2.03-1.181,4.496-1.567,6.792-1.079
		c1.124,0.239,2.292,0.255,3.422,0.558c1.139,0.306,2.242,0.759,3.255,1.363c2.926,1.747,9.538,8.381,9.005,0.711
		c4.445,0.859,7.142,4.681,9.232,8.368c1.903,3.357,3.559,9.635,7.851,10.518c1.536,0.316,3.48,0.142,4.282,1.489
		c0.386,0.649,0.347,1.453,0.445,2.202c0.378,2.88,2.498,3.771,4.766,4.852c2.753,1.312,4.709,4.305,6.686,6.56
		c1.531,1.747,3.897,3.454,4.987,5.521c3.029,5.747-3.715,7.955-7.327,10.252c-6.707,4.265-13.414,8.531-20.121,12.796
		c-0.851,0.541-1.77,1.102-2.778,1.071c-1.878-0.058-3.01-2.008-4.061-3.566c-2.094-3.105-4.328-1.548-7.14-2.252
		c-2.807-0.703-5.809-3.381-7.756-5.404C64.586,144.119,62.744,141.464,61.058,138.704z"/>
	
		<linearGradient id="SVGID_25_" gradientUnits="userSpaceOnUse" x1="0" y1="180" x2="1" y2="180" gradientTransform="matrix(0.8078 31.5022 -31.5022 0.8078 5748.29 -94.0338)">
		<stop  offset="0" style="stop-color:#331F15"/>
		<stop  offset="1" style="stop-color:#8B4539"/>
	</linearGradient>
	<path fill="url(#SVGID_25_)" d="M96.147,64.167c0.86-1.128,1.007-2.63-0.077-3.714c-0.321-0.321-0.748-0.546-1.208-0.67
		c0.648-1.904-1.103-4.285-3.195-3.582c-3.779-2.638-6.607-4.911-11.489-5.679c-3.132-0.492-6.367-0.375-9.448,0.383
		c-1.371,0.338-2.874,0.715-4,1.569c-0.266,0.202-1.811,2.352-1.88,2.33c-5.026-1.612-6.936,6.357-6.334,9.855
		c0.521,3.029,0.793,6.386,2.724,8.919c0.383,0.502,0.827,0.972,1.068,1.556s0.222,1.335-0.244,1.76
		c-0.556,0.508-1.486,0.355-2.081,0.817c-0.802,0.623-0.446,2.03,0.423,2.556s1.971,0.414,2.965,0.206
		c0.995-0.208,1.993-0.444,2.987-0.617c0.945,2.398,1.928,4.357,3.614,6.403c1.427,1.732,2.899,3.502,4.85,4.61
		c1.931,1.098,4.184,1.462,6.389,1.729c1.49,0.18,3.011,0.324,4.483,0.03c1.79-0.357,2.355-1.447,3.71-2.36
		c1.02-0.687,2.281-0.821,2.962-1.946c0.62-1.024,0.664-2.344,0.338-3.473c-0.477-1.654-1.764-3.926-3.401-4.642
		c-1.343-0.587-2.412-0.099-3.767,0.267c-0.151,0.041-0.303,0.082-0.459,0.095c-0.789,0.067-1.46-0.576-1.873-1.251
		c-0.472-0.77-0.805-1.638-1.564-2.184c-0.535-0.385-0.914-1.227-1.442-1.686c-0.579-0.504-1.242-0.909-1.964-1.174
		c-0.376-0.138-0.766-0.238-1.161-0.301c-0.28-0.045-1.074,0.061-1.28-0.077c-0.72-0.481,0.078-1.852,0.5-2.272
		c-0.082,0.082-0.935-2.163-0.975-2.382c-0.164-0.897-0.141-1.745,0.224-2.586c0.703-1.62,2.374-2.772,4.138-2.855
		c0.646-0.03,1.288,0.072,1.925,0.186c2.437,0.652,4.469,2.993,6.475,4.363c2.38,1.626,5.459,2.151,8.167,1.16
		C99.003,68.499,98.4,64.59,96.147,64.167z M70.139,74.06h-0.185c-0.438-0.075-0.769-0.87-1.024-1.188
		c-0.434-0.541-0.944-1.032-1.422-1.534c-0.752-0.79-1.803-1.624-2.295-2.618c-0.537-1.086-0.735-2.405-0.236-3.509
		c0.954-2.109,3.261-1.809,4.497-0.195c1.357,1.773,1.981,4.203,1.74,6.414C71.147,72.037,70.909,73.922,70.139,74.06z"/>
	<path fill="#3F1E1E" d="M69.11,151.523c5.955,6.017,13.782,1.805,19.385-2.373c4.412-3.289,8.917-5.873,14.169-7.613
		c3.102-1.028,5.827-2.055,6.446-5.574c0.973-5.534-5.399-11.547-10.652-10.214c-2.112,0.536-3.959,2.488-6.008,3.288
		c-2.341,0.913-4.665-1.974-6.81-2.625c-2.616-0.793-3.215,3.566-5.176,3.999c0.461,0.461,0.923,0.923,1.384,1.384
		c0.842-3.687-1.05-10.705-6.099-7.17c0.564,0.324,1.129,0.648,1.693,0.971c0.301-8.45-3.489-15.973-10.348-20.881
		c-1.183-0.846-2.304,1.106-1.136,1.943c6.217,4.449,9.505,11.321,9.233,18.938c-0.029,0.81,0.994,1.46,1.693,0.971
		c2.956,0.726,3.887,2.27,2.794,4.629c-0.196,0.859,0.53,1.572,1.384,1.384c0.922-0.203,1.555-0.429,2.14-1.25
		c1.892-2.656,2.878-1.959,5.149-0.331c5.406,3.875,9.839-6.718,15.786-1.479c2.539,2.237,4.193,7.499-0.751,9.423
		c-1.441,0.561-2.953,0.968-4.404,1.512c-2.647,0.992-5.132,2.364-7.534,3.838c-5.765,3.538-13.983,12.472-20.747,5.638
		C69.679,148.899,68.088,150.491,69.11,151.523z"/>
	
		<linearGradient id="SVGID_26_" gradientUnits="userSpaceOnUse" x1="0" y1="180" x2="1" y2="180" gradientTransform="matrix(2.915666e-009 64.9418 -64.9418 2.915666e-009 11763.5713 106.7202)">
		<stop  offset="0" style="stop-color:#331F15"/>
		<stop  offset="1" style="stop-color:#8B4539"/>
	</linearGradient>
	<path fill="url(#SVGID_26_)" d="M53.619,114.614c-5.415-9.587-10.959-22.993-22.073-27.062c-5.369-1.965-14.532-1.542-18.205,3.684
		c-3.731,5.308-1.367,15.305,0.838,20.862c3.368,8.491,9.504,15.671,13.672,23.804c7.15,13.952,11.411,28.69,13.782,44.099
		L136.705,180c-0.139-4.52-0.524-9.032-1.152-13.511c-0.764-5.444-2.571-13.12-8.692-14.912c-4.544-1.331-11.389-0.774-16.063-0.761
		c-6.407,0.018-12.89-0.614-19.289-0.266c-5.573,0.302-11.283,1.938-16.548-0.87c-4.321-2.304-6.846-6.92-8.759-11.428
		C62.702,130.007,58.028,122.421,53.619,114.614z"/>
	
		<linearGradient id="SVGID_27_" gradientUnits="userSpaceOnUse" x1="0" y1="180" x2="1" y2="180" gradientTransform="matrix(-3.5102 -3.4526 3.4526 -3.5102 -532.9976 704.2582)">
		<stop  offset="0" style="stop-color:#331F15"/>
		<stop  offset="1" style="stop-color:#6A3227"/>
	</linearGradient>
	<path fill="url(#SVGID_27_)" d="M84.26,70.221c1.644-0.051,3.298,0.245,4.822,0.863"/>
	
		<linearGradient id="SVGID_28_" gradientUnits="userSpaceOnUse" x1="0" y1="180" x2="1" y2="180" gradientTransform="matrix(-4.2407 -10.9046 10.9046 -4.2407 -1874.7661 837.5244)">
		<stop  offset="0" style="stop-color:#331F15"/>
		<stop  offset="1" style="stop-color:#6A3227"/>
	</linearGradient>
	<path fill="url(#SVGID_28_)" d="M84.26,72.039c1.52-0.024,2.922,0.248,4.338,0.799c0.925,0.359,1.993-0.388,2.236-1.269
		c0.283-1.029-0.347-1.877-1.269-2.236c-1.691-0.657-3.492-0.957-5.305-0.928C81.919,68.441,81.915,72.076,84.26,72.039z"/>
	<path fill="#3F1E1E" d="M103.871,128.156c2.006-2.696,5.606-0.875,7.179,1.211c0.842,1.116,1.748,2.796,1.119,4.209
		c-0.732,1.646-3.086,2.123-4.619,2.544c-1.397,0.383-0.803,2.554,0.598,2.17c2.384-0.654,4.55-1.442,5.963-3.578
		c1.353-2.045,0.044-4.709-1.119-6.48c-2.475-3.769-8.107-5.185-11.065-1.211C101.061,128.186,103.016,129.305,103.871,128.156z"/>
	<path fill="#3F1E1E" d="M74.821,104.492c1.011,3.677,1.62,7.178-1.087,10.278c-0.95,1.088,0.635,2.686,1.591,1.591
		c3.284-3.762,2.917-7.916,1.665-12.468C76.606,102.497,74.435,103.091,74.821,104.492z"/>
</g>
</svg>
