<svg xmlns="http://www.w3.org/2000/svg" xmlns:xlink="http://www.w3.org/1999/xlink" viewBox="0 0 350 180"><defs><path id="a" d="M-.002.15h349.77v179.822H0z"/></defs><clipPath id="b"><use xlink:href="#a" overflow="visible"/></clipPath><g clip-path="url(#b)"><defs><path id="c" d="M-.002.15h349.77v179.823H0z"/></defs><clipPath id="d"><use xlink:href="#c" overflow="visible"/></clipPath><g clip-path="url(#d)"><image overflow="visible" width="992" height="510" xlink:href="460EAAD5.jpg" transform="translate(-.002 .15) scale(.3526)"/></g></g><linearGradient id="e" gradientUnits="userSpaceOnUse" y1="180" x2="1" y2="180" gradientTransform="rotate(90 9557.795 9602.873) scale(105.476)"><stop offset="0" stop-color="#0C4451"/><stop offset="1" stop-color="#83B3A6"/></linearGradient><path fill="url(#e)" d="M350 0v180H0V.14"/><path fill="#142730" d="M171.31 111.214c2.127-.37 4.303-.544 6.458-.647 12.105-.574 24.308.974 35.886 4.554 7.457 2.306 14.675 5.45 22.317 7.04 19.443 4.043 31.58-15.033 51.2-9.254 11.273 3.32 17.71 43.243 20.572 67.094H143.805l3.715-16.98c2.92-13.34 3.3-43.232 17.205-49.808 2.087-.987 4.308-1.604 6.584-1.998z"/><path fill="#FFBE57" d="M192.434 129.195h5.69v2.903h-5.69zM192.434 133.195h5.69v2.903h-5.69zM192.434 137.195h5.69v2.903h-5.69zM192.434 141.195h5.69v2.903h-5.69zM192.434 145.195h5.69v2.903h-5.69zM192.434 149.195h5.69v2.903h-5.69zM192.434 153.195h5.69v2.903h-5.69zM192.434 157.195h5.69v2.903h-5.69zM192.434 161.195h5.69v2.903h-5.69zM192.434 165.195h5.69v2.903h-5.69zM192.434 169.195h5.69v2.903h-5.69zM192.434 173.195h5.69v2.903h-5.69zM199.125 129.195h5.69v2.903h-5.69zM199.125 133.195h5.69v2.903h-5.69zM199.125 137.195h5.69v2.903h-5.69zM199.125 141.195h5.69v2.903h-5.69zM199.125 145.195h5.69v2.903h-5.69zM199.125 149.195h5.69v2.903h-5.69zM199.125 153.195h5.69v2.903h-5.69zM199.125 157.195h5.69v2.903h-5.69zM199.125 161.195h5.69v2.903h-5.69zM199.125 165.195h5.69v2.903h-5.69zM199.125 169.195h5.69v2.903h-5.69zM199.125 173.195h5.69v2.903h-5.69zM175.433 116.234h13v2.903h-13zM175.433 120.234h13v2.903h-13zM175.433 124.234h13v2.903h-13zM175.433 128.234h13v2.903h-13zM175.433 132.234h13v2.903h-13zM175.433 136.234h13v2.903h-13zM175.433 140.234h13v2.903h-13zM175.433 144.234h13v2.903h-13zM175.433 148.234h13v2.903h-13zM175.433 152.234h13v2.903h-13zM175.433 156.234h13v2.903h-13zM175.433 160.234h13v2.903h-13zM227.83 127.686h2.763v2.903h-2.762zM227.83 131.686h2.763v2.903h-2.762zM227.83 135.686h2.763v2.903h-2.762zM227.83 139.686h2.763v2.903h-2.762zM227.83 143.686h2.763v2.903h-2.762zM227.83 147.686h2.763v2.903h-2.762zM227.83 151.686h2.763v2.903h-2.762zM227.83 155.686h2.763v2.903h-2.762zM227.83 159.686h2.763v2.903h-2.762zM227.83 163.686h2.763v2.903h-2.762zM227.83 167.686h2.763v2.903h-2.762zM227.83 171.686h2.763v2.903h-2.762zM234.593 127.686h2.762v2.903h-2.762zM234.593 131.686h2.762v2.903h-2.762zM234.593 135.686h2.762v2.903h-2.762zM234.593 139.686h2.762v2.903h-2.762zM234.593 143.686h2.762v2.903h-2.762zM234.593 147.686h2.762v2.903h-2.762zM234.593 151.686h2.762v2.903h-2.762zM234.593 155.686h2.762v2.903h-2.762zM234.593 159.686h2.762v2.903h-2.762zM234.593 163.686h2.762v2.903h-2.762zM234.593 167.686h2.762v2.903h-2.762zM234.593 171.686h2.762v2.903h-2.762zM241.355 127.686h2.762v2.903h-2.762zM241.355 131.686h2.762v2.903h-2.762zM241.355 135.686h2.762v2.903h-2.762zM241.355 139.686h2.762v2.903h-2.762zM241.355 143.686h2.762v2.903h-2.762zM241.355 147.686h2.762v2.903h-2.762zM241.355 151.686h2.762v2.903h-2.762zM241.355 155.686h2.762v2.903h-2.762zM241.355 159.686h2.762v2.903h-2.762zM241.355 163.686h2.762v2.903h-2.762zM241.355 167.686h2.762v2.903h-2.762zM241.355 171.686h2.762v2.903h-2.762z"/><path fill="#111E17" d="M192.938 180l-3.745-4.28 7.366-1.674-2.975-6.943 7.523.683-.683-7.523 6.943 2.974 1.675-7.366 5.685 4.976 3.87-6.488 3.868 6.488 5.685-4.975 1.676 7.367 6.943-2.974-.684 7.523 7.523-.683-2.975 6.943L248 175.72l-3.744 4.28"/><path fill="#20332A" d="M234.168 167.144l-4.975 5.685 7.366 1.674-2.356 5.498h48.786l-2.355-5.498L288 172.83l-4.974-5.686 6.488-3.87-6.488-3.868L288 153.72l-7.365-1.674 2.974-6.943-7.524.683.683-7.523-6.944 2.974-1.675-7.366-5.684 4.976-3.87-6.488-3.868 6.488-5.685-4.975-1.675 7.367-6.943-2.974.683 7.523-7.523-.683 2.974 6.943-7.367 1.675 4.975 5.686-6.488 3.87M157.393 167.267l-5.133 5.865 7.6 1.728-2.19 5.112h49.854l-2.19-5.112 7.6-1.728-5.133-5.865 6.695-3.992-6.694-3.992 5.134-5.865-7.6-1.728 3.07-7.164-7.763.705.706-7.76-7.164 3.068-1.728-7.6-5.865 5.133-3.993-6.693-3.992 6.694-5.865-5.132-1.728 7.6-7.164-3.07.705 7.763-7.762-.704 3.07 7.164-7.6 1.728 5.133 5.865-6.694 3.992"/><path fill="#111E17" d="M279.333 0l-2.08 4.853 9.54 2.17-6.442 7.36 8.402 5.01-8.4 5.01 6.44 7.363-9.538 2.17 3.852 8.99-9.742-.884.885 9.742-8.993-3.852-2.17 9.538-7.36-6.442-5.01 8.402-5.01-8.402-7.363 6.442-2.17-9.538-8.99 3.852.884-9.742-9.742.885 3.852-8.992-9.538-2.17 6.442-7.36-8.402-5.01 8.402-5.01-6.442-7.363 9.538-2.17L218.1.003"/><path fill="#111E17" d="M260.093 0l.66.394-8.402 5.01 6.443 7.362-9.54 2.17 3.853 8.99-9.742-.884.885 9.742-8.993-3.852-2.17 9.538-7.36-6.442-5.01 8.402-5.01-8.402-7.363 6.442-2.17-9.538-8.99 3.852.884-9.742-9.742.885 3.852-8.992-9.538-2.17 6.442-7.36-8.402-5.01.66-.395"/><linearGradient id="f" gradientUnits="userSpaceOnUse" y1="180" x2="1" y2="180" gradientTransform="rotate(-90 -18837.684 19044.292) scale(211.4276)"><stop offset="0" stop-color="#C0937B"/><stop offset=".005" stop-color="#C0937B"/><stop offset="1" stop-color="#183840"/></linearGradient><path fill="url(#f)" d="M0 0l-.002 180.002H173V53.844c0-25.132 21.17-45.578 47-45.578s47 20.447 47 45.578V180h83V0H0z"/><linearGradient id="g" gradientUnits="userSpaceOnUse" y1="180" x2="1" y2="180" gradientTransform="rotate(-90 -10195.612 10368.366) scale(115.4693)"><stop offset="0" stop-color="#705D5C"/><stop offset=".005" stop-color="#705D5C"/><stop offset="1" stop-color="#1C2A25"/></linearGradient><path fill="url(#g)" d="M218.5 8.137h4V180h-4z"/><linearGradient id="h" gradientUnits="userSpaceOnUse" y1="180" x2="1" y2="180" gradientTransform="matrix(0 -129.6707 129.6707 0 -23120.227 193)"><stop offset="0" stop-color="#705D5C"/><stop offset=".005" stop-color="#705D5C"/><stop offset="1" stop-color="#1C2A25"/></linearGradient><path fill="url(#h)" d="M174 46.662h93v4h-93z"/><linearGradient id="i" gradientUnits="userSpaceOnUse" y1="180" x2="1" y2="180" gradientTransform="matrix(0 -129.6707 129.6707 0 -23120.227 193)"><stop offset="0" stop-color="#705D5C"/><stop offset=".005" stop-color="#705D5C"/><stop offset="1" stop-color="#1C2A25"/></linearGradient><path fill="url(#i)" d="M174 96.662h93v4h-93z"/><linearGradient id="j" gradientUnits="userSpaceOnUse" y1="180" x2="1" y2="180" gradientTransform="matrix(0 -129.6707 129.6707 0 -23120.227 193)"><stop offset="0" stop-color="#705D5C"/><stop offset=".005" stop-color="#705D5C"/><stop offset="1" stop-color="#1C2A25"/></linearGradient><path fill="url(#j)" d="M174 146.662h93v4h-93z"/><linearGradient id="k" gradientUnits="userSpaceOnUse" y1="180" x2="1" y2="180" gradientTransform="rotate(-90 -10166.667 10338.675) scale(115.1436)"><stop offset="0" stop-color="#705D5C"/><stop offset=".005" stop-color="#705D5C"/><stop offset="1" stop-color="#1C2A25"/></linearGradient><path fill="url(#k)" d="M177 180V54.06c0-23.99 19.564-43.435 43.5-43.435S264 30.07 264 54.06V180h5V54.06c0-26.707-21.845-48.435-48.5-48.435-26.654 0-48.5 21.728-48.5 48.434V180h5z"/><path fill="#E2DECF" d="M188.768 82.545c1.45 0 2.627 1.176 2.627 2.627 0-1.45 1.176-2.627 2.627-2.627-1.45 0-2.627-1.176-2.627-2.627 0 1.45-1.176 2.627-2.627 2.627zM255.97 89.057c1.45 0 2.627 1.176 2.627 2.627 0-1.45 1.176-2.627 2.627-2.627-1.45 0-2.627-1.176-2.627-2.627 0 1.45-1.176 2.627-2.627 2.627zM202.345 57.982c1.45 0 2.627 1.176 2.627 2.627 0-1.452 1.176-2.628 2.627-2.628-1.452 0-2.628-1.176-2.628-2.627 0 1.45-1.177 2.627-2.627 2.627zM227.056 69.57c1.953 0 3.537 1.584 3.537 3.537 0-1.953 1.584-3.537 3.537-3.537-1.953 0-3.537-1.584-3.537-3.537 0 1.953-1.584 3.537-3.537 3.537zM184.978 39c2 0 3.624 1.622 3.624 3.624 0-2 1.622-3.624 3.624-3.624-2 0-3.624-1.622-3.624-3.624 0 2.002-1.622 3.624-3.624 3.624zM230.593 110.45c2.065 0 3.738 1.674 3.738 3.738 0-2.065 1.675-3.738 3.74-3.738-2.066 0-3.74-1.674-3.74-3.738 0 2.065-1.672 3.738-3.737 3.738z"/><path fill="#FFBE57" d="M212.263 128.234h2.762v2.903h-2.762zM208.807 139.137h2.762v2.903h-2.763zM215.025 152.234h2.762v2.903h-2.762zM249.514 125.33h2.762v2.904h-2.762zM259.194 126.783h2.762v2.903h-2.762zM201.97 118.783h2.762v2.903h-2.762zM201.97 122.783h2.762v2.903h-2.762z"/><path fill="#191111" d="M0 0h164.342v180.002H0z"/><linearGradient id="l" gradientUnits="userSpaceOnUse" y1="180" x2="1" y2="180" gradientTransform="translate(-43 -38700.105) scale(215.5006)"><stop offset="0" stop-color="#705D5C"/><stop offset=".005" stop-color="#705D5C"/><stop offset="1" stop-color="#1C2A25"/></linearGradient><path fill="url(#l)" d="M69.575 0h5.16v180.002h-5.16z"/><linearGradient id="m" gradientUnits="userSpaceOnUse" y1="180" x2="1" y2="180" gradientTransform="translate(-43 -38747.523) scale(215.5006)"><stop offset="0" stop-color="#705D5C"/><stop offset=".005" stop-color="#705D5C"/><stop offset="1" stop-color="#1C2A25"/></linearGradient><path fill="url(#m)" d="M-.002 40h168.996v5.16H-.002z"/><linearGradient id="n" gradientUnits="userSpaceOnUse" y1="180" x2="1" y2="180" gradientTransform="translate(-43 -38697.523) scale(215.5006)"><stop offset="0" stop-color="#705D5C"/><stop offset=".005" stop-color="#705D5C"/><stop offset="1" stop-color="#1C2A25"/></linearGradient><path fill="url(#n)" d="M-.002 90h168.996v5.16H-.002z"/><linearGradient id="o" gradientUnits="userSpaceOnUse" y1="180" x2="1" y2="180" gradientTransform="translate(-43 -38647.523) scale(215.5006)"><stop offset="0" stop-color="#705D5C"/><stop offset=".005" stop-color="#705D5C"/><stop offset="1" stop-color="#1C2A25"/></linearGradient><path fill="url(#o)" d="M-.002 140h168.996v5.16H-.002z"/><linearGradient id="p" gradientUnits="userSpaceOnUse" y1="180" x2="1" y2="180" gradientTransform="translate(-43 -38700.117) scale(215.5006)"><stop offset="0" stop-color="#705D5C"/><stop offset=".005" stop-color="#705D5C"/><stop offset="1" stop-color="#1C2A25"/></linearGradient><path fill="url(#p)" d="M163.835 0h5.16v179.973h-5.16z"/><path fill="#1B2B2B" d="M0 100.91h7.55v38.5H0z"/><path fill="#283C3D" d="M8.55 103.326h8.5v36.083h-8.5zM18.05 99.242h11.167v40.167H18.05z"/><path fill="#3C4724" d="M30.275 104.86l5.555-2.478 15.412 34.548-5.555 2.478z"/><path fill="#444F24" d="M52.383 99.076h5.083v40.333h-5.083z"/><path fill="#485429" d="M58.467 100.91h8.167v38.5h-8.167z"/><path fill="#283C3D" d="M90.877 154.188h10V180h-10z"/><path fill="#1B2B2B" d="M101.877 155.808h8.5V180h-8.5z"/><path fill="#283C3D" d="M111.377 153.07h11.167V180h-11.167zM123.543 154.635h6.083V180h-6.083z"/><path fill="#1B2B2B" d="M130.627 157.154h8v22.848h-8zM82.793 153.797h7.083V180h-7.083zM75.734 153.797h6.083V180h-6.083zM139.71 152.904h9.25v27.098h-9.25zM149.96 154.737h6v25.265h-6z"/><path fill="#283C3D" d="M156.96 154.737h5.875v25.265h-5.875z"/><path fill="#1B2B2B" d="M86.316 89.237l-11.136.118-.426-40.16 11.136-.12z"/><path fill="#283C3D" d="M93.38 89.16l-6.066.065-.4-37.827 6.065-.064zM102.44 89.065l-8.063.086-.414-39.077 8.06-.085z"/><path fill="#1B2B2B" d="M112.66 88.957l-9.224.098-.428-40.327 9.224-.098z"/><path fill="#283C3D" d="M123.63 88.84l-9.97.107-.41-38.494 9.972-.106z"/><path fill="#1B2B2B" d="M137.404 88.694l-12.776.135-.444-41.952 12.775-.136zM144.814 88.618l-5.925-2.706 16.837-37.064 5.925 2.706M16.568 11.81h40.167V22.98H16.568z"/><path fill="#283C3D" d="M14.075 23.978h41.792v6.083H14.075zM16.026 31.06H55.11v8.084H16.025zM15.72 1.978h37.417v8.833H15.72z"/><path fill="#1B2B2B" d="M75.734 4.56h6.083V39h-6.083zM60.536 3.42h8.038V39h-8.038z"/><path fill="#283C3D" d="M82.818 3.42H90.9V39H82.82zM140.484 2.283h9.25V39h-9.25z"/><path fill="#1B2B2B" d="M150.734 6.283h12.184V39h-12.184zM91.9 2.283h9.25V39H91.9zM0 152.103h7.74v27.9H0z"/><path fill="#283C3D" d="M29.992 151.33H41.16v28.672H29.99zM42.158 150.17h6.083V180H42.16z"/><path fill="#1B2B2B" d="M49.242 152.103h8.083v27.9h-8.083z"/><path fill="#283C3D" d="M58.325 151.21h10.25V180h-10.25z"/><path fill="#1B2B2B" d="M18.992 152.52h10V180h-10z"/><path fill="#283C3D" d="M8.742 151.21h9.25V180h-9.25zM155.752 104.56h7.083V139h-7.083z"/><path fill="#1B2B2B" d="M146.668 103.42h8.083V139h-8.082z"/><path fill="#283C3D" d="M113.252 102.435h11.167V139H113.25z"/><path fill="#1B2B2B" d="M106.168 100.956h6.083V139h-6.082zM97.085 103.42h8.083V139h-8.083zM75.752 103.42h8.218V139h-8.218zM85.087 102.283h10.998V139H85.087zM125.418 103.952h10V139h-10z"/><path fill="#283C3D" d="M136.418 102.283h9.25V139h-9.25zM0 47.208h7.694V89H0z"/><path fill="#1B2B2B" d="M28.217 47.208H34.3V89h-6.083zM6.68 5.582h6.082v33.564H6.68z"/><path fill="#283C3D" d="M0 2.686h5.68v36.46H0z"/><path fill="#1B2B2B" d="M8.695 49.917h8.083V89H8.695zM35.317 49.917H43.4V89h-8.083z"/><path fill="#283C3D" d="M44.4 49.917h6.184V89H44.4z"/><path fill="#1B2B2B" d="M60.667 48.878h8.083V89h-8.083zM51.584 49.917h8.083V89h-8.083z"/><path fill="#283C3D" d="M17.778 48.667h9.25V89h-9.25z"/><path fill="#1B2B2B" d="M135.742 18.41c0-8.012-5.715-14.712-13.282-16.245l-.884-.125-.446 2.55c-.643-.092-1.295-.154-1.964-.154-7.717 0-13.974 6.256-13.974 13.974 0 6.742 4.775 12.368 11.13 13.682l-.423 2.413.855.285c.57.084 1.15.174 1.735.203L114.522 39h9.29l-3.973-4.01c8.826-.358 15.902-7.668 15.902-16.58zm-16.575 15.683c-.77 0-1.518-.074-2.257-.182l.294-1.68c.643.09 1.295.152 1.964.152 7.717 0 13.974-6.256 13.974-13.974 0-6.742-4.775-12.368-11.128-13.682l.294-1.685c7.148 1.46 12.543 7.795 12.543 15.368 0 8.65-7.035 15.685-15.683 15.685z"/><path fill="#191111" d="M277.055 0H350v180.002h-72.945z"/><linearGradient id="q" gradientUnits="userSpaceOnUse" y1="180" x2="1" y2="180" gradientTransform="matrix(198.5025 0 0 -198.5025 117.694 35773.03)"><stop offset="0" stop-color="#705D5C"/><stop offset=".005" stop-color="#705D5C"/><stop offset="1" stop-color="#1C2A25"/></linearGradient><path fill="url(#q)" d="M272 40h78v5.16h-78z"/><linearGradient id="r" gradientUnits="userSpaceOnUse" y1="180" x2="1" y2="180" gradientTransform="matrix(198.5025 0 0 -198.5025 117.694 35823.03)"><stop offset="0" stop-color="#705D5C"/><stop offset=".005" stop-color="#705D5C"/><stop offset="1" stop-color="#1C2A25"/></linearGradient><path fill="url(#r)" d="M272 90h78v5.16h-78z"/><linearGradient id="s" gradientUnits="userSpaceOnUse" y1="180" x2="1" y2="180" gradientTransform="matrix(198.5025 0 0 -198.5025 117.694 35873.03)"><stop offset="0" stop-color="#705D5C"/><stop offset=".005" stop-color="#705D5C"/><stop offset="1" stop-color="#1C2A25"/></linearGradient><path fill="url(#s)" d="M272 140h78v5.16h-78z"/><linearGradient id="t" gradientUnits="userSpaceOnUse" y1="180" x2="1" y2="180" gradientTransform="matrix(198.5025 0 0 -198.5025 117.694 35820.453)"><stop offset="0" stop-color="#705D5C"/><stop offset=".005" stop-color="#705D5C"/><stop offset="1" stop-color="#1C2A25"/></linearGradient><path fill="url(#t)" d="M272 0h5.16v180.002H272z"/><path fill="#283C3D" d="M350 132.867v4.382l-3.924 1.75-15.414-34.55 5.555-2.477"/><path fill="#1B2B2B" d="M350 129.065l-11.33-25.394 8.29-3.697 3.042 6.823"/><path fill="#283C3D" d="M324.562 98.667h5.083V139h-5.083z"/><path fill="#1B2B2B" d="M315.395 100.5h8.167V139h-8.167z"/><path fill="#283C3D" d="M287.66 149.667h10V180h-10z"/><path fill="#1B2B2B" d="M278.16 152.647h8.5v27.355h-8.5zM298.66 152.647h7.082v27.355h-7.083zM306.718 152.647h6.083V180h-6.082zM325.294 15.478H350v7.5h-24.706z"/><path fill="#283C3D" d="M326.162 23.978H350v6.083h-23.838zM326.92 31.06H350v8.084h-23.08zM326.892 5.645H350v8.833h-23.108z"/><path fill="#1B2B2B" d="M329.004 0H350v4.586h-20.996zM301.21 4.56h6.084V39h-6.083z"/><path fill="#283C3D" d="M308.294 2.41h8.088V39h-8.088zM317.382 7.602h6.174V39h-6.174zM292.127 3.42h8.083V39h-8.083z"/><path fill="#1B2B2B" d="M281.877 2.283h9.25V39h-9.25z"/><path fill="#283C3D" d="M341.218 150.14H350v29.832h-8.782zM334.135 148.662h6.083v31.34h-6.083z"/><path fill="#1B2B2B" d="M325.052 151.128h8.083v28.874h-8.083z"/><path fill="#283C3D" d="M313.802 149.99h10.25V180h-10.25zM307.277 100.956h7.118V139h-7.118z"/><path fill="#1B2B2B" d="M278.16 103.42h6.783V139h-6.784zM298.06 103.42h8.217V139h-8.218z"/><path fill="#283C3D" d="M285.944 102.283h10.998V139h-10.998z"/><path fill="#1B2B2B" d="M339.17 48.833H350V89h-10.83z"/><path fill="#283C3D" d="M332.087 47.208h6.083V89h-6.083z"/><path fill="#1B2B2B" d="M305.67 47.208h6.083V89h-6.083zM323.003 49.917h8.083V89h-8.083zM296.587 49.917h8.083V89h-8.083zM278.16 48.878h8.082V89h-8.083z"/><path fill="#283C3D" d="M287.243 49.917h8.083V89h-8.083zM312.753 48.667h9.25V89h-9.25z"/><path fill="#A8644F" d="M92.94 69.43c.78-1.435.164-2.79-.877-3.516-.01-.65-.114-1.257-.358-1.77-1.104-2.318-6.01-2.017-8.1-2.4-5.295-.973-9.597-3.815-15.218-2.18-4.06 1.183-7.594 4.912-7.413 9.135.11 2.544 1.715 4.855 3.892 6.15-.537 2.983-1.44 5.89-2.592 8.692-.178.432-.227.826-.195 1.184-1.465 2.638-3.35 5.006-5.628 7.096-.74.678-1.04 2.058-1.31 2.996-.277.956-.23 1.855.803 2.25.74.28 1.468.32 2.178-.044.358-.184.688-.426 1.03-.637.303-.187.987-.784 1.277-.784.133 0 .455.265.6.322.237.092.487.153.74.18.49.05.988-.034 1.43-.252 1.66.616 3.337 1.025 5.05 1.284 2.354.357 9.523 7.708 11.16 3.694.324-.798.142-1.67-.107-2.463-.254-.81-.492-1.675-.816-2.458-.216-.524-.554-.95-.66-1.518-.16-.862-.103-1.814.05-2.672.185-1.04-.03-2.202-.18-3.247-.333-2.338-1.734-4.784-1.11-7.21.045-.17.09-.343.133-.514.032-.126.043-.247.056-.37.808-1.452 1.526-2.96 2.15-4.535 1.217.696 2.256 1.694 2.927 2.928.53.972.855 2.07 1.566 2.917s2.012 1.368 2.933.755c.738-.492.595-1.567 1.223-2.08.697-.568 2.08-.843 2.957-.686.368.065.63.264.993.055.447-.26.527-.832.41-1.292-.082-.33-.252-.633-.42-.93-.53-.94-1.018-1.924-1.61-2.823-.498-.754.036-1.262.644-1.745.314-.25.534-.61.772-.942.592-.824 1.136-1.68 1.62-2.572z"/><linearGradient id="u" gradientUnits="userSpaceOnUse" y1="180" x2="1" y2="180" gradientTransform="rotate(-71 -6578.6 4857.19) scale(53.9944)"><stop offset="0" stop-color="#AD745F"/><stop offset=".567" stop-color="#475B60"/><stop offset="1" stop-color="#475B60"/></linearGradient><path fill="url(#u)" d="M182.686 180c-1.085-2.703-1.704-5.606-2.54-8.48-1.314-4.514-2.143-10.327-4.55-14.378-2.353-4.237-5.357-8.75-9.36-11.588-2.134-1.514-4.392-2.082-6.95-2.4-3.694-.46-7.398-.853-11.102-1.232-7.294-.745-14.6-1.365-21.91-1.93-3.7-.288-7.402-.56-11.103-.83-1.613-.116-3.292-.384-4.906-.24-1.098.098-2.472-.16-3.503.146-2.508.745-2.794 5.11-2.36 7.132-3.57 2.54-7.383 4.734-11.37 6.545-3.072 1.396-6.39 2.137-7.852 5.526-2.363 5.48 2.342 11.445 7.576 12.792 8.354 2.15 17.466 3.356 26.028 4.154 6.92.645 13.948.063 20.666-1.71 2.53-.668 5.52-2.726 7.996-1.583 2.254 1.04 3.192 4.577 4.073 6.625.204.474.396.96.58 1.454l30.59-.002z"/><linearGradient id="v" gradientUnits="userSpaceOnUse" y1="180" x2="1" y2="180" gradientTransform="rotate(-17 -22762.673 3111.35) scale(39.273)"><stop offset="0" stop-color="#619494"/><stop offset="1" stop-color="#253328"/></linearGradient><path fill="url(#v)" d="M165.848 127.937l-6.588-17.682-32.365 22.044 7.483 15.195"/><path fill="#7A7C71" d="M157.13 108.56l-2.517 1.714-2.043-3.212-32.365 22.044 14.688 17.17 30.955-18.34"/><linearGradient id="w" gradientUnits="userSpaceOnUse" y1="180" x2="1" y2="180" gradientTransform="rotate(-132 -1878.607 4478.452) scale(49.343)"><stop offset="0" stop-color="#DEBAA4"/><stop offset=".513" stop-color="#476C6A"/><stop offset="1" stop-color="#161F18"/></linearGradient><path fill="url(#w)" d="M165.848 127.937l-14.43-21.187-32.365 22.044 14.43 21.187"/><path fill="#A8644F" d="M99.532 129.576c1.833-1.036 3.724-1.97 5.662-2.793 1.937-.824 3.92-1.54 5.937-2.146 2.018-.605 4.068-1.1 6.14-1.478 1.124-.207 2.255-.38 3.39-.517 1.067-.13 2.137-.154 3.2-.283l1.845-.224c.312-.038.627-.092.94-.114.26-.018.51-.113.774-.105.22.007.45.094.578.277.872 1.25-.864 1.687.865 2.434 1.566.677 3.43.976 5.073 1.443 1.06.302 2.262.732 2.64 1.767.97 2.668-3.344 4.94-5.122 6.045-2.683 1.67-5.693 2.86-8.832 1.75-2.478-.877-4.26-3.144-7.012-3.314-2.72-.168-14.308 3.845-13.833-1.854"/><linearGradient id="x" gradientUnits="userSpaceOnUse" y1="180" x2="1" y2="180" gradientTransform="matrix(22 -36 36 22 -6411.247 -3817.54)"><stop offset="0" stop-color="#A03030"/><stop offset="1" stop-color="#463345"/></linearGradient><path fill="url(#x)" d="M61.058 138.704c-.83-1.36-1.624-2.743-2.408-4.125-1.938-3.416-3.875-6.837-5.53-10.4-2.414-5.198-4.412-10.916-4.1-16.727.152-2.836.906-5.617 2.282-8.107.4-.726.906-1.466 1.212-2.236.2-.507.098-1.005.193-1.526.247-1.357 1.44-2.44 2.577-3.1 2.03-1.182 4.496-1.568 6.792-1.08 1.124.24 2.292.255 3.422.558 1.14.306 2.242.76 3.255 1.363 2.926 1.747 9.538 8.38 9.005.71 4.445.86 7.142 4.682 9.232 8.37 1.903 3.356 3.56 9.634 7.85 10.517 1.537.316 3.48.142 4.283 1.49.386.648.347 1.452.445 2.2.378 2.88 2.498 3.772 4.766 4.853 2.753 1.312 4.71 4.305 6.686 6.56 1.53 1.747 3.897 3.454 4.987 5.52 3.03 5.748-3.715 7.956-7.327 10.253l-20.12 12.796c-.852.54-1.77 1.102-2.78 1.07-1.877-.057-3.01-2.007-4.06-3.565-2.094-3.106-4.328-1.55-7.14-2.253-2.807-.703-5.81-3.38-7.756-5.404-2.238-2.324-4.08-4.98-5.766-7.74z"/><linearGradient id="y" gradientUnits="userSpaceOnUse" y1="180" x2="1" y2="180" gradientTransform="scale(31.5126) rotate(89 92.737 92.083)"><stop offset="0" stop-color="#331F15"/><stop offset="1" stop-color="#8B4539"/></linearGradient><path fill="url(#y)" d="M96.147 64.167c.86-1.128 1.007-2.63-.077-3.714-.32-.32-.748-.546-1.208-.67.648-1.904-1.103-4.285-3.195-3.582-3.78-2.637-6.607-4.91-11.49-5.678-3.13-.492-6.366-.375-9.447.383-1.37.338-2.874.715-4 1.57-.266.2-1.81 2.35-1.88 2.33-5.026-1.613-6.936 6.356-6.334 9.854.52 3.028.793 6.385 2.724 8.918.383.502.827.972 1.068 1.556s.222 1.335-.244 1.76c-.556.508-1.486.355-2.08.817-.803.624-.447 2.03.422 2.557s1.97.414 2.965.206c.996-.208 1.994-.444 2.988-.617.945 2.398 1.928 4.357 3.614 6.403 1.427 1.73 2.9 3.5 4.85 4.61 1.93 1.097 4.184 1.46 6.39 1.728 1.49.18 3.01.324 4.482.03 1.79-.357 2.355-1.447 3.71-2.36 1.02-.687 2.28-.82 2.962-1.946.62-1.024.664-2.344.338-3.473-.477-1.655-1.764-3.927-3.4-4.643-1.344-.587-2.413-.1-3.768.267-.15.04-.303.082-.46.095-.788.066-1.46-.577-1.872-1.252-.472-.77-.805-1.638-1.564-2.184-.535-.385-.914-1.227-1.442-1.686-.58-.504-1.242-.91-1.964-1.174-.376-.138-.766-.238-1.16-.3-.28-.046-1.075.06-1.28-.078-.72-.48.077-1.852.5-2.272-.083.082-.936-2.163-.976-2.382-.164-.897-.14-1.745.224-2.586.703-1.62 2.374-2.772 4.138-2.855.646-.03 1.288.073 1.925.187 2.437.652 4.47 2.993 6.475 4.363 2.38 1.626 5.46 2.15 8.167 1.16 2.756-1.01 2.153-4.92-.1-5.343zM70.14 74.06h-.186c-.438-.075-.77-.87-1.024-1.188-.434-.54-.944-1.032-1.422-1.534-.752-.79-1.803-1.624-2.295-2.618-.537-1.086-.735-2.405-.236-3.51.954-2.108 3.26-1.808 4.497-.194 1.357 1.773 1.98 4.203 1.74 6.414-.067.607-.305 2.492-1.075 2.63z"/><path fill="#3F1E1E" d="M69.11 151.523c5.955 6.017 13.782 1.805 19.385-2.373 4.412-3.29 8.917-5.873 14.17-7.613 3.1-1.028 5.826-2.055 6.445-5.574.973-5.534-5.4-11.547-10.652-10.214-2.112.535-3.96 2.487-6.008 3.287-2.34.913-4.665-1.974-6.81-2.625-2.616-.793-3.215 3.566-5.176 4l1.384 1.383c.842-3.687-1.05-10.705-6.1-7.17l1.694.97c.3-8.45-3.49-15.972-10.348-20.88-1.183-.846-2.304 1.106-1.136 1.943 6.217 4.45 9.505 11.32 9.233 18.938-.028.81.995 1.46 1.694.97 2.956.727 3.887 2.27 2.794 4.63-.196.86.53 1.572 1.384 1.384.922-.203 1.555-.43 2.14-1.25 1.892-2.656 2.878-1.96 5.15-.33 5.405 3.874 9.838-6.72 15.785-1.48 2.54 2.237 4.193 7.5-.75 9.423-1.442.56-2.954.968-4.405 1.512-2.647.992-5.132 2.364-7.534 3.838-5.765 3.538-13.983 12.472-20.747 5.638-1.02-1.03-2.612.56-1.59 1.593z"/><linearGradient id="z" gradientUnits="userSpaceOnUse" y1="180" x2="1" y2="180" gradientTransform="rotate(90 5828.426 5935.146) scale(64.9418)"><stop offset="0" stop-color="#331F15"/><stop offset="1" stop-color="#8B4539"/></linearGradient><path fill="url(#z)" d="M53.62 114.614c-5.416-9.587-10.96-22.993-22.074-27.062-5.37-1.965-14.532-1.542-18.205 3.684-3.73 5.308-1.366 15.305.84 20.862 3.367 8.49 9.503 15.67 13.67 23.804 7.15 13.952 11.412 28.69 13.783 44.1l95.072-.002c-.14-4.52-.524-9.032-1.152-13.51-.764-5.445-2.57-13.12-8.692-14.913-4.543-1.33-11.388-.774-16.062-.76-6.407.017-12.89-.615-19.29-.267-5.572.302-11.282 1.938-16.547-.87-4.32-2.304-6.845-6.92-8.758-11.428-3.5-8.245-8.174-15.83-12.583-23.638z"/><linearGradient id="A" gradientUnits="userSpaceOnUse" y1="180" x2="1" y2="180" gradientTransform="rotate(-135 -122.345 461.227) scale(4.9236)"><stop offset="0" stop-color="#331F15"/><stop offset="1" stop-color="#6A3227"/></linearGradient><path fill="url(#A)" d="M84.26 70.22c1.644-.05 3.298.246 4.822.864"/><linearGradient id="B" gradientUnits="userSpaceOnUse" y1="180" x2="1" y2="180" gradientTransform="scale(11.7002) rotate(-111 -55.634 90.596)"><stop offset="0" stop-color="#331F15"/><stop offset="1" stop-color="#6A3227"/></linearGradient><path fill="url(#B)" d="M84.26 72.04c1.52-.025 2.922.247 4.338.798.925.36 1.993-.388 2.236-1.27.283-1.028-.347-1.876-1.27-2.235-1.69-.657-3.49-.957-5.304-.928-2.34.036-2.345 3.67 0 3.634z"/><path fill="#3F1E1E" d="M103.87 128.156c2.007-2.696 5.607-.875 7.18 1.21.842 1.117 1.748 2.797 1.12 4.21-.733 1.646-3.087 2.123-4.62 2.544-1.397.383-.803 2.554.598 2.17 2.384-.654 4.55-1.442 5.963-3.578 1.354-2.045.045-4.71-1.118-6.48-2.475-3.77-8.107-5.185-11.065-1.21-.866 1.164 1.09 2.283 1.944 1.134zM74.82 104.492c1.012 3.677 1.62 7.178-1.086 10.278-.95 1.088.635 2.686 1.59 1.59 3.285-3.76 2.918-7.915 1.666-12.467-.384-1.396-2.555-.802-2.17.6z"/></svg>