<?xml version="1.0" encoding="utf-8"?>
<!-- Generator: Adobe Illustrator 16.0.4, SVG Export Plug-In . SVG Version: 6.00 Build 0)  -->
<svg version="1.2" baseProfile="tiny" id="Layer_1" xmlns="http://www.w3.org/2000/svg" xmlns:xlink="http://www.w3.org/1999/xlink"
	 x="0px" y="0px" width="39.782px" height="47.772px" viewBox="0 0 39.782 47.772" xml:space="preserve">
<path fill="#004712" d="M33.805,25.218l-0.544,6.25l-1.793-1.25l0.217-3.152v-0.055v-0.055l-0.055-0.054l-0.054-0.055l-3.858-2.554
	l0.055-2.772L33.805,25.218z M24.349,32.011l-2.772-2.119v0.488c0,0.109-0.054,0.218-0.108,0.272l-2.065,1.413l2.282,1.848
	l0.055,0.055v0.108l0.109,2.174l2.554,2.12L24.349,32.011z M6.902,34.729l1.304,6.25l5.38,5.706l-0.924-6.305L6.902,34.729z
	 M11.957,35.652l-1.304-8.75L4.13,21.467l1.739,8.479L11.957,35.652z M9.892,21.522L8.098,9.13l-7.5-4.674l2.445,11.685
	L9.892,21.522z"/>
<path fill="#00B259" d="M39.13,21.848l-0.814,5.925l-4.457,3.586l0.544-6.086L39.13,21.848z M24.946,32.011L25,38.424l5.706-4.565
	l0.381-6.25L24.946,32.011z M21.25,34.62l-8.043,5.76l0.979,6.631l7.283-5.814L21.25,34.62z M21.032,30.272l-0.38-8.696l-9.402,5.38
	l1.305,9.022L21.032,30.272z M20.435,16.522L19.946,4.783L8.642,9.13l1.848,12.609L20.435,16.522z"/>
<path d="M39.782,21.196C39.782,21.142,39.782,21.142,39.782,21.196v-0.109c0,0,0-0.054-0.054-0.054c0,0-0.055,0-0.055-0.054
	l-6.521-3.642c-0.108-0.054-0.218-0.054-0.272,0l-5.543,3.37h-0.055v0.326l-0.054,2.935L25,22.5c-0.108-0.054-0.218-0.054-0.326,0
	l-3.315,1.848l-0.162-3.261v-0.054v-0.054v-0.055V20.87v-0.054h-0.055l-3.37-2.229l3.152-1.63c0.108-0.054,0.163-0.163,0.163-0.271
	L20.489,4.348V4.293c0,0,0-0.054-0.054-0.054c0,0,0-0.054-0.055-0.054l-8.532-4.131C11.793,0,11.739,0,11.685,0L0.109,3.587
	c0,0-0.054,0-0.054,0.055c0,0-0.055,0-0.055,0.054v0.326l2.555,12.445c0,0.055,0.054,0.109,0.108,0.163l3.479,2.717l-2.555,1.196
	c0,0-0.054,0-0.054,0.054c0,0,0,0.055-0.054,0.055v0.108l1.957,9.348c0,0.055,0.054,0.109,0.108,0.164l2.446,2.281l-1.63,0.979
	l-0.054,0.055c0,0,0,0.055-0.055,0.055v0.162l1.522,7.229c0,0.055,0.054,0.109,0.054,0.164l5.924,6.521h0.055
	c0,0,0.054,0,0.054,0.055h0.271l7.826-6.25c0.055-0.055,0.109-0.164,0.109-0.219l-0.163-4.293l2.608,2.174c0,0,0.055,0,0.055,0.055
	h0.271l6.305-5c0.055-0.055,0.108-0.109,0.108-0.217l0.218-3.152l1.902,1.304h0.217c0,0,0.055,0,0.055-0.054l5.108-4.076
	c0.055-0.055,0.108-0.109,0.108-0.164L39.782,21.196C39.782,21.25,39.782,21.25,39.782,21.196z M33.858,31.358l0.544-6.086
	l4.782-3.425l-0.814,5.925L33.858,31.358z M31.468,30.218l0.217-3.152v-0.055v-0.055l-0.055-0.054l-0.054-0.055l-3.858-2.554
	l0.055-2.772l6.032,3.75l-0.544,6.25L31.468,30.218z M30.652,33.858l-5.706,4.565l-0.055-6.413l6.141-4.402L30.652,33.858z
	 M21.522,41.196l-7.337,5.814l-0.979-6.631l7.99-5.706L21.522,41.196z M8.152,40.979l-1.304-6.25l5.815,5.651l0.924,6.305
	L8.152,40.979z M8.043,9.13l1.793,12.392l-6.793-5.38L0.598,4.457L8.043,9.13z M19.946,4.783l0.489,11.739l-9.946,5.217L8.642,9.13
	L19.946,4.783z M21.032,30.272l-8.478,5.651l-1.305-9.021l9.402-5.38L21.032,30.272z M10.652,26.956l1.304,8.75l-6.087-5.76
	L4.13,21.467L10.652,26.956z M21.794,34.076v-0.054v-0.055l-0.055-0.055l-2.283-1.848l2.066-1.413
	c0.107-0.055,0.107-0.163,0.107-0.272v-0.488l2.772,2.119l0.054,6.413l-2.554-2.12L21.794,34.076z"/>
</svg>
