<svg xmlns="http://www.w3.org/2000/svg" viewBox="0 0 350 180"><linearGradient id="a" gradientUnits="userSpaceOnUse" x1="175" y1="76.654" x2="175" y2="-103.112"><stop offset="0" stop-color="#CFDCE2"/><stop offset="1" stop-color="#458E9C"/></linearGradient><path fill="url(#a)" d="M0 0v180h350V0S0 .007 0 0z"/><linearGradient id="b" gradientUnits="userSpaceOnUse" x1="57.149" y1="219.899" x2="138.849" y2="106.349"><stop offset="0" stop-color="#CFDCE2"/><stop offset="1" stop-color="#458E9C"/></linearGradient><path fill="url(#b)" d="M0 180.016l170.917-.107 53.637-15.853 50.946-49.562-196.95-35.63L25.57 89.96l-4.97 5.197L0 101.26"/><path fill="#0C2F3F" d="M326.68 90.945l-94.62-45.19-107.205-21.838c-.45-.09-.915 0-1.297.254L20.446 92.914c-1.554 1.036-1.084 3.433.746 3.805l102.962 20.974 97.826 46.72c.946.452 2.06.372 2.932-.21l102.137-68.09c1.92-1.282 1.715-4.17-.37-5.167z"/><path fill="#041B23" stroke="#0C2F3F" stroke-width="12" stroke-miterlimit="10" d="M128.84 119.82c-3.072 2.036-7.774.382-10.503-3.693-2.728-4.075-2.45-9.028.623-11.064 3.072-2.035 7.774-.382 10.503 3.693 2.728 4.075 2.45 9.028-.623 11.064z"/><path fill="#8B5971" d="M319.817 90.757l-95.97-44.603-96.07-19.57-93.153 59.99-6.54 6.47 89.85 18.304c.222-.22.545-.503.81-.68 2.933-1.953 8.082-.135 10.686 3.775.187.28.357.565.514.853l93.902 43.473 99.692-66.462-3.72-1.55z"/><linearGradient id="c" gradientUnits="userSpaceOnUse" x1="244.45" y1="158.878" x2="304.677" y2="65.768"><stop offset="0" stop-color="#C9A6B7"/><stop offset="1" stop-color="#B886A1"/></linearGradient><path fill="url(#c)" d="M323.537 92.307l-7.532-12.213-63.314 32.06-36.146 34.17 7.3 12.445"/><g><linearGradient id="d" gradientUnits="userSpaceOnUse" x1="275.781" y1="116.991" x2="175.166" y2="70.837"><stop offset="0" stop-color="#C9A6B7"/><stop offset="1" stop-color="#B886A1"/></linearGradient><path fill="url(#d)" d="M223.615 44.077c8.57-3.736 18.138-3.552 27.086-.83s17.077 7.575 24.97 12.584c5.136 3.26 10.218 6.605 15.357 9.86 5.157 3.266 10.374 6.444 15.75 9.342 2.12 1.143 7.058 4.02 9.23 5.063l-99.462 66.23c-2.17-1.042-7.11-3.92-9.23-5.062-5.375-2.898-10.592-6.076-15.75-9.342-5.138-3.254-10.22-6.598-15.356-9.858-7.894-5.01-16.022-9.86-24.97-12.584-8.948-2.723-18.516-2.906-27.086.83l99.46-66.23z"/></g><g><linearGradient id="e" gradientUnits="userSpaceOnUse" x1="146.44" y1="76.903" x2="82.748" y2="31.673"><stop offset="0" stop-color="#C9A6B7"/><stop offset="1" stop-color="#B886A1"/></linearGradient><path fill="url(#e)" d="M124.153 110.307c-3.09-3.63-7.12-6.585-11.288-9.42-16.43-11.173-35.548-11.943-54.632-11.304-7.126.238-17.027-1.244-23.61-3.01l99.462-66.23c6.583 1.765 16.483 3.248 23.61 3.01 19.082-.64 38.2.13 54.63 11.303 4.17 2.836 8.2 5.79 11.288 9.42l-99.46 66.23z"/></g><g><path fill="#A57D42" d="M117.193 81.552c0 10.4 6.67 20.01 18.775 27.058 11.42 6.65 26.52 10.31 42.514 10.31 15.994 0 31.098-3.66 42.518-10.31 12.106-7.05 18.788-16.658 18.788-27.058 0-.03-.026-.06-.026-.09h.006v-4.616l-.408.336c-1.6-8.703-8.01-16.64-18.4-22.688-11.42-6.65-26.505-10.31-42.498-10.31-15.994 0-31.084 3.66-42.504 10.31-10.26 5.974-16.61 13.788-18.308 22.364l-.46-.012.003 4.706zm8.075 0c0-7.406 5.242-14.536 14.76-20.078 10.205-5.942 23.86-9.214 38.447-9.214 14.588 0 28.242 3.272 38.447 9.214 9.518 5.542 14.76 12.672 14.76 20.078s-5.242 14.536-14.76 20.078c-10.205 5.94-23.86 9.214-38.447 9.214s-28.242-3.272-38.447-9.214c-9.518-5.542-14.76-12.673-14.76-20.078z"/><path fill="#E0C790" d="M135.965 103.994c-12.106-7.05-18.773-16.658-18.773-27.058 0-10.4 6.667-20.01 18.773-27.058 11.42-6.65 26.517-10.31 42.51-10.31 15.995 0 31.092 3.66 42.512 10.31 12.106 7.05 18.773 16.658 18.773 27.058 0 10.4-6.667 20.01-18.773 27.058-11.42 6.65-26.517 10.31-42.51 10.31-15.995 0-31.092-3.66-42.512-10.31zm4.064-47.136c-9.52 5.542-14.76 12.672-14.76 20.078s5.24 14.536 14.76 20.078c10.204 5.94 23.858 9.214 38.446 9.214s28.242-3.272 38.447-9.214c9.518-5.542 14.76-12.672 14.76-20.078s-5.242-14.536-14.76-20.078c-10.205-5.942-23.86-9.214-38.447-9.214-14.588 0-28.242 3.273-38.447 9.214z"/><linearGradient id="f" gradientUnits="userSpaceOnUse" x1="117.525" y1="100.365" x2="28.448" y2="141.442"><stop offset="0" stop-color="#041B23"/><stop offset=".002" stop-color="#041B23"/><stop offset=".668" stop-color="#344A4B"/><stop offset="1" stop-color="#465C5B"/></linearGradient><path fill="url(#f)" d="M127.278 98.18c-.39-.942-1.47-1.388-2.413-.998l-6.052 2.51c-.93-1.02-2.052-1.488-2.907-1.086-.145.068-.275.16-.39.27-2.048-1.51-4.81-1.94-7.33-.894l-67.676 28.08c-3.826 1.588-5.64 5.977-4.053 9.803 1.198 2.886 3.99 4.628 6.93 4.628.958 0 1.932-.185 2.87-.575l67.677-28.08c2.47-1.026 4.1-3.22 4.52-5.676.333.05.655.018.945-.118.87-.41 1.223-1.613 1.005-3.014l5.874-2.437c.942-.39 1.39-1.47.998-2.413z"/><path fill="#F2E9D7" d="M135.727 71.71c7.535-6.473 16.436-10.973 26.14-13.345 5.024-1.228 9.053-1.703 14.27-1.857 2.446-.072 4.897-.014 7.34.134 2.562.155 5.1.443 7.16.758 1.864.285 3.714-.44 4.258-2.418.456-1.656-.55-3.973-2.418-4.258-10.695-1.634-21.525-1.584-32.096.88-10.952 2.555-21.038 7.9-29.55 15.213-1.43 1.23-1.257 3.637 0 4.895 1.41 1.408 3.467 1.228 4.897 0zM218.78 83.388c-.663 1.27-1.07 1.816-1.783 2.608-.386.43-.806.827-1.23 1.216-.26.236-.53.458-.8.68.477-.392-.426.31-.42.305-1.046.75-2.173 1.382-3.328 1.946-.013.006-1.05.468-.436.21-.314.132-.633.25-.953.366-.62.227-1.257.414-1.897.584-1.823.485-2.915 2.452-2.418 4.258.503 1.83 2.436 2.902 4.258 2.418 6.03-1.604 12.04-5.45 14.982-11.1.872-1.673.444-3.748-1.242-4.735-1.565-.917-3.863-.43-4.734 1.243z"/></g></svg>