<?xml version="1.0" encoding="utf-8"?>
<!-- Generator: Adobe Illustrator 18.0.0, SVG Export Plug-In . SVG Version: 6.00 Build 0)  -->
<!DOCTYPE svg PUBLIC "-//W3C//DTD SVG 1.1//EN" "http://www.w3.org/Graphics/SVG/1.1/DTD/svg11.dtd">
<svg version="1.1" id="Layer_1" xmlns="http://www.w3.org/2000/svg" xmlns:xlink="http://www.w3.org/1999/xlink" x="0px" y="0px"
	 viewBox="0 0 350 180" enable-background="new 0 0 350 180" xml:space="preserve">
<g>
	<linearGradient id="SVGID_1_" gradientUnits="userSpaceOnUse" x1="175" y1="76.6537" x2="175" y2="-103.1117">
		<stop  offset="0" style="stop-color:#CFDCE2"/>
		<stop  offset="1" style="stop-color:#458E9C"/>
	</linearGradient>
	<path fill="url(#SVGID_1_)" d="M0,0v179.999h350V0C350,0,0,0.007,0,0z"/>
	<linearGradient id="SVGID_2_" gradientUnits="userSpaceOnUse" x1="57.1491" y1="219.8988" x2="138.8493" y2="106.3494">
		<stop  offset="0" style="stop-color:#CFDCE2"/>
		<stop  offset="1" style="stop-color:#458E9C"/>
	</linearGradient>
	<polygon fill="url(#SVGID_2_)" points="0,180.016 170.917,179.909 224.554,164.057 275.5,114.495 78.55,78.864 25.57,89.961 
		20.601,95.157 0,101.259 	"/>
</g>
<path fill="#0C2F3F" d="M326.68,90.945l-94.621-45.19L124.855,23.917c-0.449-0.091-0.915,0-1.297,0.254L20.446,92.913
	c-1.554,1.036-1.084,3.433,0.746,3.805l102.962,20.974l97.826,46.72c0.946,0.452,2.06,0.372,2.932-0.209l102.137-68.091
	C328.971,94.83,328.765,91.941,326.68,90.945z"/>
<path fill="#041B23" stroke="#0C2F3F" stroke-width="12" stroke-miterlimit="10" d="M128.84,119.82
	c-3.072,2.036-7.774,0.382-10.503-3.693c-2.728-4.075-2.449-9.028,0.623-11.064c3.072-2.035,7.774-0.382,10.503,3.693
	C132.191,112.831,131.912,117.784,128.84,119.82z"/>
<path fill="#8B5971" d="M319.817,90.757l-95.971-44.603l-96.069-19.57L34.624,86.573l-6.54,6.472l89.85,18.303
	c0.222-0.221,0.545-0.503,0.811-0.68c2.932-1.953,8.081-0.135,10.685,3.775c0.187,0.28,0.357,0.565,0.514,0.853l93.902,43.473
	l99.692-66.461L319.817,90.757z"/>
<linearGradient id="SVGID_3_" gradientUnits="userSpaceOnUse" x1="244.4498" y1="158.8784" x2="304.6774" y2="65.768">
	<stop  offset="0" style="stop-color:#C9A6B7"/>
	<stop  offset="1" style="stop-color:#B886A1"/>
</linearGradient>
<polygon fill="url(#SVGID_3_)" points="323.537,92.307 316.005,80.094 252.691,112.153 216.544,146.325 223.845,158.769 "/>
<g>
	<linearGradient id="SVGID_4_" gradientUnits="userSpaceOnUse" x1="275.7806" y1="116.9911" x2="175.1656" y2="70.8374">
		<stop  offset="0" style="stop-color:#C9A6B7"/>
		<stop  offset="1" style="stop-color:#B886A1"/>
	</linearGradient>
	<path fill="url(#SVGID_4_)" d="M223.615,44.077c8.569-3.736,18.138-3.552,27.086-0.83s17.076,7.575,24.969,12.584
		c5.136,3.259,10.218,6.604,15.357,9.859c5.157,3.266,10.374,6.444,15.749,9.342c2.12,1.143,7.059,4.02,9.23,5.063l-99.461,66.231
		c-2.171-1.043-7.11-3.92-9.23-5.063c-5.375-2.898-10.592-6.076-15.749-9.342c-5.139-3.255-10.221-6.599-15.357-9.859
		c-7.893-5.009-16.021-9.861-24.969-12.584c-8.948-2.723-18.516-2.906-27.086,0.83L223.615,44.077z"/>
</g>
<g>
	<linearGradient id="SVGID_5_" gradientUnits="userSpaceOnUse" x1="146.4404" y1="76.9032" x2="82.7483" y2="31.6726">
		<stop  offset="0" style="stop-color:#C9A6B7"/>
		<stop  offset="1" style="stop-color:#B886A1"/>
	</linearGradient>
	<path fill="url(#SVGID_5_)" d="M124.153,110.307c-3.09-3.631-7.119-6.585-11.288-9.421C96.434,89.714,77.317,88.944,58.233,89.583
		c-7.126,0.238-17.027-1.244-23.609-3.009l99.461-66.231c6.583,1.765,16.483,3.248,23.609,3.009
		c19.083-0.639,38.201,0.131,54.631,11.304c4.17,2.836,8.199,5.79,11.288,9.421L124.153,110.307z"/>
</g>
<g>
	<path fill="#A57D42" d="M117.193,81.552c0,10.4,6.669,20.009,18.775,27.058c11.42,6.649,26.521,10.311,42.514,10.311
		c15.994,0,31.098-3.662,42.518-10.311c12.106-7.049,18.788-16.658,18.788-27.058c0-0.03-0.026-0.06-0.026-0.091l0.006,0v-4.615
		l-0.408,0.336c-1.601-8.703-8.011-16.639-18.401-22.688c-11.42-6.649-26.504-10.311-42.497-10.311
		c-15.994,0-31.084,3.662-42.504,10.311c-10.261,5.974-16.609,13.788-18.308,22.364l-0.46-0.012L117.193,81.552z M125.268,81.552
		c0-7.406,5.242-14.536,14.76-20.078c10.205-5.942,23.859-9.214,38.447-9.214c14.588,0,28.242,3.272,38.447,9.214
		c9.518,5.542,14.76,12.672,14.76,20.078s-5.242,14.536-14.76,20.078c-10.205,5.941-23.859,9.214-38.447,9.214
		s-28.242-3.272-38.447-9.214C130.51,96.088,125.268,88.957,125.268,81.552z"/>
	<g>
		<path fill="#E0C790" d="M135.965,103.994c-12.106-7.049-18.773-16.658-18.773-27.058c0-10.4,6.667-20.009,18.773-27.058
			c11.42-6.649,26.517-10.311,42.511-10.311c15.994,0,31.091,3.662,42.511,10.311c12.106,7.049,18.773,16.658,18.773,27.058
			c0,10.4-6.667,20.009-18.773,27.058c-11.42,6.649-26.517,10.311-42.511,10.311C162.482,114.305,147.385,110.643,135.965,103.994z
			 M140.029,56.858c-9.518,5.542-14.76,12.672-14.76,20.078s5.242,14.536,14.76,20.078c10.205,5.941,23.859,9.214,38.447,9.214
			s28.242-3.272,38.447-9.214c9.518-5.542,14.76-12.672,14.76-20.078s-5.242-14.536-14.76-20.078
			c-10.205-5.942-23.859-9.214-38.447-9.214C163.888,47.644,150.234,50.917,140.029,56.858z"/>
	</g>
	<linearGradient id="SVGID_6_" gradientUnits="userSpaceOnUse" x1="117.5251" y1="100.3648" x2="28.4485" y2="141.4416">
		<stop  offset="0" style="stop-color:#041B23"/>
		<stop  offset="0.0016" style="stop-color:#041B23"/>
		<stop  offset="0.6679" style="stop-color:#344A4B"/>
		<stop  offset="1" style="stop-color:#465C5B"/>
	</linearGradient>
	<path fill="url(#SVGID_6_)" d="M127.278,98.18c-0.391-0.942-1.471-1.388-2.413-0.998l-6.052,2.511
		c-0.929-1.02-2.052-1.489-2.907-1.087c-0.145,0.068-0.275,0.16-0.391,0.269c-2.047-1.508-4.81-1.939-7.329-0.893L40.51,126.063
		c-3.826,1.587-5.64,5.976-4.053,9.802c1.198,2.886,3.989,4.628,6.93,4.628c0.958,0,1.932-0.185,2.871-0.575l67.676-28.081
		c2.471-1.025,4.101-3.219,4.519-5.675c0.334,0.051,0.656,0.018,0.946-0.118c0.872-0.41,1.224-1.613,1.006-3.014l5.874-2.437
		C127.222,100.202,127.669,99.122,127.278,98.18z"/>
	<g>
		<path fill="#F2E9D7" d="M135.727,71.711c7.535-6.474,16.436-10.974,26.139-13.346c5.025-1.228,9.054-1.703,14.27-1.857
			c2.447-0.072,4.898-0.014,7.341,0.134c2.562,0.155,5.101,0.443,7.16,0.758c1.864,0.285,3.714-0.441,4.258-2.418
			c0.456-1.656-0.55-3.973-2.418-4.258c-10.695-1.634-21.525-1.584-32.096,0.881c-10.953,2.554-21.039,7.9-29.55,15.212
			c-1.432,1.231-1.258,3.637,0,4.895C132.241,73.12,134.297,72.94,135.727,71.711L135.727,71.711z"/>
	</g>
	<g>
		<path fill="#F2E9D7" d="M218.779,83.388c-0.662,1.27-1.068,1.816-1.782,2.608c-0.386,0.429-0.806,0.827-1.231,1.216
			c-0.258,0.236-0.528,0.458-0.798,0.68c0.476-0.392-0.427,0.309-0.421,0.305c-1.046,0.75-2.173,1.382-3.328,1.946
			c-0.012,0.006-1.05,0.468-0.435,0.211c-0.314,0.131-0.633,0.248-0.953,0.365c-0.622,0.228-1.258,0.415-1.898,0.585
			c-1.823,0.485-2.915,2.452-2.418,4.258c0.503,1.83,2.436,2.902,4.258,2.418c6.031-1.604,12.041-5.451,14.982-11.099
			c0.872-1.674,0.444-3.749-1.242-4.736C221.948,81.228,219.65,81.716,218.779,83.388L218.779,83.388z"/>
	</g>
</g>
</svg>
